<svg width="25" height="24" viewBox="0 0 25 24" fill="none" xmlns="http://www.w3.org/2000/svg">
<path d="M17.0326 8.99991C16.9643 10.922 16.1362 12.7386 14.7302 14.0509C13.3241 15.3632 11.4549 16.0642 9.53259 15.9999L8.60259 17.1199L8.05259 17.7799C7.94402 17.9101 7.80411 18.0106 7.64603 18.0719C7.48794 18.1332 7.31686 18.1533 7.14888 18.1303C6.98089 18.1073 6.82151 18.042 6.68572 17.9404C6.54992 17.8389 6.44217 17.7045 6.37259 17.5499L5.03259 14.5999C4.11772 13.9779 3.36701 13.1437 2.84459 12.1685C2.32217 11.1933 2.04357 10.1062 2.03259 8.99991C2.10091 7.07778 2.92895 5.26126 4.33502 3.94893C5.74108 2.6366 7.61033 1.93566 9.53259 1.99991C10.9327 1.97731 12.3113 2.3464 13.5128 3.06555C14.7143 3.78469 15.691 4.82527 16.3326 6.06991C16.7936 6.97774 17.0335 7.98171 17.0326 8.99991Z" fill="#FCFCFC"/>
<path d="M22.0325 12.8601C22.0216 13.9663 21.743 15.0535 21.2205 16.0286C20.6981 17.0038 19.9474 17.8381 19.0325 18.4601L17.6925 21.4101C17.623 21.5647 17.5152 21.6991 17.3794 21.8006C17.2436 21.9021 17.0842 21.9675 16.9163 21.9905C16.7483 22.0135 16.5772 21.9934 16.4191 21.9321C16.261 21.8708 16.1211 21.7703 16.0125 21.6401L14.5325 19.8601C13.4026 19.8729 12.284 19.6337 11.2581 19.1597C10.2323 18.6857 9.32509 17.9889 8.60254 17.1201L9.53254 16.0001C11.4548 16.0643 13.3241 15.3634 14.7301 14.051C16.1362 12.7387 16.9642 10.9222 17.0325 9.00007C17.0334 7.98188 16.7936 6.9779 16.3325 6.07007C17.9108 6.38979 19.3339 7.23545 20.3693 8.46881C21.4047 9.70217 21.991 11.2503 22.0325 12.8601Z" fill="#CBCBCB"/>
<path d="M12.0326 9.75H7.03259C6.83409 9.74869 6.64408 9.66925 6.50371 9.52888C6.36334 9.38851 6.2839 9.19851 6.28259 9C6.2839 8.80149 6.36334 8.61149 6.50371 8.47112C6.64408 8.33075 6.83409 8.25131 7.03259 8.25H12.0326C12.2311 8.25131 12.4211 8.33075 12.5615 8.47112C12.7018 8.61149 12.7813 8.80149 12.7826 9C12.7813 9.19851 12.7018 9.38851 12.5615 9.52888C12.4211 9.66925 12.2311 9.74869 12.0326 9.75Z" fill="#CBCBCB"/>
</svg>
