<svg width="25" height="24" viewBox="0 0 25 24" fill="none" xmlns="http://www.w3.org/2000/svg">
<path d="M17.592 8.99991C17.5237 10.922 16.6957 12.7386 15.2896 14.0509C13.8836 15.3632 12.0143 16.0642 10.092 15.9999L9.16204 17.1199L8.61204 17.7799C8.50347 17.9101 8.36356 18.0106 8.20547 18.0719C8.04739 18.1332 7.87631 18.1533 7.70833 18.1303C7.54034 18.1073 7.38096 18.042 7.24516 17.9404C7.10937 17.8389 7.00162 17.7045 6.93204 17.5499L5.59204 14.5999C4.67717 13.9779 3.92646 13.1437 3.40404 12.1685C2.88162 11.1933 2.60302 10.1062 2.59204 8.99991C2.66036 7.07778 3.4884 5.26126 4.89446 3.94893C6.30053 2.6366 8.16978 1.93566 10.092 1.99991C11.4921 1.97731 12.8707 2.3464 14.0722 3.06555C15.2737 3.78469 16.2504 4.82527 16.892 6.06991C17.3531 6.97774 17.5929 7.98171 17.592 8.99991Z" fill="#FCFCFC"/>
<path d="M22.5921 12.8601C22.5811 13.9663 22.3025 15.0535 21.7801 16.0286C21.2577 17.0038 20.507 17.8381 19.5921 18.4601L18.2521 21.4101C18.1825 21.5647 18.0748 21.6991 17.939 21.8006C17.8032 21.9021 17.6438 21.9675 17.4758 21.9905C17.3078 22.0135 17.1368 21.9934 16.9787 21.9321C16.8206 21.8708 16.6807 21.7703 16.5721 21.6401L15.0921 19.8601C13.9621 19.8729 12.8435 19.6337 11.8177 19.1597C10.7919 18.6857 9.88466 17.9889 9.16211 17.1201L10.0921 16.0001C12.0144 16.0643 13.8836 15.3634 15.2897 14.051C16.6958 12.7387 17.5238 10.9222 17.5921 9.00007C17.593 7.98188 17.3532 6.9779 16.8921 6.07007C18.4704 6.38979 19.8935 7.23545 20.9289 8.46881C21.9643 9.70217 22.5506 11.2503 22.5921 12.8601Z" fill="#737373"/>
<path d="M12.592 9.75H7.59204C7.39353 9.74869 7.20353 9.66925 7.06316 9.52888C6.92279 9.38851 6.84335 9.19851 6.84204 9C6.84335 8.80149 6.92279 8.61149 7.06316 8.47112C7.20353 8.33075 7.39353 8.25131 7.59204 8.25H12.592C12.7905 8.25131 12.9806 8.33075 13.1209 8.47112C13.2613 8.61149 13.3407 8.80149 13.342 9C13.3407 9.19851 13.2613 9.38851 13.1209 9.52888C12.9806 9.66925 12.7905 9.74869 12.592 9.75Z" fill="#737373"/>
</svg>
