<svg width="24" height="24" viewBox="0 0 24 24" fill="none" xmlns="http://www.w3.org/2000/svg">
    <path
        d="M17 8.99991C16.9317 10.922 16.1036 12.7386 14.6976 14.0509C13.2915 15.3632 11.4223 16.0642 9.5 15.9999L8.57 17.1199L8.02 17.7799C7.91142 17.9101 7.77152 18.0106 7.61343 18.0719C7.45535 18.1332 7.28427 18.1533 7.11628 18.1303C6.9483 18.1073 6.78892 18.042 6.65312 17.9404C6.51733 17.8389 6.40958 17.7045 6.34 17.5499L5 14.5999C4.08513 13.9779 3.33442 13.1437 2.812 12.1685C2.28958 11.1933 2.01098 10.1062 2 8.99991C2.06832 7.07778 2.89636 5.26126 4.30242 3.94893C5.70849 2.6366 7.57773 1.93566 9.5 1.99991C10.9001 1.97731 12.2787 2.3464 13.4802 3.06555C14.6817 3.78469 15.6584 4.82527 16.3 6.06991C16.761 6.97774 17.0009 7.98171 17 8.99991Z"
        fill="#B7B7B7" />
    <path
        d="M22.0001 12.8601C21.9891 13.9663 21.7105 15.0535 21.1881 16.0286C20.6657 17.0038 19.9149 17.8381 19.0001 18.4601L17.6601 21.4101C17.5905 21.5647 17.4827 21.6991 17.3469 21.8006C17.2112 21.9021 17.0518 21.9675 16.8838 21.9905C16.7158 22.0135 16.5447 21.9934 16.3866 21.9321C16.2285 21.8708 16.0886 21.7703 15.9801 21.6401L14.5001 19.8601C13.3701 19.8729 12.2515 19.6337 11.2257 19.1597C10.1998 18.6857 9.29262 17.9889 8.57007 17.1201L9.50007 16.0001C11.4223 16.0643 13.2916 15.3634 14.6976 14.051C16.1037 12.7387 16.9318 10.9222 17.0001 9.00007C17.001 7.98188 16.7611 6.9779 16.3001 6.07007C17.8783 6.38979 19.3015 7.23545 20.3368 8.46881C21.3722 9.70217 21.9586 11.2503 22.0001 12.8601Z"
        fill="#737373" />
    <path
        d="M12 9.75H7C6.80149 9.74869 6.61149 9.66925 6.47112 9.52888C6.33075 9.38851 6.25131 9.19851 6.25 9C6.25131 8.80149 6.33075 8.61149 6.47112 8.47112C6.61149 8.33075 6.80149 8.25131 7 8.25H12C12.1985 8.25131 12.3885 8.33075 12.5289 8.47112C12.6693 8.61149 12.7487 8.80149 12.75 9C12.7487 9.19851 12.6693 9.38851 12.5289 9.52888C12.3885 9.66925 12.1985 9.74869 12 9.75Z"
        fill="#737373" />
</svg>