<svg width="24" height="24" viewBox="0 0 24 24" fill="none" xmlns="http://www.w3.org/2000/svg">
<path d="M19.5 7.49998L18.01 8.98998L15.01 5.98998L16.5 4.49998C16.8978 4.10216 17.4374 3.87866 18 3.87866C18.5626 3.87866 19.1022 4.10216 19.5 4.49998C19.8978 4.89781 20.1213 5.43737 20.1213 5.99998C20.1213 6.56259 19.8978 7.10216 19.5 7.49998Z" fill="#737373"/>
<path d="M18.011 8.98999L6.49998 20.5C6.303 20.697 6.06915 20.8532 5.81178 20.9598C5.55441 21.0664 5.27856 21.1213 4.99998 21.1213C4.72141 21.1213 4.44556 21.0664 4.18819 20.9598C3.93082 20.8532 3.69697 20.697 3.49998 20.5C3.10216 20.1022 2.87866 19.5626 2.87866 19C2.87866 18.4374 3.10216 17.8978 3.49998 17.5L15.011 5.98999L18.011 8.98999Z" fill="#B7B7B7"/>
<path d="M9.94999 3.50007L10.36 2.11007C10.3782 2.04587 10.3794 1.97806 10.3636 1.91323C10.3479 1.8484 10.3156 1.78875 10.27 1.74007C10.2217 1.69045 10.1608 1.65492 10.0939 1.6373C10.0269 1.61968 9.95643 1.62064 9.88999 1.64007L8.49999 2.05007L7.10999 1.64007C7.04579 1.6219 6.97798 1.62064 6.91315 1.63641C6.84832 1.65218 6.78867 1.68444 6.73999 1.73007C6.69238 1.77748 6.65879 1.83712 6.64291 1.9024C6.62703 1.96768 6.62948 2.03609 6.64999 2.10007L7.04999 3.50007L6.63999 4.89007C6.62182 4.95427 6.62056 5.02207 6.63633 5.0869C6.6521 5.15173 6.68436 5.21138 6.72999 5.26007C6.7774 5.30767 6.83704 5.34126 6.90232 5.35714C6.9676 5.37302 7.036 5.37057 7.09999 5.35007L8.49999 4.95007L9.88999 5.36007C9.92561 5.37155 9.9626 5.37827 9.99999 5.38007C10.1006 5.37867 10.197 5.3394 10.27 5.27007C10.3176 5.22265 10.3512 5.16302 10.3671 5.09773C10.3829 5.03245 10.3805 4.96405 10.36 4.90007L9.94999 3.50007Z" fill="#737373"/>
<path d="M5.94999 9.50011L6.35999 8.11011C6.37815 8.04591 6.37941 7.9781 6.36364 7.91327C6.34787 7.84844 6.31561 7.78879 6.26999 7.74011C6.22257 7.69251 6.16294 7.65891 6.09765 7.64303C6.03237 7.62715 5.96397 7.6296 5.89999 7.65011L4.49999 8.05011L3.10999 7.64011C3.04579 7.62194 2.97798 7.62068 2.91315 7.63645C2.84832 7.65222 2.78867 7.68448 2.73999 7.73011C2.69238 7.77752 2.65879 7.83716 2.64291 7.90244C2.62703 7.96773 2.62948 8.03613 2.64999 8.10011L3.04999 9.50011L2.63999 10.8901C2.62182 10.9543 2.62056 11.0221 2.63633 11.0869C2.6521 11.1518 2.68436 11.2114 2.72999 11.2601C2.7774 11.3077 2.83704 11.3413 2.90232 11.3572C2.9676 11.3731 3.036 11.3706 3.09999 11.3501L4.48999 10.9401L5.87999 11.3501C5.91596 11.3589 5.95303 11.3622 5.98999 11.3601C6.09062 11.3587 6.18703 11.3194 6.25999 11.2501C6.30759 11.2027 6.34118 11.1431 6.35706 11.0778C6.37294 11.0125 6.37049 10.9441 6.34999 10.8801L5.94999 9.50011Z" fill="#737373"/>
<path d="M20.95 14.5L21.36 13.11C21.3782 13.0458 21.3794 12.978 21.3636 12.9131C21.3479 12.8483 21.3156 12.7887 21.27 12.74C21.2226 12.6924 21.1629 12.6588 21.0977 12.6429C21.0324 12.627 20.964 12.6295 20.9 12.65L19.51 13.06L18.12 12.65C18.0558 12.6318 17.988 12.6306 17.9232 12.6463C17.8583 12.6621 17.7987 12.6944 17.75 12.74C17.7024 12.7874 17.6688 12.847 17.6529 12.9123C17.637 12.9776 17.6395 13.046 17.66 13.11L18.07 14.5L17.66 15.89C17.6418 15.9542 17.6406 16.022 17.6563 16.0868C17.6721 16.1516 17.7044 16.2113 17.75 16.26C17.7974 16.3076 17.857 16.3412 17.9223 16.3571C17.9876 16.3729 18.056 16.3705 18.12 16.35L19.51 15.94L20.9 16.35C20.936 16.3587 20.973 16.3621 21.01 16.36C21.1106 16.3586 21.207 16.3193 21.28 16.25C21.3276 16.2026 21.3612 16.1429 21.3771 16.0776C21.3929 16.0124 21.3905 15.944 21.37 15.88L20.95 14.5Z" fill="#737373"/>
</svg>
