<svg width="25" height="24" viewBox="0 0 25 24" fill="none" xmlns="http://www.w3.org/2000/svg">
<path d="M20.0921 7.49998L18.6021 8.98998L15.6021 5.98998L17.0921 4.49998C17.4899 4.10216 18.0294 3.87866 18.5921 3.87866C19.1547 3.87866 19.6942 4.10216 20.0921 4.49998C20.4899 4.89781 20.7134 5.43737 20.7134 5.99998C20.7134 6.56259 20.4899 7.10216 20.0921 7.49998Z" fill="#737373"/>
<path d="M18.603 8.98999L7.09202 20.5C6.89504 20.697 6.66119 20.8532 6.40382 20.9598C6.14645 21.0664 5.8706 21.1213 5.59202 21.1213C5.31345 21.1213 5.0376 21.0664 4.78023 20.9598C4.52286 20.8532 4.28901 20.697 4.09202 20.5C3.6942 20.1022 3.4707 19.5626 3.4707 19C3.4707 18.4374 3.6942 17.8978 4.09202 17.5L15.603 5.98999L18.603 8.98999Z" fill="#FCFCFC"/>
<path d="M10.542 3.50007L10.952 2.11007C10.9702 2.04587 10.9715 1.97806 10.9557 1.91323C10.9399 1.8484 10.9077 1.78875 10.862 1.74007C10.8137 1.69045 10.7529 1.65492 10.6859 1.6373C10.619 1.61968 10.5485 1.62064 10.482 1.64007L9.09203 2.05007L7.70203 1.64007C7.63783 1.6219 7.57002 1.62064 7.50519 1.63641C7.44036 1.65218 7.38071 1.68444 7.33203 1.73007C7.28443 1.77748 7.25083 1.83712 7.23495 1.9024C7.21907 1.96768 7.22152 2.03609 7.24203 2.10007L7.64203 3.50007L7.23203 4.89007C7.21386 4.95427 7.2126 5.02207 7.22837 5.0869C7.24414 5.15173 7.2764 5.21138 7.32203 5.26007C7.36944 5.30767 7.42908 5.34126 7.49436 5.35714C7.55964 5.37302 7.62805 5.37057 7.69203 5.35007L9.09203 4.95007L10.482 5.36007C10.5177 5.37155 10.5546 5.37827 10.592 5.38007C10.6927 5.37867 10.7891 5.3394 10.862 5.27007C10.9096 5.22265 10.9432 5.16302 10.9591 5.09773C10.975 5.03245 10.9725 4.96405 10.952 4.90007L10.542 3.50007Z" fill="#737373"/>
<path d="M6.54203 9.50011L6.95203 8.11011C6.97019 8.04591 6.97145 7.9781 6.95568 7.91327C6.93991 7.84844 6.90765 7.78879 6.86203 7.74011C6.81461 7.69251 6.75498 7.65891 6.68969 7.64303C6.62441 7.62715 6.55601 7.6296 6.49203 7.65011L5.09203 8.05011L3.70203 7.64011C3.63783 7.62194 3.57002 7.62068 3.50519 7.63645C3.44036 7.65222 3.38071 7.68448 3.33203 7.73011C3.28443 7.77752 3.25083 7.83716 3.23495 7.90244C3.21907 7.96773 3.22152 8.03613 3.24203 8.10011L3.64203 9.50011L3.23203 10.8901C3.21386 10.9543 3.2126 11.0221 3.22837 11.0869C3.24414 11.1518 3.2764 11.2114 3.32203 11.2601C3.36944 11.3077 3.42908 11.3413 3.49436 11.3572C3.55964 11.3731 3.62805 11.3706 3.69203 11.3501L5.08203 10.9401L6.47203 11.3501C6.508 11.3589 6.54507 11.3622 6.58203 11.3601C6.68266 11.3587 6.77907 11.3194 6.85203 11.2501C6.89963 11.2027 6.93322 11.1431 6.9491 11.0778C6.96498 11.0125 6.96253 10.9441 6.94203 10.8801L6.54203 9.50011Z" fill="#737373"/>
<path d="M21.542 14.5L21.952 13.11C21.9702 13.0458 21.9715 12.978 21.9557 12.9131C21.9399 12.8483 21.9077 12.7887 21.862 12.74C21.8146 12.6924 21.755 12.6588 21.6897 12.6429C21.6244 12.627 21.556 12.6295 21.492 12.65L20.102 13.06L18.712 12.65C18.6478 12.6318 18.58 12.6306 18.5152 12.6463C18.4504 12.6621 18.3907 12.6944 18.342 12.74C18.2944 12.7874 18.2608 12.847 18.245 12.9123C18.2291 12.9776 18.2315 13.046 18.252 13.11L18.662 14.5L18.252 15.89C18.2339 15.9542 18.2326 16.022 18.2484 16.0868C18.2641 16.1516 18.2964 16.2113 18.342 16.26C18.3894 16.3076 18.4491 16.3412 18.5144 16.3571C18.5797 16.3729 18.6481 16.3705 18.712 16.35L20.102 15.94L21.492 16.35C21.528 16.3587 21.5651 16.3621 21.602 16.36C21.7027 16.3586 21.7991 16.3193 21.872 16.25C21.9196 16.2026 21.9532 16.1429 21.9691 16.0776C21.985 16.0124 21.9825 15.944 21.962 15.88L21.542 14.5Z" fill="#737373"/>
</svg>
