<svg width="25" height="25" viewBox="0 0 25 25" fill="none" xmlns="http://www.w3.org/2000/svg">
<path d="M19.5326 7.99998L18.0426 9.48998L15.0426 6.48998L16.5326 4.99998C16.9304 4.60216 17.47 4.37866 18.0326 4.37866C18.5952 4.37866 19.1348 4.60216 19.5326 4.99998C19.9304 5.39781 20.1539 5.93737 20.1539 6.49998C20.1539 7.06259 19.9304 7.60216 19.5326 7.99998Z" fill="#CBCBCB"/>
<path d="M18.0436 9.48999L6.53258 21C6.33559 21.197 6.10174 21.3532 5.84437 21.4598C5.587 21.5664 5.31115 21.6213 5.03258 21.6213C4.754 21.6213 4.47815 21.5664 4.22078 21.4598C3.96341 21.3532 3.72956 21.197 3.53258 21C3.13475 20.6022 2.91125 20.0626 2.91125 19.5C2.91125 18.9374 3.13475 18.3978 3.53258 18L15.0436 6.48999L18.0436 9.48999Z" fill="#FDFFFD"/>
<path d="M9.98258 4.00007L10.3926 2.61007C10.4107 2.54587 10.412 2.47806 10.3962 2.41323C10.3805 2.3484 10.3482 2.28875 10.3026 2.24007C10.2543 2.19045 10.1934 2.15492 10.1265 2.1373C10.0595 2.11968 9.98903 2.12064 9.92258 2.14007L8.53258 2.55007L7.14258 2.14007C7.07838 2.1219 7.01057 2.12064 6.94574 2.13641C6.88091 2.15218 6.82126 2.18444 6.77258 2.23007C6.72498 2.27748 6.69139 2.33712 6.67551 2.4024C6.65963 2.46768 6.66207 2.53609 6.68258 2.60007L7.08258 4.00007L6.67258 5.39007C6.65441 5.45427 6.65315 5.52207 6.66892 5.5869C6.68469 5.65173 6.71696 5.71138 6.76258 5.76007C6.80999 5.80767 6.86963 5.84126 6.93491 5.85714C7.0002 5.87302 7.0686 5.87057 7.13258 5.85007L8.53258 5.45007L9.92258 5.86007C9.95821 5.87155 9.99519 5.87827 10.0326 5.88007C10.1332 5.87867 10.2296 5.8394 10.3026 5.77007C10.3502 5.72265 10.3838 5.66302 10.3997 5.59773C10.4155 5.53245 10.4131 5.46405 10.3926 5.40007L9.98258 4.00007Z" fill="#CBCBCB"/>
<path d="M5.98258 10.0001L6.39258 8.61011C6.41074 8.54591 6.412 8.4781 6.39623 8.41327C6.38047 8.34844 6.3482 8.28879 6.30258 8.24011C6.25516 8.19251 6.19553 8.15891 6.13025 8.14303C6.06496 8.12715 5.99656 8.1296 5.93258 8.15011L4.53258 8.55011L3.14258 8.14011C3.07838 8.12194 3.01057 8.12068 2.94574 8.13645C2.88091 8.15222 2.82126 8.18448 2.77258 8.23011C2.72498 8.27752 2.69139 8.33716 2.67551 8.40244C2.65963 8.46773 2.66207 8.53613 2.68258 8.60011L3.08258 10.0001L2.67258 11.3901C2.65441 11.4543 2.65315 11.5221 2.66892 11.5869C2.68469 11.6518 2.71696 11.7114 2.76258 11.7601C2.80999 11.8077 2.86963 11.8413 2.93491 11.8572C3.0002 11.8731 3.0686 11.8706 3.13258 11.8501L4.52258 11.4401L5.91258 11.8501C5.94855 11.8589 5.98562 11.8622 6.02258 11.8601C6.12321 11.8587 6.21962 11.8194 6.29258 11.7501C6.34018 11.7027 6.37377 11.6431 6.38965 11.5778C6.40553 11.5125 6.40308 11.4441 6.38258 11.3801L5.98258 10.0001Z" fill="#CBCBCB"/>
<path d="M20.9826 15L21.3926 13.61C21.4108 13.5458 21.412 13.478 21.3962 13.4131C21.3805 13.3483 21.3482 13.2887 21.3026 13.24C21.2552 13.1924 21.1955 13.1588 21.1303 13.1429C21.065 13.127 20.9966 13.1295 20.9326 13.15L19.5426 13.56L18.1526 13.15C18.0884 13.1318 18.0206 13.1306 17.9558 13.1463C17.8909 13.1621 17.8313 13.1944 17.7826 13.24C17.735 13.2874 17.7014 13.347 17.6855 13.4123C17.6696 13.4776 17.6721 13.546 17.6926 13.61L18.1026 15L17.6926 16.39C17.6744 16.4542 17.6732 16.522 17.6889 16.5868C17.7047 16.6516 17.737 16.7113 17.7826 16.76C17.83 16.8076 17.8896 16.8412 17.9549 16.8571C18.0202 16.8729 18.0886 16.8705 18.1526 16.85L19.5426 16.44L20.9326 16.85C20.9686 16.8587 21.0056 16.8621 21.0426 16.86C21.1432 16.8586 21.2396 16.8193 21.3126 16.75C21.3602 16.7026 21.3938 16.6429 21.4097 16.5776C21.4255 16.5124 21.4231 16.444 21.4026 16.38L20.9826 15Z" fill="#CBCBCB"/>
</svg>
