<svg width="25" height="25" viewBox="0 0 25 25" fill="none" xmlns="http://www.w3.org/2000/svg">
<path d="M19.0014 4.5V8C19.0019 8.22996 18.957 8.45776 18.8692 8.67032C18.7815 8.88288 18.6526 9.07601 18.49 9.23862C18.3274 9.40122 18.1342 9.53011 17.9217 9.61787C17.7091 9.70562 17.4813 9.75053 17.2514 9.75H8.99236C8.59716 9.74643 8.21412 9.6129 7.90236 9.37L5.71236 7.62C5.50845 7.45462 5.34404 7.2458 5.23111 7.00879C5.11817 6.77178 5.05957 6.51255 5.05957 6.25C5.05957 5.98746 5.11817 5.72823 5.23111 5.49122C5.34404 5.2542 5.50845 5.04539 5.71236 4.88L7.90236 3.13C8.21412 2.88711 8.59716 2.75357 8.99236 2.75H17.2524C17.4822 2.74961 17.7099 2.79461 17.9224 2.88243C18.1348 2.97025 18.3278 3.09915 18.4903 3.26174C18.6528 3.42434 18.7816 3.61742 18.8693 3.82991C18.957 4.04241 19.0019 4.27013 19.0014 4.5Z" fill="#FDFFFD"/>
<path d="M18.3725 17.62L16.1925 19.37C15.8777 19.6143 15.491 19.7479 15.0925 19.75H6.83252C6.60256 19.7505 6.37476 19.7056 6.1622 19.6179C5.94965 19.5301 5.75652 19.4012 5.59391 19.2386C5.4313 19.076 5.30242 18.8829 5.21466 18.6703C5.1269 18.4578 5.082 18.23 5.08252 18V14.5C5.082 14.27 5.1269 14.0422 5.21466 13.8297C5.30242 13.6171 5.4313 13.424 5.59391 13.2614C5.75652 13.0988 5.94965 12.9699 6.1622 12.8821C6.37476 12.7944 6.60256 12.7495 6.83252 12.75H15.0925C15.491 12.7521 15.8777 12.8857 16.1925 13.13L18.3725 14.88C18.5784 15.0441 18.7446 15.2525 18.8589 15.4897C18.9731 15.7269 19.0325 15.9867 19.0325 16.25C19.0325 16.5133 18.9731 16.7732 18.8589 17.0103C18.7446 17.2475 18.5784 17.4559 18.3725 17.62Z" fill="#FDFFFD"/>
<path d="M11.2826 9.75H12.7826V12.75H11.2826V9.75Z" fill="#CBCBCB"/>
<path d="M15.7826 22.75C15.7813 22.9485 15.7018 23.1385 15.5615 23.2789C15.4211 23.4193 15.2311 23.4987 15.0326 23.5H9.03259C8.83368 23.5 8.64291 23.421 8.50226 23.2803C8.36161 23.1397 8.28259 22.9489 8.28259 22.75C8.28259 22.5511 8.36161 22.3603 8.50226 22.2197C8.64291 22.079 8.83368 22 9.03259 22H11.2826V19.75H12.7826V22H15.0326C15.2311 22.0013 15.4211 22.0807 15.5615 22.2211C15.7018 22.3615 15.7813 22.5515 15.7826 22.75Z" fill="#CBCBCB"/>
</svg>
