<svg width="25" height="24" viewBox="0 0 25 24" fill="none" xmlns="http://www.w3.org/2000/svg">
<path d="M19.5608 3.75V7.25C19.5613 7.47996 19.5164 7.70776 19.4287 7.92032C19.3409 8.13288 19.212 8.32601 19.0494 8.48862C18.8868 8.65122 18.6937 8.78011 18.4811 8.86787C18.2686 8.95562 18.0408 9.00053 17.8108 9H9.5518C9.15661 8.99643 8.77357 8.8629 8.4618 8.62L6.2718 6.87C6.0679 6.70462 5.90349 6.4958 5.79056 6.25879C5.67762 6.02178 5.61902 5.76255 5.61902 5.5C5.61902 5.23746 5.67762 4.97823 5.79056 4.74122C5.90349 4.5042 6.0679 4.29539 6.2718 4.13L8.4618 2.38C8.77357 2.13711 9.15661 2.00357 9.5518 2H17.8118C18.0417 1.99961 18.2694 2.04461 18.4818 2.13243C18.6943 2.22025 18.8873 2.34915 19.0498 2.51174C19.2123 2.67434 19.3411 2.86742 19.4288 3.07991C19.5165 3.29241 19.5613 3.52013 19.5608 3.75Z" fill="#737373"/>
<path d="M18.9321 16.87L16.7521 18.62C16.4373 18.8643 16.0506 18.9979 15.6521 19H7.39209C7.16213 19.0005 6.93433 18.9556 6.72177 18.8679C6.50922 18.7801 6.31609 18.6512 6.15348 18.4886C5.99087 18.326 5.86199 18.1329 5.77423 17.9203C5.68647 17.7078 5.64157 17.48 5.64209 17.25V13.75C5.64157 13.52 5.68647 13.2922 5.77423 13.0797C5.86199 12.8671 5.99087 12.674 6.15348 12.5114C6.31609 12.3488 6.50922 12.2199 6.72177 12.1321C6.93433 12.0444 7.16213 11.9995 7.39209 12H15.6521C16.0506 12.0021 16.4373 12.1357 16.7521 12.38L18.9321 14.13C19.138 14.2941 19.3042 14.5025 19.4184 14.7397C19.5327 14.9769 19.592 15.2367 19.592 15.5C19.592 15.7633 19.5327 16.0232 19.4184 16.2603C19.3042 16.4975 19.138 16.7059 18.9321 16.87Z" fill="#737373"/>
<path d="M11.842 9H13.342V12H11.842V9Z" fill="#FCFCFC"/>
<path d="M16.342 22C16.3407 22.1985 16.2613 22.3885 16.1209 22.5289C15.9806 22.6693 15.7905 22.7487 15.592 22.75H9.59204C9.39313 22.75 9.20236 22.671 9.06171 22.5303C8.92106 22.3897 8.84204 22.1989 8.84204 22C8.84204 21.8011 8.92106 21.6103 9.06171 21.4697C9.20236 21.329 9.39313 21.25 9.59204 21.25H11.842V19H13.342V21.25H15.592C15.7905 21.2513 15.9806 21.3307 16.1209 21.4711C16.2613 21.6115 16.3407 21.8015 16.342 22Z" fill="#FCFCFC"/>
</svg>
