<svg width="24" height="24" viewBox="0 0 24 24" fill="none" xmlns="http://www.w3.org/2000/svg">
<path d="M18.9688 3.75V7.25C18.9693 7.47996 18.9244 7.70776 18.8366 7.92032C18.7489 8.13288 18.62 8.32601 18.4574 8.48862C18.2948 8.65122 18.1016 8.78011 17.8891 8.86787C17.6765 8.95562 17.4487 9.00053 17.2188 9H8.95976C8.56457 8.99643 8.18153 8.8629 7.86976 8.62L5.67976 6.87C5.47586 6.70462 5.31145 6.4958 5.19851 6.25879C5.08558 6.02178 5.02698 5.76255 5.02698 5.5C5.02698 5.23746 5.08558 4.97823 5.19851 4.74122C5.31145 4.5042 5.47586 4.29539 5.67976 4.13L7.86976 2.38C8.18153 2.13711 8.56457 2.00357 8.95976 2H17.2198C17.4496 1.99961 17.6773 2.04461 17.8898 2.13243C18.1022 2.22025 18.2952 2.34915 18.4577 2.51174C18.6202 2.67434 18.749 2.86742 18.8367 3.07991C18.9244 3.29241 18.9693 3.52013 18.9688 3.75Z" fill="#737373"/>
<path d="M18.3401 16.87L16.1601 18.62C15.8452 18.8643 15.4586 18.9979 15.0601 19H6.80005C6.57009 19.0005 6.34229 18.9556 6.12973 18.8679C5.91718 18.7801 5.72405 18.6512 5.56144 18.4886C5.39883 18.326 5.26995 18.1329 5.18219 17.9203C5.09443 17.7078 5.04953 17.48 5.05005 17.25V13.75C5.04953 13.52 5.09443 13.2922 5.18219 13.0797C5.26995 12.8671 5.39883 12.674 5.56144 12.5114C5.72405 12.3488 5.91718 12.2199 6.12973 12.1321C6.34229 12.0444 6.57009 11.9995 6.80005 12H15.0601C15.4586 12.0021 15.8452 12.1357 16.1601 12.38L18.3401 14.13C18.5459 14.2941 18.7122 14.5025 18.8264 14.7397C18.9407 14.9769 19 15.2367 19 15.5C19 15.7633 18.9407 16.0232 18.8264 16.2603C18.7122 16.4975 18.5459 16.7059 18.3401 16.87Z" fill="#737373"/>
<path d="M11.25 9H12.75V12H11.25V9Z" fill="#B7B7B7"/>
<path d="M15.75 22C15.7487 22.1985 15.6693 22.3885 15.5289 22.5289C15.3885 22.6693 15.1985 22.7487 15 22.75H9C8.80109 22.75 8.61032 22.671 8.46967 22.5303C8.32902 22.3897 8.25 22.1989 8.25 22C8.25 21.8011 8.32902 21.6103 8.46967 21.4697C8.61032 21.329 8.80109 21.25 9 21.25H11.25V19H12.75V21.25H15C15.1985 21.2513 15.3885 21.3307 15.5289 21.4711C15.6693 21.6115 15.7487 21.8015 15.75 22Z" fill="#B7B7B7"/>
</svg>
