<svg width="24" height="24" viewBox="0 0 24 24" fill="none" xmlns="http://www.w3.org/2000/svg">
<g clip-path="url(#clip0_45_37)">
<path d="M22 13.897V16.187C22 19.827 19.83 21.997 16.19 21.997H7.81C5.26 21.997 3.42 20.93 2.56 19.03L2.67 18.95L7.59 15.65C7.98696 15.3874 8.45779 15.2592 8.9331 15.2844C9.4084 15.3096 9.86304 15.4868 10.23 15.79L10.57 16.07C10.968 16.3951 11.4661 16.5726 11.98 16.5726C12.4939 16.5726 12.992 16.3951 13.39 16.07L17.55 12.497C17.948 12.1719 18.4461 11.9944 18.96 11.9944C19.4739 11.9944 19.972 12.1719 20.37 12.497L22 13.897Z" fill="#737373"/>
<path d="M20.97 8H18.03C17.7571 8.02525 17.482 7.99008 17.2243 7.897C16.9665 7.80391 16.7324 7.65519 16.5386 7.4614C16.3448 7.26761 16.1961 7.03352 16.103 6.77576C16.0099 6.51799 15.9748 6.24289 16 5.97V3.03C15.994 2.6744 16.0692 2.32211 16.22 2L7.81002 2C4.17002 2 2.00002 4.17 2.00002 7.81V16.19C1.97826 17.1661 2.16935 18.1352 2.56002 19.03L2.67002 18.95L7.59002 15.65C7.98698 15.3874 8.45781 15.2592 8.93312 15.2844C9.40843 15.3096 9.86306 15.4869 10.23 15.79L10.57 16.07C10.968 16.3951 11.4661 16.5726 11.98 16.5726C12.4939 16.5726 12.992 16.3951 13.39 16.07L17.55 12.5C17.948 12.1749 18.4461 11.9974 18.96 11.9974C19.4739 11.9974 19.972 12.1749 20.37 12.5L22 13.9V7.78C21.6779 7.93079 21.3256 8.00603 20.97 8Z" fill="#FCFCFC"/>
<path d="M11.38 8C11.38 8.47071 11.2404 8.93086 10.9789 9.32225C10.7174 9.71364 10.3457 10.0187 9.91078 10.1988C9.47589 10.379 8.99736 10.4261 8.53568 10.3343C8.07401 10.2424 7.64993 10.0158 7.31708 9.68291C6.98423 9.35006 6.75756 8.92598 6.66573 8.46431C6.57389 8.00264 6.62103 7.5241 6.80116 7.08921C6.9813 6.65432 7.28635 6.28262 7.67774 6.0211C8.06913 5.75958 8.52928 5.62 9 5.62C9.63121 5.62 10.2366 5.87074 10.6829 6.31708C11.1292 6.76342 11.38 7.36878 11.38 8Z" fill="#737373"/>
<path d="M20.97 1H18.03C17.7571 0.974752 17.482 1.00992 17.2242 1.10301C16.9665 1.19609 16.7324 1.34482 16.5386 1.5386C16.3448 1.73239 16.1961 1.96649 16.103 2.22425C16.0099 2.48201 15.9748 2.75711 16 3.03V5.97C15.9748 6.24289 16.0099 6.518 16.103 6.77576C16.1961 7.03352 16.3448 7.26762 16.5386 7.4614C16.7324 7.65519 16.9665 7.80391 17.2242 7.897C17.482 7.99009 17.7571 8.02526 18.03 8H20.97C21.2429 8.02526 21.518 7.99009 21.7758 7.897C22.0335 7.80391 22.2676 7.65519 22.4614 7.4614C22.6552 7.26762 22.8039 7.03352 22.897 6.77576C22.9901 6.518 23.0253 6.24289 23 5.97V3.03C23.0253 2.75711 22.9901 2.48201 22.897 2.22425C22.8039 1.96649 22.6552 1.73239 22.4614 1.5386C22.2676 1.34482 22.0335 1.19609 21.7758 1.10301C21.518 1.00992 21.2429 0.974752 20.97 1ZM21.91 4.93C21.7991 5.03689 21.6537 5.10072 21.5 5.11H20.09L20.1 6.5C20.0943 6.66244 20.0263 6.81643 19.91 6.93C19.8007 7.03788 19.6536 7.09886 19.5 7.1C19.3409 7.1 19.1883 7.03679 19.0757 6.92427C18.9632 6.81175 18.9 6.65913 18.9 6.5V5.1L17.5 5.11C17.34 5.10738 17.1874 5.04196 17.0751 4.92784C16.9629 4.81373 16.9 4.66007 16.9 4.5C16.9 4.34087 16.9632 4.18826 17.0757 4.07574C17.1883 3.96322 17.3409 3.9 17.5 3.9L18.9 3.91V2.51C18.9 2.35087 18.9632 2.19826 19.0757 2.08574C19.1883 1.97322 19.3409 1.91 19.5 1.91C19.6591 1.91 19.8117 1.97322 19.9243 2.08574C20.0368 2.19826 20.1 2.35087 20.1 2.51L20.09 3.9H21.5C21.6591 3.9 21.8117 3.96322 21.9243 4.07574C22.0368 4.18826 22.1 4.34087 22.1 4.5C22.0897 4.66135 22.0224 4.81377 21.91 4.93Z" fill="#737373"/>
</g>
<defs>
<clipPath id="clip0_45_37">
<rect width="24" height="24" fill="white"/>
</clipPath>
</defs>
</svg>
