<svg width="24" height="24" viewBox="0 0 24 24" fill="none" xmlns="http://www.w3.org/2000/svg">
<path d="M20.8299 8.01008L14.2799 2.77008C13.6264 2.27225 12.8281 2.00181 12.0066 2.00001C11.1851 1.9982 10.3856 2.26513 9.72991 2.76008L3.17991 8.01008C2.69793 8.43125 2.3265 8.96413 2.09813 9.56208C1.86976 10.16 1.7914 10.8048 1.86991 11.4401L3.12991 18.9801C3.28913 19.8162 3.73054 20.5723 4.38035 21.122C5.03016 21.6717 5.84898 21.9817 6.69991 22.0001H17.2999C18.151 21.9731 18.9679 21.659 19.6179 21.1089C20.2679 20.5588 20.7127 19.805 20.8799 18.9701L22.1399 11.4301C22.2082 10.797 22.125 10.1568 21.8972 9.56215C21.6695 8.96753 21.3036 8.43556 20.8299 8.01008Z" fill="#B7B7B7"/>
<path d="M12 18.75C11.8015 18.7487 11.6115 18.6693 11.4711 18.5289C11.3307 18.3885 11.2513 18.1985 11.25 18V15C11.2513 14.8015 11.3307 14.6115 11.4711 14.4711C11.6115 14.3307 11.8015 14.2513 12 14.25C12.1985 14.2513 12.3885 14.3307 12.5289 14.4711C12.6693 14.6115 12.7487 14.8015 12.75 15V18C12.7487 18.1985 12.6693 18.3885 12.5289 18.5289C12.3885 18.6693 12.1985 18.7487 12 18.75Z" fill="#737373"/>
</svg>
