<svg width="25" height="25" viewBox="0 0 25 25" fill="none" xmlns="http://www.w3.org/2000/svg">
<path d="M21.422 8.51008L14.872 3.27008C14.2185 2.77225 13.4201 2.50181 12.5986 2.50001C11.7771 2.4982 10.9776 2.76513 10.322 3.26008L3.77195 8.51008C3.28997 8.93125 2.91854 9.46413 2.69017 10.0621C2.4618 10.66 2.38344 11.3048 2.46195 11.9401L3.72195 19.4801C3.88117 20.3162 4.32258 21.0723 4.97239 21.622C5.6222 22.1717 6.44102 22.4817 7.29195 22.5001H17.892C18.743 22.4731 19.56 22.159 20.21 21.6089C20.8599 21.0588 21.3047 20.305 21.472 19.4701L22.732 11.9301C22.8002 11.297 22.717 10.6568 22.4893 10.0621C22.2615 9.46753 21.8957 8.93556 21.422 8.51008Z" fill="#737373"/>
<path d="M12.592 19.25C12.3935 19.2487 12.2035 19.1693 12.0632 19.0289C11.9228 18.8885 11.8434 18.6985 11.842 18.5V15.5C11.8434 15.3015 11.9228 15.1115 12.0632 14.9711C12.2035 14.8307 12.3935 14.7513 12.592 14.75C12.7905 14.7513 12.9806 14.8307 13.1209 14.9711C13.2613 15.1115 13.3407 15.3015 13.342 15.5V18.5C13.3407 18.6985 13.2613 18.8885 13.1209 19.0289C12.9806 19.1693 12.7905 19.2487 12.592 19.25Z" fill="#FCFCFC"/>
</svg>
