<svg width="25" height="25" viewBox="0 0 25 25" fill="none" xmlns="http://www.w3.org/2000/svg">
<path d="M20.8626 8.51008L14.3126 3.27008C13.6592 2.77225 12.8608 2.50181 12.0393 2.50001C11.2178 2.4982 10.4183 2.76513 9.76263 3.26008L3.21263 8.51008C2.73064 8.93125 2.35922 9.46413 2.13084 10.0621C1.90247 10.66 1.82411 11.3048 1.90263 11.9401L3.16263 19.4801C3.32184 20.3162 3.76326 21.0723 4.41307 21.622C5.06288 22.1717 5.88169 22.4817 6.73263 22.5001H17.3326C18.1837 22.4731 19.0007 22.159 19.6506 21.6089C20.3006 21.0588 20.7454 20.305 20.9126 19.4701L22.1726 11.9301C22.2409 11.297 22.1577 10.6568 21.9299 10.0621C21.7022 9.46753 21.3364 8.93556 20.8626 8.51008Z" fill="#FDFFFD"/>
<path d="M12.0326 19.25C11.8341 19.2487 11.6441 19.1693 11.5037 19.0289C11.3633 18.8885 11.2839 18.6985 11.2826 18.5V15.5C11.2839 15.3015 11.3633 15.1115 11.5037 14.9711C11.6441 14.8307 11.8341 14.7513 12.0326 14.75C12.2311 14.7513 12.4211 14.8307 12.5615 14.9711C12.7018 15.1115 12.7813 15.3015 12.7826 15.5V18.5C12.7813 18.6985 12.7018 18.8885 12.5615 19.0289C12.4211 19.1693 12.2311 19.2487 12.0326 19.25Z" fill="#CBCBCB"/>
</svg>
