<svg width="25" height="24" viewBox="0 0 25 24" fill="none" xmlns="http://www.w3.org/2000/svg">
<path d="M11.0326 19.9V4.1C11.0326 2.6 10.3926 2 8.80259 2H4.76259C3.17259 2 2.53259 2.6 2.53259 4.1V19.9C2.53259 21.4 3.17259 22 4.76259 22H8.80259C10.3926 22 11.0326 21.4 11.0326 19.9Z" fill="#FDFFFD"/>
<path d="M21.5326 10.9V4.1C21.5326 2.6 20.8926 2 19.3026 2H15.2626C13.6726 2 13.0326 2.6 13.0326 4.1V10.9C13.0326 12.4 13.6726 13 15.2626 13H19.3026C20.8926 13 21.5326 12.4 21.5326 10.9Z" fill="#CBCBCB"/>
<path d="M21.5326 19.9V17.1C21.5326 15.6 20.8926 15 19.3026 15H15.2626C13.6726 15 13.0326 15.6 13.0326 17.1V19.9C13.0326 21.4 13.6726 22 15.2626 22H19.3026C20.8926 22 21.5326 21.4 21.5326 19.9Z" fill="#CBCBCB"/>
</svg>
