<svg width="25" height="24" viewBox="0 0 25 24" fill="none" xmlns="http://www.w3.org/2000/svg">
<path d="M11.592 19.9V4.1C11.592 2.6 10.952 2 9.36204 2H5.32204C3.73204 2 3.09204 2.6 3.09204 4.1V19.9C3.09204 21.4 3.73204 22 5.32204 22H9.36204C10.952 22 11.592 21.4 11.592 19.9Z" fill="#737373"/>
<path d="M22.092 10.9V4.1C22.092 2.6 21.452 2 19.862 2H15.822C14.232 2 13.592 2.6 13.592 4.1V10.9C13.592 12.4 14.232 13 15.822 13H19.862C21.452 13 22.092 12.4 22.092 10.9Z" fill="#FCFCFC"/>
<path d="M22.092 19.9V17.1C22.092 15.6 21.452 15 19.862 15H15.822C14.232 15 13.592 15.6 13.592 17.1V19.9C13.592 21.4 14.232 22 15.822 22H19.862C21.452 22 22.092 21.4 22.092 19.9Z" fill="#FCFCFC"/>
</svg>
