<svg xmlns="http://www.w3.org/2000/svg" viewBox="0 0 24 24" xml:space="preserve" enable-background="new 0 0 32 32"><g id="Layer_8"><circle cx="13.846" cy="12.582" r="9.582" fill="#e8e8e8" class="fill-cdf6f9"></circle><path d="M12.945 17.12a.9.9 0 0 0 1.8 0v-.468c1.882-.536 2.158-1.786 2.174-2.389.032-1.255-.936-2.116-2.877-2.558-1.347-.306-1.472-.635-1.463-.762.049-.726 1.509-.858 2.186-.839a.9.9 0 0 0 1.8 0c0-.497-.205-.98-.563-1.325a1.76 1.76 0 0 0-1.257-.509v-.227a.9.9 0 0 0-1.8 0v.471c-1.734.493-2.114 1.594-2.162 2.306-.089 1.3.874 2.188 2.86 2.639 1.446.329 1.478.713 1.477.756-.02.77-1.792.873-2.186.873h-.001c-.012-.011-.012-.021-.012-.027a.9.9 0 1 0-1.8.001c0 .502.199.972.561 1.321.338.327.795.51 1.264.516v.221z" fill="#212729" class="fill-1a83a8"></path><path d="M10.353 20.526a8.674 8.674 0 0 1-5.191-7.946c0-4.786 3.898-8.68 8.69-8.68a8.65 8.65 0 0 1 8.635 7.791.9.9 0 0 0 1.791-.181A10.444 10.444 0 0 0 13.852 2.1c-5.784 0-10.49 4.701-10.49 10.48a10.47 10.47 0 0 0 6.269 9.594.9.9 0 0 0 .722-1.648z" fill="#212729" class="fill-1a83a8"></path><path d="M24.846 29h-5.248c-.454 0-.887-.195-1.187-.536l-4.175-4.74a1.599 1.599 0 0 1 2.04-2.414l2.301 1.425v-6.467a1.643 1.643 0 1 1 3.286 0v4.097l4.146.508a1.965 1.965 0 0 1 1.65 2.494l-1.292 4.489A1.584 1.584 0 0 1 24.846 29z" fill="#ffffff" class="fill-ffffff"></path><path d="M28.162 21.243a2.864 2.864 0 0 0-2.042-1.264l-3.356-.411v-3.301c0-1.402-1.141-2.543-2.542-2.543s-2.542 1.141-2.542 2.543v4.851l-.928-.574a2.49 2.49 0 0 0-3.291.597 2.502 2.502 0 0 0 .102 3.177l4.175 4.741c.471.534 1.15.841 1.862.841h5.248c1.1 0 2.08-.738 2.385-1.795l1.292-4.489c.232-.808.1-1.673-.363-2.373zm-1.367 1.874-1.292 4.489a.685.685 0 0 1-.655.494H19.6a.683.683 0 0 1-.512-.231l-4.175-4.74a.697.697 0 0 1 .89-1.054l2.301 1.425a.9.9 0 0 0 1.374-.765v-6.467a.743.743 0 0 1 1.486 0v4.097a.9.9 0 0 0 .791.894l4.146.508c.314.038.584.205.759.47.175.263.223.576.135.88z" fill="#212729" class="fill-1a83a8"></path></g></svg>