<svg width="24" height="24" viewBox="0 0 24 24" fill="none" xmlns="http://www.w3.org/2000/svg">
<g id="fi_1482304" clip-path="url(#clip0_5156_35514)">
<g id="Group">
<path id="Vector" d="M19.6534 7.48926C20.4533 7.48926 21.1017 8.13762 21.1017 8.93756V14.7308H18.2051V8.93756C18.2051 8.13762 18.8534 7.48926 19.6534 7.48926Z" fill="#FF876C"/>
<path id="Vector_2" d="M21.1006 4.35156C20.3007 4.35156 19.6523 4.99992 19.6523 5.79987V11.5931H22.549V5.79987C22.549 4.99992 21.9006 4.35156 21.1006 4.35156Z" fill="#FF9E90"/>
<path id="Vector_3" d="M22.5496 2.90283C22.3319 2.90283 22.1253 2.95111 21.9399 3.03752L21.3051 15.1516L18.6875 21.3446L23.6062 14.4224C23.8369 14.0977 23.998 13.4875 23.998 13.0892V4.35114C23.998 3.55119 23.3496 2.90283 22.5496 2.90283Z" fill="#FF9E90"/>
<path id="Vector_4" d="M22.5486 4.35121V13.8135C22.5486 14.2117 22.423 14.8138 22.2695 15.1517L18.6864 21.3446V23.9999H12.7285V22.5516L14.2932 17.0688L21.1002 11.5927V4.35121C21.1002 3.76899 21.4435 3.2674 21.9388 3.0376C22.299 3.2674 22.5486 3.76947 22.5486 4.35121Z" fill="#FFB4B3"/>
<path id="Vector_5" d="M18.6282 10.5689C19.1935 10.0031 20.1108 10.0031 20.6761 10.5689C20.959 10.8513 21.1004 11.2221 21.1004 11.5928C21.1004 11.9636 20.959 12.3344 20.6761 12.6168L15.6251 17.6682V19.6552C15.6251 21.2483 14.3217 22.5518 12.7285 22.5518V17.6716C12.7285 16.8717 13.051 16.1461 13.5748 15.6218L18.6282 10.5689Z" fill="#FFCAD6"/>
<path id="Vector_6" d="M4.3487 7.48932C3.54875 7.48932 2.90039 8.13768 2.90039 8.93762V14.7308H5.797V8.93762C5.797 8.13768 5.14864 7.48932 4.3487 7.48932Z" fill="#FF876C"/>
<path id="Vector_7" d="M2.90143 4.35156C2.10148 4.35156 1.45312 4.99992 1.45312 5.79987V11.5931H4.34973V5.79987C4.34973 4.99992 3.70138 4.35156 2.90143 4.35156Z" fill="#FF9E90"/>
<path id="Vector_8" d="M11.2726 22.5517V24.0001H9.82434L6.92773 18.1938L11.2726 22.5517Z" fill="#FF9E90"/>
<path id="Vector_9" d="M10.4269 15.6217L5.37391 10.5688C5.06638 10.2608 4.65458 10.1208 4.25195 10.1478L9.82493 22.1612C10.2517 22.4093 10.7465 22.5517 11.2732 22.5517V17.6715C11.2732 16.8716 10.9507 16.146 10.4269 15.6217Z" fill="#FFB4B3"/>
<path id="Vector_10" d="M9.46616 17.3136L2.90052 11.5928V4.35132C2.90052 3.55137 2.25216 2.90302 1.45221 2.90302C0.652264 2.90302 0.00390625 3.55137 0.00390625 4.35132V13.0894C0.00390625 13.4877 0.164958 14.0979 0.395673 14.4226L5.31436 21.3448V24H9.82399V22.1611L9.46616 17.3136Z" fill="#FFB4B3"/>
<path id="Vector_11" d="M9.82401 17.6715V22.1611C8.95986 21.6586 8.37571 20.7215 8.37571 19.6551V17.6681L3.32474 12.6166C3.04184 12.3342 2.90039 11.9635 2.90039 11.5927C2.90039 11.2219 3.04184 10.8512 3.32474 10.5687C3.58206 10.3109 3.91324 10.1705 4.25069 10.1478C4.52925 10.1705 4.80298 10.3109 5.01588 10.5687L9.12496 15.6216C9.55801 16.1459 9.82401 16.8715 9.82401 17.6715Z" fill="#FFCAD6"/>
<path id="Vector_12" d="M14.891 0C14.7692 0 14.6489 0.00632426 14.5303 0.0180555L12 12.0692C12.0003 12.0691 18.5174 8.24824 18.5174 3.62583C18.5174 1.62336 16.8938 0 14.891 0Z" fill="#FF2B59"/>
<path id="Vector_13" d="M17.0708 3.62583C17.0708 1.74559 15.9574 0.199818 14.532 0.0180555C13.5002 0.120016 12.5956 0.654296 12.0017 1.43735C11.3396 0.564259 10.2912 0 9.11078 0C7.10797 0 5.48438 1.62336 5.48438 3.62583C5.48438 8.24824 12.0015 12.0691 12.0017 12.0692C12.002 12.0691 17.0708 8.24824 17.0708 3.62583Z" fill="#FF4E51"/>
</g>
</g>
<defs>
<clipPath id="clip0_5156_35514">
<rect width="24" height="24" fill="white"/>
</clipPath>
</defs>
</svg>
