<svg width="24" height="24" viewBox="0 0 24 24" fill="none" xmlns="http://www.w3.org/2000/svg">
<g id="fi_4880410" clip-path="url(#clip0_5156_35769)">
<g id="Group">
<path id="Vector" d="M18.0869 6.06294C18.7185 6.06294 19.2305 5.55095 19.2305 4.91938C19.2305 4.28781 18.7185 3.77582 18.0869 3.77582C17.4553 3.77582 16.9434 4.28781 16.9434 4.91938C16.9434 5.55095 17.4553 6.06294 18.0869 6.06294Z" fill="#F9BD5F"/>
<path id="Vector_2" d="M17.8809 4.91933C17.8809 4.45485 18.1588 4.05538 18.5565 3.87636C18.4135 3.81196 18.254 3.77582 18.0869 3.77582C17.4554 3.77582 16.9434 4.28779 16.9434 4.91938C16.9434 5.55097 17.4553 6.06294 18.0869 6.06294C18.254 6.06294 18.4131 6.02694 18.5561 5.96254C18.1585 5.78343 17.8809 5.38382 17.8809 4.91933Z" fill="#F4AC4E"/>
<path id="Vector_3" d="M19.41 10.7536L18.0863 5.68195L14.8359 10.7175L16.5382 13.9275L19.41 10.7536Z" fill="#F9BD5F"/>
<path id="Vector_4" d="M9.17322 10.7161L5.9238 5.68195L4.59766 10.747L7.4485 13.9275L9.17322 10.7161Z" fill="#F9BD5F"/>
<path id="Vector_5" d="M12.0227 4.91925L7.44852 13.4363L1.34961 6.63225L3.63673 17.8794L5.15066 18.3703H18.9684L20.4087 17.8794L22.6958 6.63225L16.5393 13.4363L12.0227 4.91925Z" fill="#FFE177"/>
<g id="Group_2">
<g id="Group_3">
<g id="Group_4">
<path id="Vector_6" d="M18.6896 12.6139L22.2881 8.63691L22.6957 6.6322L17.4258 12.4564C17.6785 12.933 18.3277 13.0138 18.6896 12.6139Z" fill="#FFD15B"/>
</g>
<g id="Group_5">
<path id="Vector_7" d="M3.1685 8.66142L1.34961 6.6322L3.63673 17.8794L5.15066 18.3703H6.55691L5.04298 17.8794L3.1685 8.66142Z" fill="#FFD15B"/>
</g>
<g id="Group_6">
<path id="Vector_8" d="M9.37842 12.4598L12.7206 6.23677L12.0219 4.91925L7.97461 12.4553L8.11416 12.6109C8.47402 13.0124 9.12328 12.9348 9.37842 12.4598Z" fill="#FFD15B"/>
</g>
</g>
</g>
<path id="Vector_9" d="M11.7159 10.8706L10.5753 13.1517C10.527 13.2484 10.527 13.3623 10.5753 13.459L11.7159 15.7401C11.8425 15.9934 12.2039 15.9934 12.3306 15.7401L13.4711 13.459C13.5195 13.3622 13.5195 13.2484 13.4711 13.1517L12.3306 10.8706C12.2039 10.6173 11.8425 10.6173 11.7159 10.8706Z" fill="#FF8086"/>
<path id="Vector_10" d="M11.5129 13.4591C11.4645 13.3623 11.4645 13.2484 11.5129 13.1517L12.492 11.1934L12.3306 10.8706C12.204 10.6173 11.8426 10.6173 11.7159 10.8706L10.5753 13.1517C10.527 13.2485 10.527 13.3623 10.5753 13.4591L11.7159 15.7402C11.8425 15.9934 12.2039 15.9934 12.3306 15.7402L12.492 15.4173L11.5129 13.4591Z" fill="#E5646E"/>
<path id="Vector_11" d="M7.88217 16.3548H7.01367C6.83245 16.3548 6.68555 16.2079 6.68555 16.0267V15.1582C6.68555 14.977 6.83245 14.8301 7.01367 14.8301H7.88217C8.06339 14.8301 8.2103 14.977 8.2103 15.1582V16.0267C8.2103 16.2079 8.06339 16.3548 7.88217 16.3548Z" fill="#8AC9FE"/>
<path id="Vector_12" d="M17.0306 16.3548H16.1621C15.9809 16.3548 15.834 16.2079 15.834 16.0267V15.1582C15.834 14.977 15.9809 14.8301 16.1621 14.8301H17.0306C17.2118 14.8301 17.3587 14.977 17.3587 15.1582V16.0267C17.3587 16.2079 17.2118 16.3548 17.0306 16.3548Z" fill="#8AC9FE"/>
<path id="Vector_13" d="M16.5965 17.8828L16.5976 17.8796H16.5957L16.5965 17.8828Z" fill="#606060"/>
<path id="Vector_14" d="M1.14356 7.19685C1.77513 7.19685 2.28713 6.68486 2.28713 6.05329C2.28713 5.42172 1.77513 4.90973 1.14356 4.90973C0.51199 4.90973 0 5.42172 0 6.05329C0 6.68486 0.51199 7.19685 1.14356 7.19685Z" fill="#F9BD5F"/>
<path id="Vector_15" d="M0.9375 6.05324C0.9375 5.58876 1.21523 5.1892 1.61297 5.01018C1.46986 4.94578 1.31067 4.90973 1.14356 4.90973C0.511969 4.90973 0 5.4217 0 6.05324C0 6.68479 0.511969 7.19681 1.14356 7.19681C1.31067 7.19681 1.46986 7.16076 1.61297 7.09635C1.21523 6.91729 0.9375 6.51773 0.9375 6.05324Z" fill="#F4AC4E"/>
<path id="Vector_16" d="M22.8565 7.19685C23.488 7.19685 24 6.68486 24 6.05329C24 5.42172 23.488 4.90973 22.8565 4.90973C22.2249 4.90973 21.7129 5.42172 21.7129 6.05329C21.7129 6.68486 22.2249 7.19685 22.8565 7.19685Z" fill="#F9BD5F"/>
<path id="Vector_17" d="M22.6504 6.05324C22.6504 5.58876 22.928 5.18915 23.3257 5.01014C23.1826 4.94573 23.0235 4.90973 22.8565 4.90973C22.2249 4.90973 21.7129 5.4217 21.7129 6.05329C21.7129 6.68484 22.2249 7.19685 22.8565 7.19685C23.0236 7.19685 23.1827 7.16085 23.3257 7.09645C22.928 6.91734 22.6504 6.51773 22.6504 6.05324Z" fill="#F4AC4E"/>
<path id="Vector_18" d="M12.0225 5.36116C12.654 5.36116 13.166 4.84917 13.166 4.2176C13.166 3.58603 12.654 3.07404 12.0225 3.07404C11.3909 3.07404 10.8789 3.58603 10.8789 4.2176C10.8789 4.84917 11.3909 5.36116 12.0225 5.36116Z" fill="#F9BD5F"/>
<path id="Vector_19" d="M11.8164 4.2176C11.8164 3.75311 12.094 3.35346 12.4917 3.17444C12.3486 3.11004 12.1895 3.07404 12.0225 3.07404C11.3909 3.07404 10.8789 3.586 10.8789 4.2176C10.8789 4.84914 11.3909 5.36116 12.0225 5.36116C12.1896 5.36116 12.3486 5.32516 12.4917 5.26075C12.094 5.08169 11.8164 4.68208 11.8164 4.2176Z" fill="#F4AC4E"/>
<path id="Vector_20" d="M5.74708 6.05354C6.37865 6.05354 6.89064 5.54155 6.89064 4.90998C6.89064 4.27841 6.37865 3.76642 5.74708 3.76642C5.11551 3.76642 4.60352 4.27841 4.60352 4.90998C4.60352 5.54155 5.11551 6.05354 5.74708 6.05354Z" fill="#F9BD5F"/>
<path id="Vector_21" d="M5.54106 4.90993C5.54106 4.44545 5.81866 4.04584 6.21639 3.86682C6.07328 3.80242 5.91419 3.76642 5.74708 3.76642C5.11553 3.76642 4.60352 4.27839 4.60352 4.90998C4.60352 5.54157 5.11548 6.05354 5.74708 6.05354C5.91419 6.05354 6.07328 6.01754 6.21639 5.95314C5.81866 5.77403 5.54106 5.37437 5.54106 4.90993Z" fill="#F4AC4E"/>
<path id="Vector_22" d="M20.4085 17.8763V20.5824C20.4085 20.7719 20.2548 20.926 20.0649 20.926H3.98031C3.79037 20.926 3.63672 20.7719 3.63672 20.5824V17.8763H20.4085Z" fill="#F9BD5F"/>
<path id="Vector_23" d="M5.04297 20.5824V17.8763H3.63672V20.5824C3.63672 20.7719 3.79037 20.926 3.98031 20.926H5.38656C5.19662 20.9261 5.04297 20.7719 5.04297 20.5824Z" fill="#F4AC4E"/>
<g id="Group_7">
<g id="Group_8">
<path id="Vector_24" d="M3.63672 19.0345H20.4085V19.7708H3.63672V19.0345Z" fill="#FFE177"/>
</g>
</g>
<path id="Vector_25" d="M5.04297 19.7693V19.0333L3.63672 19.033V19.7693L20.4085 19.7722V19.772L5.04297 19.7693Z" fill="#FFD15B"/>
</g>
</g>
<defs>
<clipPath id="clip0_5156_35769">
<rect width="24" height="24" fill="white"/>
</clipPath>
</defs>
</svg>
