<svg width="24" height="24" viewBox="0 0 24 24" fill="none" xmlns="http://www.w3.org/2000/svg">
<g id="fi_9361651" clip-path="url(#clip0_5455_38661)">
<g id="_x33_0._Snowflakes">
<path id="Vector" d="M20.9632 13.8823C20.8807 13.6948 20.7232 13.5448 20.5282 13.4698C20.3407 13.4023 20.1232 13.4173 19.9357 13.5073L17.8717 14.5236L17.1915 14.1306L17.4922 14.0503C17.892 13.9431 18.1305 13.5321 18.0225 13.1316C17.9145 12.7311 17.5057 12.4948 17.1037 12.6013L15.3547 13.0701L13.5007 11.9998L15.354 10.9296L17.103 11.3983C17.1682 11.4156 17.2335 11.4238 17.298 11.4238C17.6287 11.4238 17.9317 11.2033 18.0217 10.8681C18.1297 10.4683 17.8912 10.0566 17.4915 9.9493L17.1907 9.86905L17.871 9.47606L19.935 10.4923C20.04 10.5448 20.1525 10.5748 20.2725 10.5748C20.355 10.5748 20.445 10.5598 20.5275 10.5298C20.7225 10.4548 20.88 10.3048 20.9625 10.1173L22.4325 6.6673C22.5225 6.44981 22.5075 6.2023 22.395 5.9998C22.275 5.7973 22.065 5.6548 21.8325 5.6323L18.1125 5.1823C17.91 5.1598 17.7 5.2198 17.5425 5.3473C17.385 5.4823 17.2875 5.6698 17.2725 5.8798L17.1262 8.17406L16.4415 8.5693L16.5217 8.26931C16.6297 7.86955 16.3912 7.4578 15.9915 7.35055C15.5925 7.24255 15.1807 7.48031 15.0727 7.88081L14.604 9.6298L12.7507 10.7008V8.5603L14.031 7.28006C14.3242 6.9868 14.3242 6.5128 14.031 6.21955C13.7377 5.92631 13.2637 5.92631 12.9705 6.21955L12.7507 6.43931V5.6473L14.6632 4.3723C14.8357 4.2598 14.9557 4.0798 14.9932 3.8773C15.0232 3.6748 14.9707 3.4648 14.8507 3.2998L12.6007 0.299805C12.3157 -0.0751953 11.6857 -0.0751953 11.4007 0.299805L9.15073 3.2998C9.03073 3.4648 8.97823 3.6748 9.00823 3.8773C9.04573 4.0798 9.16573 4.2598 9.33823 4.3723L11.2507 5.6473V6.43931L11.031 6.21955C10.7377 5.92631 10.2637 5.92631 9.97048 6.21955C9.67723 6.5128 9.67723 6.9868 9.97048 7.28006L11.2507 8.5603V10.7008L9.39673 9.63055L8.92798 7.88155C8.81998 7.48105 8.41048 7.24331 8.00923 7.35131C7.60948 7.45856 7.37098 7.86956 7.47898 8.27006L7.55923 8.57006L6.87448 8.1748L6.72823 5.8798C6.71323 5.6698 6.61573 5.4823 6.45823 5.3473C6.30073 5.2198 6.09073 5.1598 5.88823 5.1823L2.16823 5.6323C1.93573 5.6548 1.72573 5.7973 1.60573 5.9998C1.49323 6.2023 1.47823 6.44981 1.56823 6.6673L3.03823 10.1173C3.12073 10.3048 3.27823 10.4548 3.47323 10.5298C3.55573 10.5598 3.64573 10.5748 3.72823 10.5748C3.84823 10.5748 3.96073 10.5448 4.06573 10.4923L6.12973 9.47606L6.80998 9.86905L6.50923 9.9493C6.10948 10.0566 5.87098 10.4676 5.97898 10.8681C6.06898 11.2033 6.37123 11.4238 6.70273 11.4238C6.76723 11.4238 6.83248 11.4156 6.89773 11.3983L8.64673 10.9296L10.5007 11.9998L8.64748 13.0701L6.89848 12.6013C6.49948 12.4956 6.08773 12.7311 5.97973 13.1316C5.87173 13.5313 6.11023 13.9431 6.50998 14.0503L6.81073 14.1306L6.13048 14.5236L4.06573 13.5073C3.87823 13.4098 3.66073 13.4023 3.47323 13.4698C3.27823 13.5448 3.12073 13.6948 3.03823 13.8823L1.56823 17.3323C1.47823 17.5498 1.49323 17.7973 1.60573 17.9998C1.72573 18.2023 1.93573 18.3448 2.16823 18.3673L5.88823 18.8173C5.91823 18.8248 5.94823 18.8248 5.97823 18.8248C6.15823 18.8248 6.32323 18.7648 6.45823 18.6523C6.61573 18.5173 6.71323 18.3298 6.72823 18.1198L6.87448 15.8256L7.55923 15.4303L7.47898 15.7303C7.37098 16.1301 7.60948 16.5418 8.00923 16.6491C8.07448 16.6663 8.13973 16.6746 8.20423 16.6746C8.53498 16.6746 8.83798 16.4541 8.92798 16.1188L9.39673 14.3698L11.2507 13.2988V15.4393L9.97048 16.7196C9.67723 17.0128 9.67723 17.4868 9.97048 17.7801C10.2637 18.0733 10.7377 18.0733 11.031 17.7801L11.2507 17.5603V18.3523L9.33823 19.6273C9.16573 19.7398 9.04573 19.9198 9.00823 20.1223C8.97823 20.3248 9.03073 20.5348 9.15073 20.6998L11.4007 23.6998C11.5432 23.8873 11.7682 23.9998 12.0007 23.9998C12.2332 23.9998 12.4582 23.8873 12.6007 23.6998L14.8507 20.6998C14.9707 20.5348 15.0232 20.3248 14.9932 20.1223C14.9557 19.9198 14.8357 19.7398 14.6632 19.6273L12.7507 18.3523V17.5603L12.9705 17.7801C13.1167 17.9263 13.3087 17.9998 13.5007 17.9998C13.6927 17.9998 13.8847 17.9263 14.031 17.7801C14.3242 17.4868 14.3242 17.0128 14.031 16.7196L12.7507 15.4393V13.2988L14.6047 14.3691L15.0735 16.1181C15.1635 16.4533 15.4657 16.6738 15.7972 16.6738C15.8617 16.6738 15.927 16.6656 15.9922 16.6483C16.392 16.5411 16.6305 16.1301 16.5225 15.7296L16.4422 15.4296L17.127 15.8248L17.2732 18.1191C17.2882 18.3291 17.3857 18.5166 17.5432 18.6516C17.6782 18.7641 17.8432 18.8241 18.0232 18.8241C18.0532 18.8241 18.0832 18.8241 18.1132 18.8166L21.8332 18.3666C22.0657 18.3441 22.2757 18.2016 22.3957 17.9991C22.5082 17.7966 22.5232 17.5491 22.4332 17.3316L20.9632 13.8823Z" fill="#61CCF8"/>
<path id="Vector_2" d="M6.01547 2.99982C6.43022 2.99982 6.76547 2.66457 6.76547 2.24982C6.76547 1.83507 6.43022 1.49982 6.01547 1.49982H6.00797C5.59397 1.49982 5.26172 1.83507 5.26172 2.24982C5.26172 2.66457 5.60147 2.99982 6.01547 2.99982Z" fill="#61CCF8"/>
<path id="Vector_3" d="M6.01547 20.9998H6.00797C5.59397 20.9998 5.26172 21.335 5.26172 21.7498C5.26172 22.1645 5.60147 22.4998 6.01547 22.4998C6.43022 22.4998 6.76547 22.1645 6.76547 21.7498C6.76547 21.335 6.42947 20.9998 6.01547 20.9998Z" fill="#61CCF8"/>
<path id="Vector_4" d="M2.26547 11.9998C2.26547 11.585 1.93022 11.2498 1.51547 11.2498H1.50797C1.09397 11.2498 0.761719 11.585 0.761719 11.9998C0.761719 12.4145 1.10147 12.7498 1.51547 12.7498C1.92947 12.7498 2.26547 12.4145 2.26547 11.9998Z" fill="#61CCF8"/>
<path id="Vector_5" d="M18.0155 2.99982C18.4302 2.99982 18.7655 2.66457 18.7655 2.24982C18.7655 1.83507 18.4302 1.49982 18.0155 1.49982H18.008C17.594 1.49982 17.2617 1.83507 17.2617 2.24982C17.2617 2.66457 17.6015 2.99982 18.0155 2.99982Z" fill="#61CCF8"/>
<path id="Vector_6" d="M18.0155 20.9998H18.008C17.594 20.9998 17.2617 21.335 17.2617 21.7498C17.2617 22.1645 17.6015 22.4998 18.0155 22.4998C18.4302 22.4998 18.7655 22.1645 18.7655 21.7498C18.7655 21.335 18.4295 20.9998 18.0155 20.9998Z" fill="#61CCF8"/>
<path id="Vector_7" d="M22.5155 11.2498H22.508C22.094 11.2498 21.7617 11.585 21.7617 11.9998C21.7617 12.4145 22.1015 12.7498 22.5155 12.7498C22.9302 12.7498 23.2655 12.4145 23.2655 11.9998C23.2655 11.585 22.9295 11.2498 22.5155 11.2498Z" fill="#61CCF8"/>
</g>
</g>
<defs>
<clipPath id="clip0_5455_38661">
<rect width="24" height="24" fill="white"/>
</clipPath>
</defs>
</svg>
