<svg width="24" height="24" viewBox="0 0 24 24" fill="none" xmlns="http://www.w3.org/2000/svg">
<g id="fi_1420306" clip-path="url(#clip0_5156_35571)">
<path id="Vector" d="M22.5469 12C22.5469 10.5375 21.9 9.24371 20.8876 8.34375C21.0421 7.93597 21.1406 7.5141 21.1406 7.07812C21.1406 4.91254 19.2281 3.07965 16.7531 2.84052C16.3594 1.43427 15.1923 0 12 0C8.80774 0 7.64062 1.43427 7.24695 2.84052C4.78601 3.06555 2.85938 4.91254 2.85938 7.07812C2.85938 7.5141 2.95789 7.93597 3.11243 8.34375C2.10004 9.24371 1.45312 10.5375 1.45312 12C1.45312 13.4484 2.08594 14.7281 3.08441 15.6281C2.95789 16.0499 2.85938 16.4718 2.85938 16.9219C2.85938 19.3125 4.91254 21.314 7.26086 21.1875C7.65472 22.5938 8.85004 24 12 24C15.15 24 16.3453 22.5938 16.7391 21.1875C19.1157 21.2719 21.1406 19.3125 21.1406 16.9219C21.1406 16.4718 21.0421 16.0499 20.9156 15.6281C21.9141 14.7281 22.5469 13.4484 22.5469 12Z" fill="#FED2A4"/>
<path id="Vector_2" d="M20.9156 15.6281C21.0421 16.0499 21.1406 16.4718 21.1406 16.9219C21.1406 19.3125 19.1157 21.2719 16.7391 21.1875C16.3453 22.5938 15.15 24 12 24V0C15.1923 0 16.3594 1.43427 16.7531 2.84052C19.2281 3.07965 21.1406 4.91254 21.1406 7.07812C21.1406 7.5141 21.0421 7.93597 20.8876 8.34375C21.9 9.24371 22.5469 10.5375 22.5469 12C22.5469 13.4484 21.9141 14.7281 20.9156 15.6281Z" fill="#FFBD86"/>
<path id="Vector_3" d="M8.51532 20.3176C8.46368 19.8931 8.04913 19.6229 7.66168 19.7181C7.47638 19.76 7.28009 19.7812 7.07812 19.7812C5.52704 19.7812 4.26562 18.473 4.26562 16.9219C4.26562 16.7631 4.29108 16.6093 4.31671 16.4559C4.94495 16.7476 5.638 16.9219 6.375 16.9219C6.76355 16.9219 7.07812 16.6073 7.07812 16.2188C7.07812 15.8302 6.76355 15.5156 6.375 15.5156C4.43665 15.5156 2.85938 13.9384 2.85938 12C2.85938 10.0616 4.43665 8.48438 6.375 8.48438C7.53809 8.48438 8.48438 9.43066 8.48438 10.5938C8.48438 10.9823 8.79895 11.2969 9.1875 11.2969C9.57605 11.2969 9.89062 10.9823 9.89062 10.5938C9.89062 9.867 9.66888 9.19135 9.28967 8.63013C9.55371 8.35803 9.74908 8.0213 9.83716 7.63641C9.99921 6.92432 9.78827 6.19171 9.27191 5.67535C8.99725 5.4007 8.55231 5.4007 8.27765 5.67535C8.00299 5.95001 8.00299 6.39496 8.27765 6.66962C8.52557 6.91736 8.49188 7.20923 8.46588 7.3233C8.4494 7.39508 8.39722 7.52966 8.28461 7.6496C7.73364 7.29126 7.07959 7.07812 6.375 7.07812C5.64148 7.07812 4.95135 7.25024 4.32532 7.53937C4.29364 7.38739 4.26562 7.23468 4.26562 7.07812C4.26562 5.52704 5.8429 4.26562 7.82794 4.26562C8.17877 4.26562 8.4754 4.00745 8.52429 3.65991C8.64459 2.79932 9.0921 1.64502 11.2969 1.44727V22.5518C9.06244 22.3499 8.62445 21.206 8.51532 20.3176Z" fill="#FFBD86"/>
<path id="Vector_4" d="M19.7344 16.9219C19.7344 18.473 18.473 19.7812 16.9219 19.7812C16.7194 19.7812 16.5209 19.7607 16.3321 19.7195C15.9318 19.6296 15.535 19.9089 15.4847 20.3203C15.3755 21.2075 14.9376 22.35 12.7031 22.552V1.44745C14.9079 1.64557 15.3554 2.80298 15.4764 3.66614C15.5251 4.01367 15.8679 4.26562 16.2188 4.26562C18.1571 4.26562 19.7344 5.52704 19.7344 7.07812C19.7344 7.23468 19.7064 7.38739 19.6747 7.53937C19.0486 7.25024 18.3585 7.07812 17.625 7.07812C16.8677 7.07812 16.17 7.32422 15.5955 7.73328C15.4131 7.60107 15.3461 7.4165 15.3254 7.32806C15.2979 7.21344 15.2622 6.91956 15.5121 6.66962C15.7868 6.39496 15.7868 5.95001 15.5121 5.67535C15.2375 5.4007 14.7925 5.4007 14.5179 5.67535C13.9975 6.19574 13.7873 6.93457 13.9563 7.65088C14.0585 8.08282 14.3018 8.44958 14.6494 8.74219C14.3126 9.28143 14.1094 9.9126 14.1094 10.5938C14.1094 10.9823 14.424 11.2969 14.8125 11.2969C15.201 11.2969 15.5156 10.9823 15.5156 10.5938C15.5156 9.43066 16.4619 8.48438 17.625 8.48438C19.5634 8.48438 21.1406 10.0616 21.1406 12C21.1406 13.9384 19.5634 15.5156 17.625 15.5156C17.2365 15.5156 16.9219 15.8302 16.9219 16.2188C16.9219 16.6073 17.2365 16.9219 17.625 16.9219C18.362 16.9219 19.0551 16.7476 19.6833 16.4559C19.7089 16.6093 19.7344 16.7631 19.7344 16.9219Z" fill="#F6A96C"/>
<path id="Vector_5" d="M16.2188 18.3281C15.0557 18.3281 14.1094 17.3818 14.1094 16.2188V14.8125C14.1094 13.6494 15.0557 12.7031 16.2188 12.7031C16.6068 12.7031 16.9219 12.388 16.9219 12C16.9219 11.6115 17.2365 11.2969 17.625 11.2969C18.0135 11.2969 18.3281 11.6115 18.3281 12C18.3281 13.1631 17.3818 14.1094 16.2188 14.1094C15.8307 14.1094 15.5156 14.4245 15.5156 14.8125V16.2188C15.5156 16.6068 15.8307 16.9219 16.2188 16.9219C16.6073 16.9219 16.9219 17.2365 16.9219 17.625C16.9219 18.0135 16.6073 18.3281 16.2188 18.3281Z" fill="#FFBD86"/>
<path id="Vector_6" d="M7.78125 18.3281C7.3927 18.3281 7.07812 18.0135 7.07812 17.625C7.07812 17.2365 7.3927 16.9219 7.78125 16.9219C8.16925 16.9219 8.48438 16.6068 8.48438 16.2188V14.8125C8.48438 14.4245 8.16925 14.1094 7.78125 14.1094C6.61816 14.1094 5.67188 13.1631 5.67188 12C5.67188 11.6115 5.98645 11.2969 6.375 11.2969C6.76355 11.2969 7.07812 11.6115 7.07812 12C7.07812 12.388 7.39325 12.7031 7.78125 12.7031C8.94434 12.7031 9.89062 13.6494 9.89062 14.8125V16.2188C9.89062 17.3818 8.94434 18.3281 7.78125 18.3281Z" fill="#FED2A4"/>
</g>
<defs>
<clipPath id="clip0_5156_35571">
<rect width="24" height="24" fill="white"/>
</clipPath>
</defs>
</svg>
