<svg width="24" height="24" viewBox="0 0 24 24" fill="none" xmlns="http://www.w3.org/2000/svg">
<g id="fi_5775601">
<g id="Group">
<g id="Group_2">
<g id="Group_3">
<g id="Group_4">
<g id="Group_5">
<g id="Group_6">
<path id="Vector" d="M16.1995 2.97754C14.6404 2.97754 13.2393 3.65395 12.2736 4.72926C12.1266 4.89295 11.8713 4.89295 11.7243 4.72926C10.7587 3.65395 9.35763 2.97754 7.79847 2.97754C4.88509 2.97754 2.52344 5.33929 2.52344 8.25257C2.52344 12.5975 9.19684 18.8687 11.3429 20.7732C11.7175 21.1056 12.2805 21.1056 12.6551 20.7732C14.8011 18.8688 21.4745 12.5975 21.4745 8.25257C21.4746 5.33929 19.1129 2.97754 16.1995 2.97754Z" fill="#E63950"/>
</g>
</g>
</g>
</g>
<g id="Group_7">
<g id="Group_8">
<path id="Vector_2" d="M7.07969 15.871C7.02428 15.871 6.97272 15.8475 6.93709 15.8063C6.90428 15.7679 6.88834 15.7191 6.89219 15.6694C6.89584 15.6197 6.91834 15.5738 6.95678 15.5419C7.03178 15.4763 7.15647 15.4857 7.22116 15.5607C7.28866 15.6394 7.28022 15.7575 7.20147 15.826C7.16781 15.855 7.12375 15.871 7.07969 15.871ZM6.59491 15.2982C6.53959 15.2982 6.48625 15.2729 6.45053 15.2297C6.44584 15.2241 6.44116 15.2175 6.43563 15.2119C6.42991 15.2044 6.42344 15.1969 6.41781 15.1894C5.27219 13.7982 4.39281 12.5063 3.80313 11.3504C3.20594 10.1785 2.90125 9.13598 2.89844 8.25285C2.89844 5.55098 5.09688 3.35254 7.79781 3.35254C9.18719 3.35254 10.5166 3.94598 11.4447 4.98004C11.5141 5.05691 11.5075 5.17598 11.4306 5.24441C11.3566 5.31098 11.2319 5.30441 11.1663 5.23035C10.3084 4.27504 9.08125 3.72754 7.79875 3.72754C6.59116 3.72754 5.45594 4.1991 4.6 5.0541C3.74406 5.91004 3.27344 7.04629 3.27344 8.25285C3.27062 9.06285 3.56125 10.0472 4.13875 11.1797C4.72366 12.3282 5.58813 13.5966 6.70656 14.9513C6.71781 14.9644 6.72906 14.9775 6.73938 14.9907C6.80594 15.0704 6.79478 15.1885 6.715 15.255C6.68125 15.2822 6.63906 15.2982 6.59491 15.2982Z" fill="#E8566F"/>
</g>
</g>
<g id="Group_9">
<path id="Vector_3" d="M19.4327 4.08301C20.1258 4.97579 20.5384 6.09713 20.5384 7.31494C20.5384 11.6599 13.865 17.9311 11.7189 19.8355C11.3442 20.168 10.7813 20.168 10.4066 19.8355C9.948 19.4286 9.28247 18.822 8.51953 18.0775C9.66525 19.2523 10.7053 20.2062 11.3441 20.773C11.7187 21.1055 12.2817 21.1055 12.6564 20.773C14.8025 18.8687 21.4759 12.5974 21.4759 8.25244C21.4759 6.55679 20.6758 5.04807 19.4327 4.08301Z" fill="#D10028"/>
</g>
<g id="Group_10">
<path id="Vector_4" d="M19.6899 4.29541C20.5102 5.22522 21.0078 6.44632 21.0078 7.78375C21.0078 12.1287 14.3344 18.3999 12.1884 20.3043C11.8137 20.6368 11.2508 20.6368 10.8761 20.3043C10.3701 19.8554 9.6125 19.1636 8.75 18.3116C9.80413 19.3789 10.749 20.2443 11.3448 20.7731C11.7194 21.1055 12.2824 21.1055 12.6571 20.7731C14.8032 18.8688 21.4766 12.5974 21.4766 8.2525C21.4767 6.67647 20.7855 5.26197 19.6899 4.29541Z" fill="#B7022D"/>
</g>
<g id="Group_11">
<g id="Group_12">
<path id="Vector_5" d="M4.34078 6.95289L8.09088 7.75595C8.64409 7.47236 9.22328 7.2423 9.82028 7.06886L10.9659 6.73614L12.1053 5.94011C12.2386 5.84702 12.4221 5.87955 12.5152 6.01286L12.5199 6.01961C12.719 6.3047 12.6495 6.69723 12.3644 6.89636L11.5962 7.43308C11.5419 7.47105 11.5262 7.54455 11.5602 7.60136C11.5802 7.63483 11.6146 7.65714 11.6533 7.66192L14.2856 7.98236C14.5412 8.01348 14.7231 8.24589 14.692 8.50145C14.6609 8.75701 14.4285 8.93898 14.1729 8.90786L11.4794 8.58001L14.7576 8.97902C15.0132 9.01014 15.1952 9.24255 15.164 9.49811C15.1329 9.75367 14.9005 9.93564 14.6449 9.90452L11.3667 9.50552L14.0604 9.83336C14.316 9.86448 14.4979 10.0969 14.4668 10.3525C14.4357 10.608 14.2033 10.79 13.9477 10.7589L11.254 10.431L13.3632 10.6877C13.6188 10.7188 13.8007 10.9512 13.7696 11.2068C13.7385 11.4624 13.5061 11.6443 13.2505 11.6132L11.1413 11.3565L9.39981 11.1445C8.79513 11.071 8.22634 10.8179 7.76678 10.4182L3.70328 10.2119C2.22972 10.2119 1.03516 9.01736 1.03516 7.5438C1.03516 6.07023 2.22972 4.87567 3.70328 4.87567L4.05119 6.65814C4.08006 6.80551 4.19397 6.92148 4.34078 6.95289Z" fill="#FCC4AE"/>
</g>
<g id="Group_13">
<path id="Vector_6" d="M15.1633 9.49803C15.1342 9.73522 14.9336 9.90866 14.7011 9.90866H14.6927C14.6767 9.90772 14.6608 9.90679 14.6448 9.90491L14.0598 9.83366C14.3158 9.8646 14.4977 10.0971 14.4667 10.353C14.463 10.3802 14.4573 10.4065 14.4498 10.4308C14.3917 10.6268 14.2108 10.7627 14.0045 10.7627C13.9858 10.7627 13.9661 10.7608 13.9473 10.759L13.3623 10.6877C13.6183 10.7187 13.8002 10.9512 13.7692 11.2071C13.7411 11.4433 13.5405 11.6168 13.308 11.6168C13.2892 11.6168 13.2695 11.6158 13.2498 11.613L11.1414 11.3571L9.39953 11.1452C8.79484 11.0712 8.22578 10.818 7.76641 10.4187L3.70328 10.2124C2.22953 10.2124 1.03516 9.0171 1.03516 7.54428C1.03516 6.07053 2.22953 4.87616 3.70328 4.87616L4.05109 6.65835C4.07922 6.80553 4.19359 6.92179 4.34078 6.95272L8.09078 7.75616C8.64391 7.47304 9.22234 7.24241 9.81953 7.06897L10.9652 6.73616L12.1052 5.94022C12.2383 5.84741 12.422 5.88022 12.5148 6.01335L12.5195 6.01991C12.7183 6.30491 12.6489 6.69772 12.3639 6.89647L11.5961 7.43366C11.5417 7.47116 11.5258 7.54522 11.5595 7.60147C11.5802 7.63522 11.6139 7.65772 11.6533 7.66241L14.2848 7.98304C14.5408 8.01397 14.7227 8.24647 14.6917 8.50147C14.6673 8.70022 14.523 8.85397 14.3392 8.89804C14.3064 8.90741 14.2717 8.91116 14.2361 8.9121H14.2295C14.2117 8.9121 14.1939 8.91022 14.1761 8.90835L14.2192 8.91397L14.7573 8.9796C15.0123 9.01053 15.1952 9.24303 15.1633 9.49803Z" fill="#FCC4AE"/>
</g>
<g id="Group_14">
<path id="Vector_7" d="M14.6922 8.50127C14.6679 8.70002 14.5235 8.85377 14.3397 8.89783L14.2366 8.91189L14.2197 8.91377L14.1766 8.90814L11.5727 8.59136C11.5212 8.58508 11.4846 8.53821 11.491 8.48674L11.4915 8.48252C11.5169 8.27693 11.7042 8.13096 11.9098 8.15646L14.6922 8.50127Z" fill="#F2AD97"/>
</g>
<g id="Group_15">
<path id="Vector_8" d="M15.1641 9.49792C15.135 9.7351 14.9344 9.90854 14.7019 9.90854H14.6935L14.6925 9.9076L11.4595 9.51657C11.4084 9.51039 11.3718 9.46417 11.3775 9.41307L11.3797 9.39404C11.403 9.18582 11.5925 9.03704 11.8004 9.06385L15.1641 9.49792Z" fill="#F2AD97"/>
</g>
<g id="Group_16">
<path id="Vector_9" d="M14.4501 10.4307C14.3919 10.6267 14.211 10.7626 14.0048 10.7626C13.986 10.7626 13.9663 10.7607 13.9476 10.7589L13.3626 10.6876L11.3031 10.4367C11.2761 10.4334 11.2568 10.4089 11.2601 10.3819C11.2855 10.1746 11.4754 10.028 11.6824 10.0558L12.8948 10.2189L14.4501 10.4307Z" fill="#F2AD97"/>
</g>
<g id="Group_17">
<g id="Group_18">
<path id="Vector_10" d="M14.0613 9.83346L14.0025 9.82633C14.0025 9.84527 14.0013 9.86449 13.999 9.8838C13.9679 10.1394 13.7355 10.3213 13.4799 10.2902L12.8957 10.219C13.1511 10.2503 13.3329 10.4826 13.3018 10.7381C13.2707 10.9936 13.0382 11.1756 12.7827 11.1445L10.6735 10.8878L8.932 10.6758C8.32731 10.6022 7.75853 10.3492 7.29887 9.94942L3.23538 9.74318C2.61803 9.74318 2.04972 9.53346 1.59766 9.18152C2.08591 9.80852 2.84791 10.2119 3.70413 10.2119L7.76763 10.4182C8.22719 10.818 8.79597 11.071 9.40075 11.1446L11.1423 11.3565L13.2514 11.6132C13.507 11.6443 13.7394 11.4624 13.7705 11.2068C13.8017 10.9513 13.6198 10.719 13.3644 10.6878L13.9487 10.759C14.2042 10.7901 14.4366 10.6081 14.4677 10.3526C14.4989 10.0969 14.317 9.86449 14.0613 9.83346Z" fill="#F2AD97"/>
</g>
</g>
</g>
</g>
<g id="Group_19">
<g id="Group_20">
<path id="Vector_11" d="M22.3044 14.2829C22.3044 15.7566 21.11 16.951 19.6362 16.951L16.3925 17.116L15.5731 17.1572C15.1128 17.5576 14.5447 17.8107 13.94 17.8838L12.1981 18.0957L10.0887 18.3526C10.07 18.3544 10.0512 18.3563 10.0325 18.3563C9.79999 18.3563 9.59937 18.1829 9.5703 17.9466C9.53843 17.6916 9.71937 17.4591 9.97437 17.4272L9.39218 17.4985C9.37343 17.5004 9.35374 17.5022 9.33499 17.5022C9.10249 17.5022 8.90187 17.3288 8.8728 17.0916C8.84187 16.8376 9.0228 16.6051 9.27687 16.5732L8.69468 16.6444C8.67593 16.6463 8.65624 16.6482 8.63749 16.6482C8.40499 16.6482 8.20437 16.4747 8.1753 16.2376C8.14437 15.9816 8.32624 15.7501 8.58218 15.7182L9.13718 15.6507C9.1278 15.6516 9.11937 15.6516 9.10999 15.6516C8.87749 15.6516 8.67687 15.4782 8.6478 15.241C8.61593 14.9851 8.7978 14.7526 9.05374 14.7216L11.6862 14.4019C11.7247 14.3963 11.7594 14.3747 11.7791 14.341C11.8128 14.2838 11.7978 14.2107 11.7434 14.1722L10.9747 13.636C10.6897 13.4372 10.6203 13.0444 10.8191 12.7594L10.8247 12.7529C10.9175 12.6188 11.1012 12.5869 11.2344 12.6797L12.3734 13.4757L13.5191 13.8085C14.1162 13.9819 14.6956 14.2116 15.2487 14.4957L19.235 13.6416L19.2406 13.6407L19.2425 13.6313C19.6841 13.0004 20.0844 12.3638 20.42 11.7319C21.5112 12.0666 22.3044 13.0829 22.3044 14.2829Z" fill="#FCC4AE"/>
</g>
<g id="Group_21">
<g id="Group_22">
<path id="Vector_12" d="M21.2736 12.1765C21.6257 12.6287 21.8354 13.1971 21.8354 13.8141C21.8354 15.2879 20.641 16.4823 19.1673 16.4823L15.9235 16.6473L15.1041 16.6885C14.6438 17.0888 14.0757 17.342 13.471 17.4151L11.7291 17.627L9.61975 17.8838C9.60194 17.8856 9.58422 17.8873 9.56641 17.8875C9.56641 17.907 9.56753 17.9268 9.57006 17.9466C9.59913 18.1829 9.79975 18.3563 10.0323 18.3563C10.051 18.3563 10.0698 18.3545 10.0885 18.3526L12.1979 18.0957L13.9398 17.8838C14.5444 17.8107 15.1126 17.5576 15.5729 17.1573L16.3923 17.116L19.636 16.951C21.1098 16.951 22.3041 15.7566 22.3041 14.2829C22.3041 13.4271 21.9007 12.6649 21.2736 12.1765Z" fill="#F2AD97"/>
</g>
</g>
<g id="Group_23">
<path id="Vector_13" d="M8.64648 15.2408C8.67086 15.4396 8.81523 15.5933 8.99898 15.6374L9.10211 15.6515L9.11898 15.6533L9.16211 15.6477L11.766 15.3309C11.8175 15.3246 11.8541 15.2778 11.8478 15.2263L11.8472 15.2221C11.8218 15.0165 11.6345 14.8705 11.4289 14.896L8.64648 15.2408Z" fill="#F2AD97"/>
</g>
<g id="Group_24">
<path id="Vector_14" d="M8.17578 16.2374C8.20484 16.4745 8.40547 16.648 8.63797 16.648H8.64641L8.64734 16.647L11.8804 16.256C11.9315 16.2498 11.9681 16.2036 11.9623 16.1525L11.9602 16.1335C11.9368 15.9253 11.7474 15.7765 11.5395 15.8033L8.17578 16.2374Z" fill="#F2AD97"/>
</g>
<g id="Group_25">
<path id="Vector_15" d="M8.89062 17.1703C8.94875 17.3662 9.12969 17.5022 9.33594 17.5022C9.35469 17.5022 9.37438 17.5003 9.39313 17.4984L9.97812 17.4272L12.0376 17.1763C12.0646 17.173 12.0838 17.1484 12.0806 17.1214C12.0552 16.9142 11.8653 16.7675 11.6583 16.7954L10.4459 16.9585L8.89062 17.1703Z" fill="#F2AD97"/>
</g>
</g>
</g>
</g>
</svg>
