<svg width="24" height="24" viewBox="0 0 24 24" fill="none" xmlns="http://www.w3.org/2000/svg">
<g id="fi_4001631" clip-path="url(#clip0_5156_35758)">
<path id="Vector" d="M16.1241 3.375L13.6296 5.8695C13.3949 6.10597 13.101 6.27498 12.7786 6.35883C12.4562 6.44269 12.1171 6.4383 11.797 6.34613C9.95853 5.80823 7.99333 5.89765 6.21132 6.60027C4.42932 7.30289 2.93191 8.57874 1.95527 10.2266C0.97863 11.8744 0.578333 13.8005 0.817513 15.701C1.05669 17.6016 1.92174 19.3684 3.27622 20.7229C4.6307 22.0774 6.39753 22.9424 8.29806 23.1816C10.1986 23.4208 12.1247 23.0205 13.7725 22.0438C15.4204 21.0672 16.6962 19.5698 17.3988 17.7878C18.1015 16.0058 18.1909 14.0406 17.653 12.2021C17.5608 11.882 17.5564 11.5429 17.6403 11.2205C17.7241 10.8981 17.8931 10.6042 18.1296 10.3695L20.6241 7.875" fill="#F8CED7"/>
<path id="Vector_2" d="M11.7971 6.34613C10.046 5.83377 8.17749 5.88991 6.46032 6.50648C4.74314 7.12304 3.26572 8.26827 2.24049 9.77749C1.21525 11.2867 0.695024 13.0822 0.754602 14.9057C0.814179 16.7292 1.45049 18.4869 2.57205 19.926C4.01113 21.0476 5.76881 21.6839 7.59235 21.7435C9.41589 21.803 11.2113 21.2828 12.7206 20.2576C14.2298 19.2323 15.375 17.7549 15.9916 16.0377C16.6081 14.3206 16.6643 12.4521 16.1519 10.701C16.0598 10.3809 16.0554 10.0418 16.1392 9.7194C16.2231 9.39698 16.3921 9.10304 16.6286 8.86837L19.1242 6.375L16.1242 3.375L13.6297 5.8695C13.395 6.10597 13.1011 6.27498 12.7787 6.35883C12.4562 6.44269 12.1172 6.4383 11.7971 6.34613Z" fill="#FFDEE7"/>
<path id="Vector_3" d="M17.7029 12.375H16.9529C16.3465 12.375 15.7483 12.5162 15.2059 12.7874C14.6634 13.0586 14.1916 13.4524 13.8277 13.9376C13.493 14.3838 13.0591 14.746 12.5603 14.9954C12.0615 15.2449 11.5114 15.3749 10.9537 15.375H10.7969C10.2391 15.375 9.68888 15.2451 9.18991 14.9956C8.69095 14.7461 8.25692 14.3839 7.92219 13.9376C7.55831 13.4524 7.08647 13.0586 6.54402 12.7874C6.00157 12.5162 5.40341 12.375 4.79694 12.375C4.23343 12.375 3.67659 12.4969 3.16464 12.7324C2.65269 12.9679 2.19776 13.3114 1.83106 13.7393L0.757812 14.991C0.81022 16.2024 1.11744 17.3891 1.65944 18.4737C2.20143 19.5583 2.96602 20.5164 3.9033 21.2856C4.84059 22.0547 5.92952 22.6176 7.09905 22.9376C8.26857 23.2575 9.4924 23.3272 10.6907 23.1422C11.889 22.9572 13.0348 22.5217 14.0534 21.8639C15.072 21.2062 15.9405 20.3411 16.6022 19.3251C17.2639 18.3091 17.7039 17.165 17.8936 15.9674C18.0832 14.7699 18.0183 13.5458 17.7029 12.375Z" fill="#BA4753"/>
<path id="Vector_4" d="M16.4699 13.857C16.5093 13.3744 16.5086 12.8893 16.4677 12.4068C15.9476 12.4718 15.4458 12.6408 14.9924 12.9038C14.539 13.1668 14.1431 13.5184 13.8284 13.9376C13.4937 14.3839 13.0597 14.7461 12.5607 14.9956C12.0617 15.2451 11.5115 15.3749 10.9537 15.375H10.7969C10.2391 15.3749 9.68888 15.2451 9.18991 14.9956C8.69095 14.7461 8.25692 14.3839 7.92219 13.9376C7.5712 13.4696 7.1196 13.0864 6.60071 12.8163C6.08181 12.5462 5.50889 12.3961 4.92422 12.3771C4.33955 12.358 3.75807 12.4705 3.2227 12.7063C2.68733 12.9421 2.21175 13.2951 1.83106 13.7392L0.757812 14.991C0.831887 16.7862 1.46765 18.5129 2.57544 19.9275C3.80042 20.8818 5.26034 21.4877 6.80109 21.6813C8.34184 21.8749 9.90627 21.6489 11.3293 21.0272C12.7522 20.4055 13.981 19.4111 14.8858 18.1491C15.7906 16.8871 16.3379 15.4042 16.4699 13.857Z" fill="#E1656E"/>
<path id="Vector_5" d="M20.25 3.75V1.6875C20.25 1.43886 20.3488 1.2004 20.5246 1.02459C20.7004 0.848772 20.9389 0.75 21.1875 0.75C21.4361 0.75 21.6746 0.848772 21.8504 1.02459C22.0262 1.2004 22.125 1.43886 22.125 1.6875V1.875H22.3125C22.5611 1.875 22.7996 1.97377 22.9754 2.14959C23.1512 2.3254 23.25 2.56386 23.25 2.8125C23.25 3.06114 23.1512 3.2996 22.9754 3.47541C22.7996 3.65123 22.5611 3.75 22.3125 3.75H20.25Z" fill="#F29B99"/>
<path id="Vector_6" d="M15.6855 2.9355L21.0645 8.3145C21.163 8.41297 21.2799 8.49107 21.4086 8.54435C21.5373 8.59762 21.6752 8.62503 21.8145 8.625C22.0958 8.625 22.3655 8.51327 22.5644 8.31439C22.7633 8.1155 22.875 7.84576 22.875 7.5645C22.875 7.42522 22.8476 7.2873 22.7943 7.15862C22.7411 7.02993 22.663 6.913 22.5645 6.8145L17.1855 1.4355C17.087 1.33703 16.9701 1.25893 16.8414 1.20565C16.7127 1.15238 16.5748 1.12497 16.4355 1.125C16.2962 1.125 16.1583 1.15243 16.0297 1.20573C15.901 1.25902 15.7841 1.33714 15.6856 1.43561C15.5871 1.53409 15.509 1.651 15.4557 1.77966C15.4024 1.90833 15.375 2.04623 15.375 2.1855C15.375 2.32478 15.4024 2.4627 15.4557 2.59138C15.5089 2.72007 15.587 2.837 15.6855 2.9355Z" fill="#FFAEC3"/>
<g id="Group">
<path id="Vector_7" d="M10.875 13.875L12.7984 12.225C13.0182 12.0365 13.1947 11.8027 13.3158 11.5397C13.4369 11.2767 13.4997 10.9906 13.5 10.701C13.5 10.3493 13.3603 10.012 13.1116 9.76338C12.8629 9.5147 12.5257 9.375 12.174 9.375C11.9999 9.37501 11.8275 9.40933 11.6666 9.47599C11.5057 9.54265 11.3596 9.64035 11.2365 9.7635L10.875 10.125L10.5135 9.7635C10.3904 9.64035 10.2443 9.54265 10.0834 9.47599C9.92254 9.40933 9.75012 9.37501 9.576 9.375C9.22432 9.375 8.88705 9.5147 8.63838 9.76338C8.3897 10.012 8.25 10.3493 8.25 10.701C8.25027 10.9906 8.3131 11.2767 8.4342 11.5397C8.5553 11.8027 8.7318 12.0365 8.95163 12.225L10.875 13.875Z" fill="#F29B99"/>
<path id="Vector_8" d="M3.375 6.375L5.29838 4.725C5.5182 4.53651 5.6947 4.30274 5.8158 4.03971C5.9369 3.77667 5.99973 3.49057 6 3.201C6 2.84932 5.8603 2.51205 5.61162 2.26338C5.36295 2.0147 5.02568 1.875 4.674 1.875C4.49988 1.87501 4.32746 1.90933 4.1666 1.97599C4.00574 2.04265 3.85959 2.14035 3.7365 2.2635L3.375 2.625L3.0135 2.2635C2.89041 2.14035 2.74426 2.04265 2.5834 1.97599C2.42254 1.90933 2.25012 1.87501 2.076 1.875C1.72432 1.875 1.38705 2.0147 1.13838 2.26338C0.889703 2.51205 0.75 2.84932 0.75 3.201C0.750268 3.49057 0.813102 3.77667 0.9342 4.03971C1.0553 4.30274 1.2318 4.53651 1.45162 4.725L3.375 6.375Z" fill="#F29B99"/>
<path id="Vector_9" d="M15.75 10.125C16.3713 10.125 16.875 9.62132 16.875 9C16.875 8.37868 16.3713 7.875 15.75 7.875C15.1287 7.875 14.625 8.37868 14.625 9C14.625 9.62132 15.1287 10.125 15.75 10.125Z" fill="#F29B99"/>
</g>
</g>
<defs>
<clipPath id="clip0_5156_35758">
<rect width="24" height="24" fill="white"/>
</clipPath>
</defs>
</svg>
