<svg width="48" height="48" viewBox="0 0 48 48" fill="none" xmlns="http://www.w3.org/2000/svg">
<g id="fi_2058712" clip-path="url(#clip0_7347_46184)">
<path id="Vector" d="M43.7116 28.1793L34.3703 37.5205L31.2109 34.3621L29.1747 32.3258L26.1709 31.0799C25.6459 30.8624 25.1406 30.6027 24.6597 30.3046C24.2641 30.0608 23.8853 29.7908 23.5253 29.4955C23.2516 29.2724 22.9891 29.0352 22.7378 28.7839L18.4141 24.4602L29.2169 13.6846L34.7856 19.2533L40.5531 25.0208L43.7116 28.1793Z" fill="#D68A5A"/>
<g id="Group">
<path id="Vector_2" d="M31.5836 26.9916C31.4037 26.9916 31.2237 26.923 31.0864 26.7856L29.3544 25.0538C29.0798 24.7792 29.0798 24.3341 29.3544 24.0595C29.6291 23.7849 30.0742 23.7849 30.3488 24.0595L32.0807 25.7913C32.3553 26.0659 32.3553 26.511 32.0807 26.7856C31.9435 26.9229 31.7635 26.9916 31.5836 26.9916Z" fill="#C47A4A"/>
<path id="Vector_3" d="M31.2051 34.3622L40.5452 25.0221L43.7033 28.1803L34.3632 37.5204L31.2051 34.3622Z" fill="#C47A4A"/>
<path id="Vector_4" d="M35.6472 20.1149L27.6091 28.1521C26.7381 29.0249 25.7491 29.7468 24.6597 30.3046C23.9641 29.8752 23.3191 29.3652 22.7378 28.7839L18.4141 24.4602L29.2169 13.6846L35.6472 20.1149Z" fill="#C47A4A"/>
<path id="Vector_5" d="M29.2177 13.6846L43.7124 28.1793L42.3873 29.2706L27.8926 14.7759L29.2177 13.6846Z" fill="#C47A4A"/>
</g>
<path id="Vector_6" d="M35.0625 18.9777L34.7869 19.2534L26.7487 27.2906C25.8206 28.2196 24.7275 28.9677 23.5266 29.4956C23.4572 29.5274 23.3869 29.5574 23.3156 29.5865L20.3119 30.8324L16.7991 34.3452L13.6303 37.514L4.28906 28.1727L7.45781 25.004L10.3753 22.0874L22.8881 9.57462L25.0931 7.36869C25.4653 6.9965 25.9538 6.80994 26.4422 6.80994C26.9297 6.80994 27.4181 6.9965 27.7903 7.36869C28.5356 8.11306 28.5356 9.32056 27.7903 10.0659L26.97 10.8852C27.7153 10.1409 28.9228 10.1409 29.6681 10.8852C30.4125 11.6306 30.4125 12.8381 29.6681 13.5824C30.0403 13.2102 30.5278 13.0246 31.0163 13.0246C31.5047 13.0246 31.9922 13.2102 32.3653 13.5824C33.1097 14.3277 33.1097 15.5352 32.3653 16.2796C32.7375 15.9074 33.2259 15.7209 33.7134 15.7209C34.2019 15.7209 34.6903 15.9074 35.0625 16.2796C35.8069 17.0249 35.8069 18.2324 35.0625 18.9777Z" fill="#FDD1A7"/>
<path id="Vector_7" d="M4.28516 28.1709L7.4534 25.0027L16.7932 34.3425L13.625 37.5107L4.28516 28.1709Z" fill="#FFBC8A"/>
<path id="Vector_8" d="M23.3397 14.4477C23.0162 14.7711 22.6337 15.0149 22.2175 15.1696C22.3562 16.1146 22.0628 17.113 21.3372 17.8386C20.8422 18.3336 20.2103 18.6411 19.5269 18.7283C19.4416 19.3902 19.1463 20.0296 18.64 20.5368C18.145 21.0308 17.5131 21.3393 16.8297 21.4255C16.7444 22.0874 16.4491 22.7268 15.9419 23.234C15.3522 23.8236 14.5666 24.149 13.7322 24.149C12.8969 24.149 12.1122 23.8236 11.5216 23.234L10.375 22.0874L22.8878 9.57458L23.3397 10.0265C24.5594 11.2461 24.5594 13.229 23.3397 14.4477Z" fill="#FFBC8A"/>
<path id="Vector_9" d="M35.0622 18.9777L26.7484 27.2905C25.7659 28.2739 24.5988 29.0539 23.3153 29.5864L20.3116 30.8324L13.63 37.5139L12.3203 36.2052V36.2043L19.0019 29.5227L22.0056 28.2768C23.29 27.7443 24.4562 26.9643 25.4387 25.9818L33.7525 17.668C34.2606 17.1599 34.4219 16.438 34.2372 15.7939C34.5391 15.8802 34.8241 16.0414 35.0622 16.2796C35.8066 17.0249 35.8066 18.2324 35.0622 18.9777Z" fill="#FFBC8A"/>
<path id="Vector_10" d="M22.4782 10.8886L19.9454 8.35575C19.2005 7.61091 17.9929 7.61091 17.2481 8.35575C16.5032 9.1006 16.5032 10.3082 17.2481 11.053L19.7809 13.5859C20.5258 14.3307 21.7334 14.3307 22.4782 13.5859C23.2231 12.841 23.2231 11.6334 22.4782 10.8886Z" fill="#D68A5A"/>
<path id="Vector_11" d="M23.0362 12.2371C23.0362 12.7255 22.8505 13.214 22.4774 13.5862C22.2937 13.7699 22.0809 13.9087 21.854 14.0015C21.9487 13.7699 21.9965 13.5234 21.9965 13.2768C21.9965 12.7884 21.8099 12.3009 21.4377 11.9287L18.9046 9.39555C18.3449 8.83586 17.5227 8.69711 16.8318 8.98023C16.9246 8.75336 17.0624 8.54055 17.2471 8.35586C17.9924 7.61055 19.1999 7.61055 19.9452 8.35586L22.4774 10.889C22.8505 11.2612 23.0362 11.7496 23.0362 12.2371Z" fill="#C47A4A"/>
<path id="Vector_12" d="M20.4745 14.28L17.9417 11.7471C17.1969 11.0023 15.9893 11.0023 15.2444 11.7471C14.4996 12.492 14.4996 13.6995 15.2444 14.4444L17.7773 16.9772C18.5221 17.7221 19.7297 17.7221 20.4745 16.9772C21.2194 16.2324 21.2194 15.0248 20.4745 14.28Z" fill="#F5A871"/>
<path id="Vector_13" d="M21.0325 15.6289C21.0325 16.1164 20.8459 16.6049 20.4738 16.9771C20.29 17.1618 20.0772 17.3005 19.8503 17.3933C19.945 17.1618 19.9928 16.9152 19.9928 16.6686C19.9928 16.1802 19.8072 15.6927 19.4341 15.3196L16.9019 12.7874C16.3412 12.2268 15.5191 12.088 14.8281 12.3711C14.9209 12.1443 15.0597 11.9314 15.2444 11.7468C15.9888 11.0024 17.1963 11.0024 17.9416 11.7468L20.4738 14.2799C20.8459 14.6521 21.0325 15.1405 21.0325 15.6289Z" fill="#E89A5E"/>
<path id="Vector_14" d="M17.7773 16.9772L15.2444 14.4444C14.4996 13.6995 13.292 13.6995 12.5472 14.4444C11.8023 15.1892 11.8023 16.3968 12.5472 17.1417L15.08 19.6745C15.8248 20.4193 17.0324 20.4193 17.7773 19.6745C18.522 18.9297 18.522 17.7221 17.7773 16.9772Z" fill="#E89A5E"/>
<path id="Vector_15" d="M18.3352 18.3261C18.3352 18.8145 18.1496 19.302 17.7765 19.6742C17.5927 19.858 17.3799 19.9967 17.153 20.0905C17.4362 19.4005 17.2974 18.5773 16.7368 18.0167L14.2037 15.4845C13.644 14.9239 12.8218 14.7852 12.1309 15.0683C12.2237 14.8414 12.3624 14.6286 12.5471 14.4448C13.2915 13.6995 14.499 13.6995 15.2443 14.4448L17.7765 16.977C18.1496 17.3502 18.3352 17.8377 18.3352 18.3261Z" fill="#D68A5A"/>
<path id="Vector_16" d="M15.0799 19.6745L12.5471 17.1416C11.8022 16.3968 10.5946 16.3968 9.84977 17.1416C9.10493 17.8865 9.10493 19.0941 9.84977 19.8389L12.3826 22.3718C13.1275 23.1166 14.3351 23.1166 15.0799 22.3718C15.8246 21.6269 15.8246 20.4193 15.0799 19.6745Z" fill="#F5A871"/>
<path id="Vector_17" d="M15.6389 21.0232C15.6389 21.5107 15.4523 21.9992 15.0802 22.3714C14.8964 22.5561 14.6836 22.6948 14.4567 22.7876C14.5523 22.5561 14.5992 22.3095 14.5992 22.0629C14.5992 21.5745 14.4136 21.087 14.0405 20.7148L11.5073 18.1817C10.9467 17.6211 10.1245 17.4823 9.43359 17.7654C9.52734 17.5386 9.66609 17.3257 9.84984 17.142C10.5952 16.3967 11.8027 16.3967 12.548 17.142L15.0802 19.6742C15.4523 20.0464 15.6389 20.5348 15.6389 21.0232Z" fill="#E89A5E"/>
<path id="Vector_18" d="M25.686 6.96458C25.4704 7.05739 25.2679 7.19239 25.0926 7.3677L22.8285 9.63177L21.052 10.0508C20.9132 10.0846 20.7754 10.0996 20.6395 10.0996H20.6338C19.8117 10.0996 19.0663 9.53802 18.8695 8.70177C18.6388 7.72677 19.2417 6.74896 20.2185 6.51833L23.5354 5.73552C23.676 5.70271 23.8157 5.68677 23.9545 5.68677C24.3079 5.68677 24.6482 5.79083 24.936 5.97646C25.2848 6.20052 25.5567 6.54364 25.686 6.96458Z" fill="#F5A871"/>
<path id="Vector_19" d="M25.6852 6.96457C25.4696 7.05738 25.2671 7.19238 25.0918 7.36769L22.8277 9.63175L21.0512 10.0508C20.9124 10.0846 20.7746 10.0996 20.6387 10.0996L22.0252 8.713L24.2302 6.50707C24.4421 6.29519 24.6793 6.11707 24.9352 5.97644C25.284 6.2005 25.5559 6.54363 25.6852 6.96457Z" fill="#E89A5E"/>
<path id="Vector_20" d="M44.9682 36.2535C44.8573 36.2535 44.745 36.2272 44.6403 36.1719C41.6142 34.5728 38.8189 34.5862 38.7873 34.5858C38.7847 34.5858 38.7819 34.5858 38.7792 34.5858C38.3945 34.5858 38.0806 34.2763 38.0762 33.8907C38.0718 33.5024 38.383 33.184 38.7714 33.1796C38.8995 33.1779 41.9582 33.164 45.2972 34.9284C45.6405 35.1099 45.7719 35.5352 45.5904 35.8786C45.4644 36.1172 45.2205 36.2535 44.9682 36.2535Z" fill="#688D97"/>
<path id="Vector_21" d="M42.6373 39.7712C42.3907 39.7712 42.1516 39.6413 42.0228 39.4108C40.4706 36.6321 38.416 34.8897 38.3955 34.8724C38.0981 34.6227 38.0595 34.1792 38.3092 33.8818C38.559 33.5844 39.0026 33.5459 39.2998 33.7955C39.3919 33.8729 41.5738 35.7235 43.2505 38.725C43.4399 39.064 43.3186 39.4924 42.9795 39.6818C42.871 39.7424 42.7534 39.7712 42.6373 39.7712Z" fill="#7DA2B0"/>
<path id="Vector_22" d="M43.0244 25.6334L44.329 26.938C44.7046 27.3136 44.7046 27.9233 44.329 28.2989L34.4728 38.1553C34.0971 38.531 33.4874 38.531 33.1118 38.1553L31.8073 36.8508C31.4316 36.4751 31.4316 35.8655 31.8073 35.4898L41.6635 25.6334C42.039 25.2578 42.6488 25.2578 43.0244 25.6334Z" fill="#FB5FA7"/>
<path id="Vector_23" d="M36.9034 35.7247L35.1908 32.1068L33.3164 33.9813L35.029 37.5992L36.9034 35.7247Z" fill="#24D1F8"/>
<path id="Vector_24" d="M40.7471 31.88L39.0345 28.262L37.1602 30.1364L38.8727 33.7544L40.7471 31.88Z" fill="#24D1F8"/>
<path id="Vector_25" d="M43.0249 25.6334L44.3294 26.938C44.705 27.3136 44.705 27.9233 44.3294 28.2989L42.7187 29.9096L41.0059 26.2915L41.6639 25.6334C42.0395 25.2578 42.6492 25.2578 43.0249 25.6334Z" fill="#24D1F8"/>
<path id="Vector_26" d="M47.2972 37.8063C47.139 37.8063 46.98 37.7533 46.8488 37.6445C46.5689 37.4124 46.2747 37.1894 45.9747 36.9816C45.6555 36.7605 45.5759 36.3224 45.7971 36.0032C46.018 35.684 46.456 35.6043 46.7754 35.8256C47.1086 36.0563 47.4353 36.304 47.7462 36.5619C48.0452 36.8096 48.0867 37.2529 47.8388 37.552C47.6998 37.7196 47.4992 37.8063 47.2972 37.8063Z" fill="#688D97"/>
<path id="Vector_27" d="M27.9146 9.92706L26.0865 11.7552C25.9496 11.8921 25.7696 11.9605 25.5896 11.9605C25.4096 11.9605 25.2296 11.8921 25.0927 11.7552C24.818 11.4805 24.818 11.0352 25.0927 10.7605L28.0918 7.7605C28.4846 8.43831 28.4255 9.30644 27.9146 9.92706Z" fill="#FFBC8A"/>
<path id="Vector_28" d="M29.7916 13.4455L28.7847 14.4524C28.6469 14.5892 28.4669 14.6577 28.2869 14.6577C28.1069 14.6577 27.9269 14.5892 27.79 14.4524C27.5153 14.1777 27.5153 13.7324 27.79 13.4577L29.9688 11.2789C30.3616 11.9567 30.3025 12.8249 29.7916 13.4455Z" fill="#FFBC8A"/>
<path id="Vector_29" d="M32.4955 16.1351L32.4908 16.1408L31.4821 17.1495C31.3443 17.2864 31.1643 17.3548 30.9843 17.3548C30.8043 17.3548 30.6243 17.2864 30.4874 17.1495C30.2127 16.8748 30.2127 16.4295 30.4874 16.1548L32.6661 13.9761C33.058 14.6511 33.0008 15.5154 32.4955 16.1351Z" fill="#FFBC8A"/>
<path id="Vector_30" d="M43.7726 42.3131C43.4792 42.3131 43.2054 42.128 43.1065 41.8345C42.9861 41.4774 42.8465 41.1157 42.6914 40.7596C42.5366 40.4035 42.6997 39.9892 43.0557 39.8344C43.4121 39.6793 43.8261 39.8426 43.981 40.1987C44.1518 40.5913 44.3059 40.9905 44.439 41.3852C44.5631 41.7531 44.3655 42.152 43.9975 42.2761C43.923 42.3012 43.8472 42.3131 43.7726 42.3131Z" fill="#7DA2B0"/>
<path id="Vector_31" d="M0.703481 37.7801C0.501356 37.7801 0.300824 37.6935 0.161793 37.5257C-0.085988 37.2267 -0.0445505 36.7834 0.254418 36.5356C0.543168 36.2962 0.845981 36.0651 1.15423 35.8488C1.47214 35.6258 1.91061 35.7026 2.13373 36.0204C2.35676 36.3383 2.27998 36.7768 1.96207 36.9999C1.68439 37.1948 1.41176 37.4029 1.15179 37.6184C1.02064 37.727 0.861543 37.7801 0.703481 37.7801Z" fill="#688D97"/>
<path id="Vector_32" d="M3.10035 36.1919C2.84666 36.1919 2.60169 36.0542 2.47635 35.8137C2.29672 35.4693 2.43032 35.0446 2.77466 34.8651C6.08703 33.1379 9.10344 33.153 9.22963 33.1536C9.61794 33.158 9.9291 33.4764 9.92469 33.8647C9.92028 34.2526 9.59919 34.5639 9.21472 34.5598C9.17844 34.5592 6.4055 34.5578 3.42491 36.1121C3.32103 36.1662 3.20985 36.1919 3.10035 36.1919Z" fill="#688D97"/>
<path id="Vector_33" d="M4.2268 42.2869C4.15227 42.2869 4.07643 42.275 4.00199 42.2498C3.63402 42.1257 3.43639 41.7268 3.56052 41.3588C3.69299 40.9663 3.84627 40.5688 4.01624 40.1773C4.17093 39.8212 4.58502 39.6579 4.94127 39.8125C5.29743 39.9672 5.46083 40.3813 5.30614 40.7375C5.15183 41.0928 5.01289 41.4531 4.89299 41.8083C4.79399 42.1018 4.52024 42.2869 4.2268 42.2869Z" fill="#7DA2B0"/>
<path id="Vector_34" d="M5.36863 39.737C5.25247 39.737 5.13463 39.7081 5.02607 39.6474C4.68716 39.4578 4.56603 39.0294 4.7556 38.6905C6.43166 35.6939 8.60975 33.8465 8.70163 33.7693C8.9991 33.5196 9.44253 33.5582 9.69228 33.8555C9.94194 34.1528 9.90341 34.596 9.60632 34.8458C9.57885 34.869 7.52497 36.6197 5.98288 39.3768C5.85416 39.6073 5.615 39.7369 5.36863 39.737Z" fill="#7DA2B0"/>
<path id="Vector_35" d="M45.6553 37.2055C46.369 37.2055 46.9475 36.627 46.9475 35.9134C46.9475 35.1997 46.369 34.6212 45.6553 34.6212C44.9417 34.6212 44.3632 35.1997 44.3632 35.9134C44.3632 36.627 44.9417 37.2055 45.6553 37.2055Z" fill="#FB5FA7"/>
<path id="Vector_36" d="M44.4315 36.3263C44.6598 37.0029 45.3927 37.3661 46.0684 37.1381C46.2325 37.0827 46.3776 36.9982 46.5011 36.8916C45.9934 36.8587 45.5308 36.5262 45.3579 36.0138C45.185 35.5013 45.3516 34.9566 45.7357 34.6228C45.5729 34.6128 45.4062 34.6334 45.242 34.6888C44.5664 34.9168 44.2033 35.6497 44.4315 36.3263Z" fill="#FB4297"/>
<path id="Vector_37" d="M43.0226 41.0318C43.7363 41.0318 44.3148 40.4533 44.3148 39.7397C44.3148 39.026 43.7363 38.4475 43.0226 38.4475C42.309 38.4475 41.7305 39.026 41.7305 39.7397C41.7305 40.4533 42.309 41.0318 43.0226 41.0318Z" fill="#24D1F8"/>
<path id="Vector_38" d="M41.7987 40.1531C42.0266 40.8288 42.7595 41.192 43.4361 40.9637C43.6003 40.9083 43.7454 40.8238 43.8688 40.7171C43.3611 40.6843 42.8985 40.3518 42.7259 39.8402C42.5531 39.3278 42.7197 38.783 43.1038 38.4492C42.9409 38.4392 42.7742 38.4598 42.6101 38.5152C41.9336 38.7436 41.5705 39.4765 41.7987 40.1531Z" fill="#21C1F8"/>
<path id="Vector_39" d="M4.97485 25.6073L3.67041 26.9118C3.29476 27.2875 3.29476 27.8971 3.67041 28.2728L13.5265 38.1292C13.9022 38.5049 14.5119 38.5049 14.8875 38.1292L16.192 36.8247C16.5677 36.449 16.5677 35.8394 16.192 35.4637L6.33591 25.6073C5.96026 25.2316 5.35051 25.2316 4.97485 25.6073Z" fill="#FB5FA7"/>
<path id="Vector_40" d="M11.0977 35.6985L12.8103 32.0806L14.6846 33.9549L12.9721 37.5729L11.0977 35.6985Z" fill="#24D1F8"/>
<path id="Vector_41" d="M7.25195 31.8538L8.96458 28.2358L10.839 30.1103L9.12639 33.7282L7.25195 31.8538Z" fill="#24D1F8"/>
<path id="Vector_42" d="M4.97485 25.6073L3.67041 26.9118C3.29476 27.2875 3.29476 27.8971 3.67041 28.2728L5.28113 29.8835L6.99395 26.2653L6.33591 25.6073C5.96026 25.2316 5.35051 25.2316 4.97485 25.6073Z" fill="#24D1F8"/>
<path id="Vector_43" d="M2.34489 37.1794C3.05853 37.1794 3.63705 36.6009 3.63705 35.8872C3.63705 35.1736 3.05853 34.5951 2.34489 34.5951C1.63125 34.5951 1.05273 35.1736 1.05273 35.8872C1.05273 36.6009 1.63125 37.1794 2.34489 37.1794Z" fill="#FB5FA7"/>
<path id="Vector_44" d="M3.56963 36.3002C3.34134 36.9768 2.60841 37.34 1.93275 37.112C1.76859 37.0566 1.62347 36.9721 1.5 36.8654C2.00775 36.8326 2.47031 36.5001 2.64319 35.9876C2.81606 35.4752 2.64947 34.9304 2.26538 34.5967C2.42822 34.5867 2.59491 34.6073 2.75906 34.6627C3.43472 34.8907 3.79791 35.6236 3.56963 36.3002Z" fill="#FB4297"/>
<path id="Vector_45" d="M4.9777 41.0057C5.69134 41.0057 6.26986 40.4272 6.26986 39.7135C6.26986 38.9999 5.69134 38.4214 4.9777 38.4214C4.26407 38.4214 3.68555 38.9999 3.68555 39.7135C3.68555 40.4272 4.26407 41.0057 4.9777 41.0057Z" fill="#24D1F8"/>
<path id="Vector_46" d="M6.203 40.1269C5.97509 40.8025 5.24216 41.1657 4.56556 40.9374C4.40141 40.882 4.25628 40.7976 4.13281 40.6909C4.64056 40.6581 5.10312 40.3255 5.27572 39.8139C5.44859 39.3015 5.282 38.7567 4.89791 38.423C5.06075 38.4129 5.22744 38.4336 5.39159 38.489C6.06809 38.7173 6.43119 39.4503 6.203 40.1269Z" fill="#21C1F8"/>
</g>
<defs>
<clipPath id="clip0_7347_46184">
<rect width="48" height="48" fill="white"/>
</clipPath>
</defs>
</svg>
