<svg width="48" height="48" viewBox="0 0 48 48" fill="none" xmlns="http://www.w3.org/2000/svg">
<g id="fi_2058751" clip-path="url(#clip0_7347_46160)">
<path id="Vector" d="M24.43 7.7553V24.3146C24.43 26.5717 23.9857 28.8065 23.1233 30.8917L22.031 33.5331L21.1058 35.7708V47.9986H7.16056C6.64278 47.9986 6.22306 47.5789 6.22306 47.0611V35.7708L3.06781 32.2505C1.23378 30.205 0.21875 27.5519 0.21875 24.8043V17.1166C0.21875 16.3488 0.529719 15.6544 1.03288 15.1512C1.53509 14.649 2.23044 14.3381 2.99731 14.3381C4.53191 14.3381 5.77588 15.582 5.77588 17.1166V5.5233C5.77588 4.26677 6.74066 3.18705 7.99428 3.12818C9.33388 3.06537 10.4387 4.13158 10.4387 5.45768V2.33243C10.4387 1.68827 10.6994 1.10496 11.1215 0.682897C11.5547 0.250616 12.1561 -0.0124465 12.8178 0.000584778C14.0965 0.025616 15.1034 1.10655 15.1034 2.3854V5.45777C15.1034 4.81455 15.3642 4.23124 15.7862 3.80918C16.2177 3.37568 16.8198 3.11252 17.482 3.12593C18.76 3.15171 19.7662 4.23237 19.7662 5.51074V7.68977C19.7662 7.54587 19.7797 7.40393 19.8057 7.26677C20.0096 6.14552 21.0168 5.30524 22.2105 5.3613C23.4013 5.41727 24.3314 6.39368 24.4212 7.56518C24.4271 7.6278 24.43 7.69155 24.43 7.7553Z" fill="#E89A5E"/>
<g id="Group">
<path id="Vector_2" d="M24.4311 7.75537V24.3147C24.4311 26.5717 23.9868 28.8066 23.1244 30.8917L22.0322 33.5332L21.1069 35.7709V47.9987H16.391V45.0637L13.5564 41.9007C11.5128 39.6215 10.3867 36.6797 10.3867 33.6172V25.9295C10.3867 24.8516 10.8068 23.8386 11.5688 23.0766C12.3308 22.3146 13.3429 21.8954 14.4208 21.8954C14.9597 21.8954 15.4744 22.0016 15.9438 22.1938V14.3362C15.9438 12.3795 17.4447 10.7763 19.3589 10.6865C19.4168 10.6836 19.4738 10.6826 19.5308 10.6826C19.9104 10.6826 20.2755 10.7415 20.6193 10.8517C20.6868 10.0037 21.05 9.21562 21.6574 8.60719C22.3373 7.93012 23.2375 7.55737 24.1946 7.55737C24.2709 7.55737 24.3472 7.56028 24.4225 7.56506C24.4282 7.62787 24.4311 7.69162 24.4311 7.75537Z" fill="#D68A5A"/>
<path id="Vector_3" d="M24.43 7.75286V24.3142C24.43 26.572 23.9865 28.806 23.1248 30.8912L21.1066 35.77V47.9995H18.502V36.0592C18.502 35.8682 18.5395 35.6792 18.6125 35.5028L20.5201 30.8912C21.3819 28.806 21.8254 26.572 21.8254 24.3142V7.75633C21.8254 6.9392 21.4176 6.19651 20.7865 5.76189C21.1915 5.48448 21.6885 5.33242 22.2229 5.36064C23.4719 5.42645 24.43 6.50214 24.43 7.75286Z" fill="#D68A5A"/>
<path id="Vector_4" d="M10.4389 5.45779V16.7189C10.4389 17.1188 10.1144 17.4433 9.71455 17.4433C9.3147 17.4433 8.99023 17.1188 8.99023 16.7189V3.29919C9.84008 3.64691 10.4389 4.48232 10.4389 5.45779Z" fill="#D68A5A"/>
<path id="Vector_5" d="M15.1049 2.33242V16.7189C15.1049 17.1188 14.7804 17.4432 14.3806 17.4432C13.9807 17.4432 13.6562 17.1188 13.6562 16.7189V0.173828C14.5061 0.521547 15.1049 1.35695 15.1049 2.33242Z" fill="#D68A5A"/>
<path id="Vector_6" d="M19.7669 5.45779V13.638C19.7669 14.0388 19.4424 14.3624 19.0425 14.3624C18.6427 14.3624 18.3182 14.0388 18.3182 13.638V3.29919C19.1681 3.64691 19.7669 4.48232 19.7669 5.45779Z" fill="#D68A5A"/>
<path id="Vector_7" d="M11.5123 25.1774C11.3713 25.3116 11.1917 25.3783 11.011 25.3783C10.8208 25.3783 10.6305 25.3029 10.4875 25.1542C9.51983 24.1411 8.21502 23.5829 6.81364 23.5829H5.01533C4.61548 23.5829 4.29102 23.2584 4.29102 22.8586V14.658C5.0472 15.0558 5.5977 15.7928 5.73973 16.6668V22.1341H6.81373C8.61402 22.1341 10.2906 22.8508 11.5355 24.1527C11.8116 24.4424 11.801 24.9012 11.5123 25.1774Z" fill="#D68A5A"/>
</g>
<path id="Vector_8" d="M35.8538 16.5678V33.1272C35.8538 35.3842 35.4095 37.619 34.5471 39.7042L33.4548 42.3456L32.5296 44.5833V47.0615C32.5296 47.5793 32.1099 47.999 31.5921 47.999H18.5844C18.0666 47.999 17.6469 47.5793 17.6469 47.0615V44.5833L14.4916 41.063C12.6576 39.0175 11.6426 36.3645 11.6426 33.6168V25.9291C11.6426 25.1613 11.9535 24.4669 12.4567 23.9638C12.9589 23.4615 13.6543 23.1506 14.4211 23.1506C15.9557 23.1506 17.1997 24.3945 17.1997 25.9291V14.3359C17.1997 13.0794 18.1645 11.9997 19.4181 11.9408C20.7576 11.878 21.8625 12.9442 21.8625 14.2703V11.1451C21.8625 10.5009 22.1233 9.91758 22.5453 9.49552C22.9785 9.06324 23.58 8.80018 24.2416 8.81321C25.5203 8.83824 26.5273 9.91918 26.5273 11.198V14.2704C26.5273 13.6272 26.788 13.0439 27.21 12.6218C27.6416 12.1883 28.2436 11.9251 28.9058 11.9386C30.1838 11.9643 31.19 13.045 31.19 14.3234V16.5024C31.19 16.3585 31.2035 16.2166 31.2296 16.0794C31.4334 14.9581 32.4406 14.1179 33.6344 14.1739C34.889 14.2326 35.8538 15.3134 35.8538 16.5678Z" fill="#FDD1A7"/>
<path id="Vector_9" d="M35.8519 16.5558V33.1268C35.8519 35.3846 35.4084 37.6187 34.5466 39.7038L32.5285 44.5827V47.0626C32.5285 47.5803 32.1088 48.0001 31.591 48.0001H29.9238V44.8718C29.9238 44.6808 29.9614 44.4918 30.0344 44.3154L31.942 39.7038C32.8037 37.6187 33.2473 35.3847 33.2473 33.1268V16.5689C33.2473 15.7518 32.8395 15.0091 32.2084 14.5745C32.6218 14.2913 33.1311 14.1388 33.6782 14.1753C34.9118 14.2575 35.8519 15.3197 35.8519 16.5558Z" fill="#FFBC8A"/>
<path id="Vector_10" d="M21.8627 14.2707V25.5318C21.8627 25.9317 21.5382 26.2561 21.1384 26.2561C20.7385 26.2561 20.4141 25.9317 20.4141 25.5318V12.1121C21.2639 12.4598 21.8627 13.2952 21.8627 14.2707Z" fill="#FFBC8A"/>
<path id="Vector_11" d="M26.5265 11.1453V25.5318C26.5265 25.9316 26.202 26.2561 25.8022 26.2561C25.4024 26.2561 25.0779 25.9316 25.0779 25.5318V8.98669C25.9276 9.33441 26.5265 10.1698 26.5265 11.1453Z" fill="#FFBC8A"/>
<path id="Vector_12" d="M31.1889 14.2707V25.5318C31.1889 25.9317 30.8644 26.2561 30.4645 26.2561C30.0647 26.2561 29.7402 25.9317 29.7402 25.5318V12.1121C30.5901 12.4598 31.1889 13.2952 31.1889 14.2707Z" fill="#FFBC8A"/>
<path id="Vector_13" d="M17.1986 25.9287V34.5271C17.1986 34.927 16.8751 35.2514 16.4743 35.2514C16.0745 35.2514 15.75 34.927 15.75 34.5271V23.489C16.6133 23.9604 17.1986 24.876 17.1986 25.9287Z" fill="#FFBC8A"/>
<path id="Vector_14" d="M37.704 10.8351L36.5848 9.98943C36.1992 9.69806 36.0883 9.16649 36.3254 8.74527L39.6074 2.91309C39.8942 2.40337 40.5647 2.26359 41.0313 2.61618L43.5826 4.54406C44.0492 4.89665 44.0978 5.57981 43.6858 5.99493L38.9717 10.7449C38.6312 11.088 38.0896 11.1265 37.704 10.8351Z" fill="#FEE265"/>
<path id="Vector_15" d="M43.6855 5.9955L38.9712 10.7446C38.6308 11.0878 38.0894 11.1266 37.7033 10.8349L36.5845 9.98944C36.549 9.96263 36.5161 9.93413 36.4863 9.9031C36.8605 10.1144 37.3347 10.0539 37.6443 9.74194L42.3578 4.99229C42.7703 4.57772 42.7214 3.89429 42.2545 3.5415L43.5821 4.54472C44.0484 4.89704 44.0972 5.58038 43.6855 5.9955Z" fill="#FDD330"/>
<path id="Vector_16" d="M31.8376 8.90423L30.4967 8.49229C30.0347 8.35035 29.7487 7.88873 29.8275 7.41191L30.9168 0.809009C31.0121 0.231978 31.5943 -0.128772 32.1533 0.0429784L35.2101 0.981978C35.7692 1.15373 36.0485 1.77904 35.8034 2.31004L32.9981 8.38588C32.7955 8.82473 32.2996 9.04616 31.8376 8.90423Z" fill="#FEE265"/>
<path id="Vector_17" d="M35.8037 2.31049L32.9981 8.38549C32.7956 8.82443 32.3001 9.04605 31.8376 8.90393L30.497 8.49218C30.4546 8.47915 30.4139 8.46358 30.3752 8.44465C30.7991 8.51524 31.2241 8.29624 31.4083 7.89715L34.2131 1.82187C34.4589 1.29115 34.1792 0.66574 33.6197 0.493896L35.2104 0.982521C35.769 1.15408 36.0487 1.77949 35.8037 2.31049Z" fill="#FDD330"/>
<path id="Vector_18" d="M39.9489 16.6511L39.1864 15.4737C38.9237 15.068 39.0013 14.5305 39.3682 14.2158L44.4469 9.85795C44.8907 9.47704 45.5686 9.57501 45.8865 10.066L47.6246 12.75C47.9426 13.241 47.7546 13.8995 47.2255 14.1487L41.171 16.9999C40.7337 17.2058 40.2116 17.0567 39.9489 16.6511Z" fill="#FEE265"/>
<path id="Vector_19" d="M47.2262 14.1492L41.1719 16.9995C40.7346 17.2055 40.2126 17.0569 39.9497 16.6507L39.1875 15.4736C39.1633 15.4363 39.1421 15.3982 39.1248 15.3589C39.404 15.6855 39.8704 15.7909 40.268 15.6035L46.3218 12.7524C46.8512 12.504 47.0389 11.845 46.7208 11.3538L47.6253 12.7505C47.9428 13.241 47.7551 13.8999 47.2262 14.1492Z" fill="#FDD330"/>
</g>
<defs>
<clipPath id="clip0_7347_46160">
<rect width="48" height="48" fill="white"/>
</clipPath>
</defs>
</svg>
