<svg width="48" height="48" viewBox="0 0 48 48" fill="none" xmlns="http://www.w3.org/2000/svg">
<g id="fi_9484251">
<path id="Vector" d="M37.1247 6.09396C36.4872 5.88771 35.8122 5.75646 35.1185 5.68146C26.2685 4.78146 23.9997 13.219 23.9997 13.219C23.9997 13.219 21.731 4.78146 12.8997 5.68146C4.68725 6.50646 0.374746 16.8565 5.756 25.5565C7.2935 28.0502 9.6935 30.7315 12.2622 33.2252C17.4185 38.2315 23.231 42.394 23.9997 42.394C25.1622 42.394 37.5935 33.0752 42.2435 25.5752C47.1747 17.6065 43.9872 8.25021 37.1247 6.09396Z" fill="#FC4F4F"/>
<path id="Vector_2" opacity="0.15" d="M42.243 25.5563C47.1742 17.6063 43.9867 8.25 37.1242 6.09375C37.1242 6.09375 43.968 12.6938 40.0305 19.4813C36.093 26.2688 22.9305 34.7062 21.0742 35.0062C19.5367 35.25 15.6367 34.8938 12.2617 33.2438C17.418 38.25 23.2305 42.4125 23.9992 42.4125C25.1617 42.3937 37.593 33.075 42.243 25.5563Z" fill="black"/>
<path id="Vector_3" opacity="0.3" d="M11.2932 13.8035C12.9564 11.8335 13.4965 9.5543 12.4996 8.71272C11.5028 7.87114 9.34646 8.78587 7.68334 10.7558C6.02022 12.7258 5.4801 15.005 6.47695 15.8466C7.47379 16.6881 9.63012 15.7734 11.2932 13.8035Z" fill="white"/>
</g>
</svg>
