<svg width="48" height="48" viewBox="0 0 48 48" fill="none" xmlns="http://www.w3.org/2000/svg">
<g id="fi_6597733">
<g id="Group">
<g id="Group_2">
<g id="Group_3">
<path id="Vector" d="M20.463 13.3763L17.0546 0.745787C16.9358 0.305771 16.5366 0 16.0809 0H14.0833C13.4194 0 12.9366 0.630374 13.1096 1.27128L16.3762 13.3763H20.463Z" fill="#FFC344"/>
</g>
<g id="Group_4">
<path id="Vector_2" d="M20.4627 13.3763L17.0543 0.745787C16.9355 0.305771 16.5364 0 16.0806 0H14.0831C14.0787 0 14.0747 0.000676056 14.0703 0.000772636C14.5185 0.00878873 14.9088 0.311565 15.026 0.745787L18.4344 13.3763H20.4627Z" fill="#F6AB31"/>
</g>
</g>
<g id="Group_5">
<g id="Group_6">
<path id="Vector_3" d="M31.6239 13.3763L34.8905 1.27128C35.0635 0.630374 34.5806 0 33.9168 0H31.9192C31.4634 0 31.0643 0.305771 30.9455 0.745787L27.5371 13.3763H31.6239Z" fill="#FFC344"/>
</g>
</g>
<g id="Group_7">
<path id="Vector_4" d="M32.7354 1.27128L29.4688 13.3763H31.6257L34.8923 1.27128C35.0652 0.630374 34.5824 0 33.9186 0H31.921C31.8909 0 31.8611 0.00154527 31.8316 0.00415292C32.4587 0.046841 32.9022 0.653264 32.7354 1.27128Z" fill="#F6AB31"/>
</g>
<g id="Group_8">
<g id="Group_9">
<path id="Vector_5" d="M33.4664 10.6553C30.2132 10.6553 27.4196 11.7597 25.0366 13.7449C24.4352 14.2459 23.5662 14.2459 22.9648 13.7449C20.5819 11.7597 17.7883 10.6553 14.5352 10.6553C8.00051 10.6553 2.70312 15.9528 2.70312 22.4873C2.70312 25.7971 4.06209 28.7895 6.25261 30.9369C7.91272 32.5643 17.7285 42.7212 22.0079 47.1538C23.097 48.282 24.9045 48.282 25.9937 47.1538C30.2731 42.7213 40.0889 32.5643 41.7491 30.9369C43.9395 28.7894 45.2985 25.7971 45.2985 22.4873C45.2984 15.9528 40.0011 10.6553 33.4664 10.6553Z" fill="#FFE177"/>
</g>
<g id="Group_10">
<g id="Group_11">
<path id="Vector_6" d="M33.4673 10.6553C32.9538 10.6553 32.4516 10.683 31.9608 10.7371C37.8398 11.4258 42.4017 16.4235 42.4017 22.4873C42.4017 25.7972 41.0426 28.7895 38.8522 30.9369C37.1921 32.5643 27.3762 42.7213 23.0968 47.1538C22.9306 47.326 22.7473 47.4716 22.5527 47.5912C23.6331 48.2553 25.0715 48.1098 25.9944 47.1538C30.2739 42.7213 40.0897 32.5643 41.7498 30.9369C43.9403 28.7895 45.2993 25.7971 45.2993 22.4873C45.2992 15.9528 40.0019 10.6553 33.4673 10.6553Z" fill="#FFD15B"/>
</g>
</g>
</g>
<g id="Group_12">
<g id="Group_13">
<path id="Vector_7" d="M27.502 18.3491C26.9017 18.3491 26.3864 18.5529 25.9466 18.9191C25.8357 19.0116 25.6753 19.0116 25.5644 18.9191C25.1247 18.5528 24.6093 18.3491 24.0092 18.3491C22.8036 18.3491 21.8262 19.3265 21.8262 20.5321C21.8262 21.1428 22.0769 21.6948 22.4811 22.091C22.7873 22.3913 24.5984 24.2652 25.3879 25.083C25.5889 25.2912 25.9223 25.2912 26.1233 25.083C26.9128 24.2652 28.7239 22.3913 29.0301 22.091C29.4342 21.6948 29.685 21.1427 29.685 20.5321C29.6849 19.3265 28.7076 18.3491 27.502 18.3491Z" fill="#FFC344"/>
</g>
<g id="Group_14">
<g id="Group_15">
<path id="Vector_8" d="M27.502 18.3491C26.9322 18.3491 26.4396 18.5346 26.015 18.8667C26.4873 19.2671 26.7874 19.8645 26.7874 20.5321C26.7874 21.1428 26.5367 21.6948 26.1325 22.091C25.9321 22.2874 25.0879 23.1572 24.3069 23.9643C24.7198 24.391 25.115 24.8001 25.388 25.083C25.589 25.2912 25.9224 25.2912 26.1234 25.083C26.9129 24.2652 28.7239 22.3913 29.0302 22.0911C29.4343 21.6949 29.6851 21.1428 29.6851 20.5322C29.685 19.3265 28.7076 18.3491 27.502 18.3491Z" fill="#F6AB31"/>
</g>
</g>
</g>
<path id="Vector_9" d="M19.0434 37.4561C17.9186 37.4561 16.8202 36.9853 16.1056 36.1968C15.837 35.9004 15.8595 35.4423 16.1559 35.1736C16.4524 34.905 16.9104 34.9274 17.1791 35.2239C17.6238 35.7145 18.3206 36.0074 19.0435 36.0074C19.7811 36.0074 20.3032 35.5517 20.3818 35.1111C20.459 34.6787 20.098 34.2813 19.391 34.0205C18.3266 33.6279 17.3819 33.2074 17.3422 33.1897C17.3073 33.1741 17.2737 33.1558 17.2417 33.135C16.5603 32.6907 16.2093 31.9115 16.3256 31.1012C16.4501 30.2342 17.0862 29.5274 17.9858 29.2563C19.798 28.71 21.2923 29.9427 21.355 29.9954C21.6613 30.2529 21.7008 30.7097 21.4434 31.0159C21.1868 31.3211 20.7321 31.3615 20.426 31.1069C20.405 31.0898 19.4501 30.3281 18.4037 30.6432C17.886 30.7992 17.7808 31.1594 17.7596 31.3069C17.7261 31.5403 17.8132 31.756 17.9935 31.8935C18.2174 31.9917 19.0241 32.3409 19.8924 32.6612C21.5516 33.2731 21.9698 34.4594 21.808 35.3655C21.5951 36.5574 20.4067 37.4561 19.0434 37.4561Z" fill="#FEB237"/>
<path id="Vector_10" d="M29.2855 37.4561C28.1605 37.4561 27.0622 36.9853 26.3477 36.1968C26.0792 35.9004 26.1017 35.4424 26.3981 35.1737C26.6945 34.905 27.1525 34.9276 27.4212 35.224C27.8658 35.7145 28.5626 36.0073 29.2855 36.0073C30.0232 36.0073 30.5453 35.5517 30.6239 35.1111C30.7011 34.6787 30.34 34.2813 29.6331 34.0205C28.5687 33.6279 27.6239 33.2074 27.5842 33.1896C27.5493 33.174 27.5157 33.1557 27.4836 33.1349C26.8023 32.6906 26.4514 31.9113 26.5677 31.1011C26.6922 30.2341 27.3283 29.5272 28.2279 29.2561C30.0402 28.7099 31.5343 29.9425 31.5971 29.9953C31.9034 30.2527 31.9429 30.7096 31.6855 31.0158C31.429 31.321 30.9743 31.3614 30.6681 31.1068C30.6471 31.0897 29.6922 30.328 28.6458 30.6431C28.1281 30.7991 28.0229 31.1592 28.0017 31.3068C27.9682 31.5402 28.0552 31.7559 28.2356 31.8933C28.4595 31.9916 29.2663 32.3408 30.1345 32.6611C31.7936 33.273 32.2119 34.4593 32.0501 35.3654C31.8372 36.5575 30.6487 37.4561 29.2855 37.4561Z" fill="#FEB237"/>
<path id="Vector_11" d="M11.5978 31.5811C11.4095 31.5811 11.2215 31.5082 11.0795 31.3627C9.7353 29.9859 8.85054 29.0886 8.44973 28.6955C6.76799 27.0468 5.8418 24.8421 5.8418 22.4874C5.8418 20.9535 6.24869 19.4444 7.01842 18.1232C7.21979 17.7775 7.66329 17.6607 8.00894 17.862C8.3546 18.0634 8.47156 18.5068 8.27019 18.8525C7.62929 19.9524 7.29049 21.2093 7.29049 22.4873C7.29049 24.4496 8.06235 26.2869 9.46391 27.6609C9.87235 28.0614 10.7646 28.9662 12.1161 30.3506C12.3956 30.6368 12.3901 31.0954 12.1038 31.3749C11.9628 31.5126 11.7802 31.5811 11.5978 31.5811Z" fill="#FFF0AD"/>
<path id="Vector_12" d="M9.92423 16.7158C9.69775 16.7158 9.47484 16.61 9.33355 16.4115C9.10156 16.0856 9.17757 15.6334 9.50353 15.4014C10.9803 14.3499 12.7202 13.7942 14.5347 13.7942C14.9349 13.7942 15.2591 14.1185 15.2591 14.5185C15.2591 14.9186 14.9349 15.2429 14.5347 15.2429C13.0231 15.2429 11.5739 15.7058 10.3437 16.5816C10.2162 16.6722 10.0694 16.7158 9.92423 16.7158Z" fill="#FFF0AD"/>
<g id="Group_16">
<path id="Vector_13" d="M18.8962 25.9635C18.4961 25.9635 18.1719 25.6392 18.1719 25.2392V18.3492C18.1719 17.9492 18.4961 17.6249 18.8962 17.6249C19.2963 17.6249 19.6206 17.9492 19.6206 18.3492V25.2392C19.6206 25.6392 19.2963 25.9635 18.8962 25.9635Z" fill="#FEB237"/>
<path id="Vector_14" d="M23.9997 37.4561C23.5996 37.4561 23.2754 37.1318 23.2754 36.7318V29.8418C23.2754 29.4417 23.5996 29.1174 23.9997 29.1174C24.3999 29.1174 24.7241 29.4417 24.7241 29.8418V36.7318C24.7241 37.1318 24.3998 37.4561 23.9997 37.4561Z" fill="#FEB237"/>
</g>
</g>
</g>
</svg>
