<svg width="48" height="48" viewBox="0 0 48 48" fill="none" xmlns="http://www.w3.org/2000/svg">
<g id="fi_9770596">
<path id="Vector" d="M37.35 18.75C36.2475 9.8325 29.25 6 29.25 6C29.25 6 31.5 9 29.25 12C29.25 8.25 23.25 6 26.25 0.75C21.6525 1.8975 17.25 6.75 17.25 12.75C15 12 14.25 9.75 14.25 9.75C14.25 9.75 11.355 13.23 10.6575 18.75C8.0625 20.7375 6.375 23.8575 6.375 27.375C6.375 39.285 22.0725 46.665 22.74 46.9725C23.1375 47.16 23.565 47.25 24 47.25C24.435 47.25 24.855 47.16 25.26 46.9725C25.9275 46.665 41.625 39.285 41.625 27.375C41.625 23.865 39.945 20.7375 37.35 18.75Z" fill="#FFD74B"/>
<path id="Vector_2" d="M37.35 18.75C36.675 13.32 33.825 9.78003 31.6875 7.83753V9.92253C31.56 10.89 31.1925 11.91 30.45 12.9L27.75 16.5V12C27.75 11.04 27.0375 10.065 26.205 8.94003C25.155 7.51503 23.8425 5.72253 23.9025 3.40503C21.075 5.22003 18.7425 8.64753 18.7425 12.75V14.8275L16.77 14.1675C15.66 13.8 14.835 13.1625 14.2275 12.5025C13.44 13.9275 12.4875 16.1475 12.135 18.93L12.06 19.5525L11.565 19.935C9.2175 21.735 7.875 24.4425 7.875 27.3675C7.875 37.53 19.3725 44.61 23.58 46.86C24.0975 47.1375 24.7125 47.2125 25.245 46.9725H25.2525C25.92 46.6575 41.6175 39.2775 41.6175 27.3675C41.6175 23.8575 39.9375 20.73 37.3425 18.7425L37.35 18.75Z" fill="#FFC839"/>
<path id="Vector_3" d="M30.75 19.5C27.885 19.5 25.38 21.03 24 23.3175C22.62 21.03 20.115 19.5 17.25 19.5C12.9 19.5 9.375 23.025 9.375 27.375C9.375 37.5 24 44.25 24 44.25C24 44.25 38.625 37.5 38.625 27.375C38.625 23.025 35.1 19.5 30.75 19.5Z" fill="#F03C6E"/>
<path id="Vector_4" d="M10.5 29.625C10.5 25.275 14.025 21.75 18.375 21.75C21.24 21.75 23.745 23.28 25.125 25.5675C26.505 23.28 29.01 21.75 31.875 21.75C34.515 21.75 36.8475 23.055 38.2725 25.05C37.2825 21.84 34.29 19.5 30.75 19.5C27.885 19.5 25.38 21.03 24 23.3175C22.62 21.03 20.115 19.5 17.25 19.5C12.9 19.5 9.375 23.025 9.375 27.375C9.375 29.6775 10.14 31.8075 11.31 33.7275C10.8 32.4375 10.5 31.065 10.5 29.625Z" fill="#F55F91"/>
</g>
</svg>
