<svg width="48" height="48" viewBox="0 0 48 48" fill="none" xmlns="http://www.w3.org/2000/svg">
<g id="fi_2042161">
<path id="Vector" d="M44 20.2382C44 21.6807 42.8701 23.7295 37.4864 25.299C33.7228 26.3959 28.7563 27 23.5 27C18.2437 27 13.2772 26.3959 9.51355 25.299C4.1299 23.7295 3 21.6807 3 20.2382C3 18.027 5.33908 17.8332 7.28178 17.6183C8.36123 17.4989 9.70414 17.3509 11.1968 17H35.8032C37.2959 17.3509 38.6388 17.4989 39.7182 17.6183C41.6649 17.8332 44 18.0346 44 20.2382Z" fill="#474F54"/>
<path id="Vector_2" d="M44 20.2382C44 21.6807 42.8977 23.7295 37.6453 25.299C33.9734 26.3959 29.1281 27 24 27V17H36.0031C37.4594 17.3509 38.7695 17.4989 39.8227 17.6183C41.7219 17.8332 44 18.0346 44 20.2382Z" fill="#32393F"/>
<path id="Vector_3" d="M38 34H42V37H38V34Z" fill="#32393F"/>
<path id="Vector_4" d="M5 34H9V37H5V34Z" fill="#474F54"/>
<path id="Vector_5" d="M21 34H26V37H21V34Z" fill="#474F54"/>
<path id="Vector_6" d="M24 34H26V37H24V34Z" fill="#32393F"/>
<path id="Vector_7" d="M15 44C11.1402 44 8 40.8598 8 37C8 33.1402 11.1402 30 15 30C18.8598 30 22 33.1402 22 37C22 40.8598 18.8598 44 15 44Z" fill="#575F64"/>
<path id="Vector_8" d="M32 44C28.1402 44 25 40.8598 25 37C25 33.1402 28.1402 30 32 30C35.8598 30 39 33.1402 39 37C39 40.8598 35.8598 44 32 44Z" fill="#474F54"/>
<path id="Vector_9" d="M37 15V20.5538C36.4019 20.6505 31.8078 22 23.5 22C15.2265 22 10.5531 20.644 10 20.5538V15.0007H23.5L37 15Z" fill="#57D9D4"/>
<path id="Vector_10" d="M37 15V20.5538C36.4241 20.6505 32.0001 22 24 22V15.0007L37 15Z" fill="#26BFBF"/>
<path id="Vector_11" d="M37 7.67066V14.4003C33.481 15.392 28.7298 16 23.5 16C18.271 16 13.519 15.392 10 14.4011V7.67066C10 5.09557 12.2025 3 14.9091 3H19.8182C21.2835 3 22.6 3.61497 23.5 4.58647C24.4 3.61497 25.7165 3 27.1818 3H32.0909C34.7975 3 37 5.09557 37 7.67066Z" fill="#575F64"/>
<path id="Vector_12" d="M37 7.67066V14.4003C33.6113 15.392 29.0361 16 24 16V4.58647C24.8667 3.61497 26.1344 3 27.5455 3H32.2727C34.879 3 37 5.09557 37 7.67066Z" fill="#474F54"/>
</g>
</svg>
