<svg width="48" height="48" viewBox="0 0 48 48" fill="none" xmlns="http://www.w3.org/2000/svg">
<g id="fi_3656836" clip-path="url(#clip0_8192_12468)">
<g id="Group">
<g id="Group_2">
<path id="Vector" fill-rule="evenodd" clip-rule="evenodd" d="M20.5752 16.8872C19.357 17.8254 18.2536 18.9558 17.3145 20.2699C13.4214 25.7131 13.405 32.7667 16.7287 38.1221C16.7287 38.1248 16.7314 38.1276 16.7314 38.1304C17.7225 39.7271 19.012 41.1729 20.5835 42.38C20.5889 42.3828 20.5945 42.3883 20.5999 42.391C20.7313 42.4953 20.8682 42.5941 21.0051 42.6928C28.2027 47.8643 38.2203 46.2073 43.381 38.9945C48.0189 32.5115 47.1537 23.746 41.7055 18.2837C41.0895 17.6691 40.4188 17.0958 39.6906 16.5717C38.9623 16.0477 38.204 15.595 37.4237 15.2109C33.7989 13.4166 29.7168 13.1149 25.9853 14.1684C25.9606 14.1767 25.8183 14.204 25.7936 14.2096L25.8977 17.3427L29.654 18.4758C32.1262 18.3194 34.675 18.986 36.8461 20.5472C41.8535 24.144 43.0034 31.1262 39.4141 36.1442C36.2519 40.5695 30.4615 41.9879 25.7033 39.7985C25.0627 39.505 24.4411 39.1456 23.8498 38.7176C23.0011 38.1113 22.2674 37.4062 21.6431 36.6298C18.5877 32.8163 18.2976 27.2908 21.2817 23.1206C22.1168 21.9518 23.1352 20.9916 24.2714 20.2536C24.3371 20.2098 24.6766 20.0232 24.745 19.9793L23.8279 16.9587L20.6794 16.7996C20.6546 16.8158 20.5999 16.868 20.5752 16.8872Z" fill="#FECE85"/>
</g>
<g id="Group_3">
<path id="Vector_2" fill-rule="evenodd" clip-rule="evenodd" d="M12.3279 2.29688C11.8516 2.29688 11.8132 2.51362 11.5476 2.90869L9.85561 5.29556C9.59555 5.70712 9.60099 5.81137 9.90212 6.23109L13.4011 11.1118L15.98 12.7744L18.6658 11.1118L22.1674 6.23109C22.4658 5.81137 22.4741 5.70712 22.2139 5.29556L20.522 2.90869C20.2564 2.51362 20.2181 2.29688 19.7417 2.29688H19.2791H18.6686H16.0349H13.4011H12.7906H12.3279Z" fill="#2ED1E2"/>
</g>
<g id="Group_4">
<path id="Vector_3" fill-rule="evenodd" clip-rule="evenodd" d="M16.0352 10.895C15.1372 10.895 14.2583 10.9691 13.4015 11.1118C5.79863 12.3683 0 18.9885 0 26.964C0 35.8393 7.17844 43.0328 16.0352 43.0328C17.6204 43.0328 19.1344 42.8078 20.5826 42.3798C19.0111 41.1727 17.7217 39.7268 16.7305 38.1301C16.7305 38.1274 16.7278 38.1246 16.7278 38.1219C16.4732 38.1384 16.2952 38.1438 16.0352 38.1438C9.87516 38.1438 4.87875 33.1396 4.87875 26.964C4.87875 20.791 9.87525 15.7868 16.0352 15.7868C17.6916 15.7868 19.2658 16.149 20.6784 16.7992C22.2718 17.529 23.6626 18.6264 24.7441 19.9789C26.2746 21.8939 27.1889 24.3219 27.1889 26.964C27.1889 31.1149 24.9959 34.7007 21.6422 36.6294C22.2664 37.4058 23.0002 38.1109 23.8489 38.7172C24.4403 39.1452 25.0617 39.5046 25.7023 39.7981C29.5407 36.8626 32.0704 32.1766 32.0704 26.9639C32.0704 23.8472 31.186 20.9391 29.6529 18.4754C28.629 16.832 27.3203 15.3861 25.7927 14.2092C23.7475 12.6399 21.3164 11.548 18.6662 11.1118C17.812 10.9692 16.9305 10.895 16.0352 10.895Z" fill="#FECE85"/>
</g>
<g id="Group_5">
<path id="Vector_4" fill-rule="evenodd" clip-rule="evenodd" d="M37.418 9.19946L37.4234 15.2105L38.7047 17.9842L41.7053 18.2833L47.3862 16.3601C47.8735 16.1955 47.9392 16.1131 47.9666 15.6275L47.9803 12.7002C47.994 12.2255 48.0898 12.0253 47.701 11.7454L47.3259 11.4765L46.8304 11.1199L44.6894 9.58355L42.5484 8.04446L42.0502 7.68783L41.6751 7.41896C41.289 7.13911 41.1303 7.29549 40.6867 7.46011L37.9245 8.41205C37.4727 8.59589 37.418 8.68364 37.418 9.19946Z" fill="#2ED1E2"/>
</g>
<g id="Group_6">
<path id="Vector_5" fill-rule="evenodd" clip-rule="evenodd" d="M28.668 45.6147C34.212 46.1963 39.9011 43.8588 43.3808 38.9945C48.0186 32.5115 47.1535 23.746 41.7026 18.2836C41.0894 17.6691 40.4186 17.0957 39.6903 16.5717C38.9621 16.0477 38.2037 15.595 37.4235 15.2109C37.2154 15.1066 37.0046 15.0078 36.7937 14.9146C37.2209 16.8927 37.4946 18.975 37.5932 21.1314C41.9599 24.8625 42.8168 31.3867 39.4138 36.144C37.8149 38.3799 35.548 39.8477 33.0812 40.4705C31.8109 42.5337 30.3216 44.2785 28.668 45.6147Z" fill="#FDB440"/>
</g>
<g id="Group_7">
<path id="Vector_6" fill-rule="evenodd" clip-rule="evenodd" d="M11.9473 42.5059C13.2505 42.8488 14.622 43.0327 16.0348 43.0327C17.62 43.0327 19.134 42.8077 20.5822 42.3797C19.0107 41.1726 17.7212 39.7267 16.7301 38.13C16.7301 38.1273 16.7274 38.1245 16.7274 38.1218C16.4728 38.1383 16.2948 38.1437 16.0348 38.1437C15.7336 38.1437 15.4352 38.13 15.1423 38.1081C14.206 39.7705 13.13 41.2521 11.9473 42.5059ZM18.8328 16.1406C19.4707 16.3052 20.0895 16.5274 20.6781 16.799C22.2715 17.5287 23.6623 18.6262 24.7438 19.9787C26.2742 21.8936 27.1886 24.3217 27.1886 26.9637C27.1886 31.1147 24.9956 34.7004 21.6419 36.6292C22.266 37.4056 22.9998 38.1107 23.8485 38.717C24.4399 39.1449 25.0614 39.5044 25.702 39.7979C29.5404 36.8623 32.07 32.1764 32.07 26.9636C32.07 23.847 31.1857 20.9389 29.6526 18.4751C28.6287 16.8318 27.32 15.3859 25.7924 14.2089C23.7472 12.6397 21.3161 11.5478 18.6659 11.1115C18.3592 11.0594 18.0498 11.0183 17.735 10.9854C18.2141 12.6206 18.5865 14.3463 18.8328 16.1406Z" fill="#FDB440"/>
</g>
<g id="Group_8">
<path id="Vector_7" fill-rule="evenodd" clip-rule="evenodd" d="M11.5481 2.90869L9.85608 5.29284V5.29556C9.7822 5.4135 9.72736 5.50678 9.69727 5.59191H22.3732C22.3431 5.50688 22.2884 5.41359 22.2144 5.29556L20.5225 2.90869C20.2569 2.51362 20.2185 2.29688 19.7422 2.29688H19.2795H18.669H16.0353H13.4016H12.7911H12.3285C12.0218 2.29688 11.8959 2.38744 11.7727 2.5575C11.707 2.65078 11.6413 2.766 11.5482 2.90597L11.5481 2.90869Z" fill="#99E6FC"/>
</g>
<g id="Group_9">
<path id="Vector_8" fill-rule="evenodd" clip-rule="evenodd" d="M37.623 8.56017L47.5147 16.3134C47.6899 16.2476 47.794 16.1899 47.8597 16.0994C47.9309 15.9978 47.9528 15.858 47.9665 15.6275L47.9802 12.7002C47.9939 12.2255 48.0897 12.0253 47.7009 11.7454L47.3258 11.4765L46.8302 11.1199L44.6893 9.58355L42.5483 8.04446L42.05 7.68783L41.6749 7.41896C41.2889 7.13911 41.1301 7.29549 40.6866 7.46011L37.9242 8.41205C37.7927 8.46417 37.6942 8.51086 37.623 8.56017Z" fill="#99E6FC"/>
</g>
<g id="Group_10">
<path id="Vector_9" fill-rule="evenodd" clip-rule="evenodd" d="M16.9297 2.29688L18.5231 4.75238C18.7448 5.13647 18.7722 5.27634 18.5915 5.59191H22.3723C22.3423 5.50688 22.2875 5.41359 22.2135 5.29556L20.5216 2.90869C20.256 2.51362 20.2177 2.29688 19.7413 2.29688H19.2787H18.6682H16.9297Z" fill="#2ED1E2"/>
</g>
<g id="Group_11">
<path id="Vector_10" fill-rule="evenodd" clip-rule="evenodd" d="M18.4772 5.77545L15.1016 10.9196C15.4109 10.9031 15.723 10.895 16.0351 10.895C16.9332 10.895 17.812 10.9663 18.6688 11.109L22.1678 6.23098C22.1678 6.23098 22.1678 6.23098 22.1678 6.22827C22.1705 6.22555 22.176 6.22002 22.1788 6.21458C22.3841 5.92648 22.4443 5.78933 22.3731 5.5918H18.5922C18.5622 5.64655 18.5238 5.70692 18.4772 5.77545Z" fill="#00B1CD"/>
</g>
<g id="Group_12">
<path id="Vector_11" fill-rule="evenodd" clip-rule="evenodd" d="M39.6907 16.5712C40.4189 17.0925 41.0924 17.6658 41.7056 18.2832L47.3865 16.36C47.433 16.3435 47.4769 16.3271 47.5152 16.3134L45.0157 14.3545C44.9445 14.3874 44.8541 14.4231 44.7419 14.4587L39.3047 16.2996C39.4333 16.3875 39.5619 16.4779 39.6907 16.5712Z" fill="#00B1CD"/>
</g>
<g id="Group_13">
<path id="Vector_12" fill-rule="evenodd" clip-rule="evenodd" d="M45.325 13.7264C45.3031 14.1023 45.2593 14.2367 45.0156 14.3546L47.5152 16.3136C47.6877 16.2477 47.7917 16.1901 47.8574 16.1023L47.8601 16.0996C47.9312 15.9981 47.9532 15.8582 47.9669 15.6278L47.9806 12.7004C47.9942 12.2258 48.0901 12.0255 47.7013 11.7457L47.3262 11.4768L46.8306 11.1202L45.1168 9.89111C45.4371 10.1463 45.3495 10.3493 45.3385 10.7993L45.325 13.7264Z" fill="#2ED1E2"/>
</g>
</g>
</g>
<defs>
<clipPath id="clip0_8192_12468">
<rect width="48" height="48" fill="white"/>
</clipPath>
</defs>
</svg>
