<svg width="146" height="116" viewBox="0 0 146 116" fill="none" xmlns="http://www.w3.org/2000/svg">
<path d="M131.769 115.465H35.1025C27.5072 115.465 21.293 109.377 21.293 101.936V34.2885C21.293 26.8473 27.5072 20.759 35.1025 20.759H131.769C139.364 20.759 145.578 26.8473 145.578 34.2885V101.936C145.578 109.377 139.364 115.465 131.769 115.465Z" fill="#E11D48"/>
<path d="M111.055 95.1709H14.3886C6.79337 95.1709 0.579102 89.0827 0.579102 81.6415V13.9944C0.579102 6.5532 6.79337 0.464966 14.3886 0.464966H111.055C118.65 0.464966 124.865 6.5532 124.865 13.9944V81.6415C124.865 89.0827 118.65 95.1709 111.055 95.1709Z" fill="#FF698A"/>
<path d="M83.4365 27.5238C83.4365 30.2149 84.5277 32.7959 86.4701 34.6988C88.4124 36.6018 91.0468 37.6708 93.7936 37.6708C96.5405 37.6708 99.1749 36.6018 101.117 34.6988C103.06 32.7959 104.151 30.2149 104.151 27.5238C104.151 24.8326 103.06 22.2517 101.117 20.3487C99.1749 18.4458 96.5405 17.3767 93.7936 17.3767C91.0468 17.3767 88.4124 18.4458 86.4701 20.3487C84.5277 22.2517 83.4365 24.8326 83.4365 27.5238Z" fill="#F0F0F0"/>
<path d="M48.9122 33.9503L17.8408 78.2592H79.9835L48.9122 33.9503Z" fill="#E11D48"/>
<path d="M86.8881 52.8914L66.1738 78.259H107.602L86.8881 52.8914Z" fill="#E11D48"/>
</svg>
