<svg width="133" height="98" viewBox="0 0 133 98" fill="none" xmlns="http://www.w3.org/2000/svg">
<rect x="17.4053" y="44.4509" width="47.8841" height="52.6725" fill="#FF698A"/>
<path d="M17.4044 44.4509H65.2885L52.1204 30.0857H4.23633L17.4044 44.4509Z" fill="#E11D48"/>
<path d="M17.4039 44.4509V61.8089H0.0458984L17.4039 44.4509Z" fill="#E11D48"/>
<rect x="65.2871" y="44.4509" width="55.0667" height="52.6725" fill="#E11D48"/>
<path d="M65.2871 44.4509H120.354L132.325 67.1959H77.2581L65.2871 44.4509Z" fill="#FA7D98"/>
<path d="M65.2871 44.4509H120.354L132.325 33.677H77.2581L65.2871 44.4509Z" fill="#FF9AB0"/>
<rect x="24.5371" y="54.5764" width="24.4907" height="6.12267" fill="#E11D48"/>
<path d="M7.69922 8.84033L17.6191 18.1824" stroke="#E11D48" stroke-width="2" stroke-linecap="round"/>
<path d="M27.2842 1.00269L29.7113 12.8632" stroke="#E11D48" stroke-width="2" stroke-linecap="round"/>
<path d="M124.857 8.84033L114.938 18.1824" stroke="#E11D48" stroke-width="2" stroke-linecap="round"/>
<path d="M105.271 1.00269L102.844 12.8632" stroke="#E11D48" stroke-width="2" stroke-linecap="round"/>
</svg>
