<svg width="48" height="48" viewBox="0 0 48 48" fill="none" xmlns="http://www.w3.org/2000/svg">
<g id="fi_2816948">
<g id="Group">
<path id="Vector" d="M5.83594 24.0273V32.9037L6.58023 35.4842C7.11945 35.8894 7.78977 36.1295 8.51609 36.1295H39.4838C41.2654 36.1295 42.7096 34.6852 42.7096 32.9037V24.0273H5.83594Z" fill="#C38C66"/>
<g id="Group_2">
<path id="Vector_2" d="M6.58133 26.447C6.58133 25.5557 7.45891 24.9381 8.29945 25.2344C8.83078 25.4216 9.37258 25.5993 9.92516 25.7658L9.94758 25.7726L9.97023 25.7785L12.8572 26.5355L12.8791 26.5413L12.9011 26.5463C16.4263 27.3397 20.1608 27.742 24.0008 27.742C27.8484 27.742 31.5898 27.3381 35.1213 26.5416L35.1427 26.5368L35.164 26.5312L37.9737 25.7959L37.9956 25.7901L38.0174 25.7835C39.6778 25.2859 41.2479 24.693 42.7105 24.027V20H5.29102V32.9032C5.29102 33.9552 5.80211 34.8948 6.58133 35.4836V26.447Z" fill="#B57F5F"/>
<path id="Vector_3" d="M30.4531 2.58057H31.7434V9.03221H30.4531V2.58057Z" fill="#B57F5F"/>
<path id="Vector_4" d="M16.2598 2.58057H17.5501V9.03221H16.2598V2.58057Z" fill="#B57F5F"/>
</g>
<path id="Vector_5" d="M31.0982 3.52789C30.9746 3.52789 30.8496 3.51023 30.7255 3.47273C28.7871 2.88906 26.4617 2.58062 24.0007 2.58062C21.5398 2.58062 19.2143 2.88906 17.276 3.47273C16.5933 3.67937 15.8741 3.29125 15.6684 2.6093C15.463 1.92695 15.8496 1.20711 16.5318 1.00172C18.7084 0.346563 21.2913 0 24.0007 0C26.7102 0 29.2931 0.346484 31.4696 1.0018C32.1519 1.20719 32.5384 1.92703 32.333 2.60938C32.1648 3.16758 31.6526 3.52789 31.0982 3.52789Z" fill="#D19A6E"/>
<path id="Vector_6" d="M41.4195 7.9624H6.58055C5.07711 8.49381 4 9.92764 4 11.613V20.7701C4 21.5162 4.4282 22.1922 5.09891 22.519C6.68219 23.2904 8.42484 23.9664 10.2967 24.5305L13.1837 25.2875C16.5171 26.0378 20.1698 26.4518 24 26.4518C27.838 26.4518 31.4976 26.0361 34.8366 25.283L37.6462 24.5476C39.5398 23.9801 41.3018 23.2982 42.9011 22.519C43.5717 22.1922 44 21.5162 44 20.7702V11.613C44 9.92764 42.9229 8.49381 41.4195 7.9624Z" fill="#D19A6E"/>
<path id="Vector_7" d="M10.4512 21.29V24.5707C10.4512 24.5707 11.0289 26.1013 11.7415 26.1013C12.4541 26.1013 13.0318 25.96 13.0318 25.2473V21.29H10.4512Z" fill="#F9EAC7"/>
<path id="Vector_8" d="M37.5494 21.29V24.5707C37.5494 25.2832 36.9716 25.906 36.2591 25.906C35.5465 25.906 34.9688 25.96 34.9688 25.2473V21.29H37.5494Z" fill="#F9EAC7"/>
<path id="Vector_9" d="M37.5494 24.5713V25.8068C37.5494 26.5193 36.9716 27.0971 36.2591 27.0971C35.5465 27.0971 34.9688 26.5193 34.9688 25.8068V25.2479L37.5494 24.5713Z" fill="#F4DBB3"/>
<path id="Vector_10" d="M40.6611 20.7111C41.127 20.5082 41.4208 20.0404 41.4208 19.5323V7.96273C41.0166 7.81961 40.5836 7.74219 40.1305 7.74219H7.87234C7.41922 7.74219 6.98617 7.81961 6.58203 7.96273V19.5323C6.58203 20.0404 6.87578 20.5082 7.34164 20.7111C12.0337 22.7544 17.894 23.8712 24.0013 23.8712C30.1087 23.8712 35.969 22.7544 40.6611 20.7111Z" fill="#E2A975"/>
<path id="Vector_11" d="M10.4512 24.5713V25.8068C10.4512 26.5193 11.0289 27.0971 11.7415 27.0971C12.4541 27.0971 13.0318 26.5193 13.0318 25.8068V25.2479L10.4512 24.5713Z" fill="#F4DBB3"/>
</g>
</g>
</svg>
