<svg width="48" height="48" viewBox="0 0 48 48" fill="none" xmlns="http://www.w3.org/2000/svg">
<g id="fi_6427581">
<path id="Vector" fill-rule="evenodd" clip-rule="evenodd" d="M7 43C7 44.6568 8.36373 46 10.046 46H41.5702C41.7381 46 41.8907 45.9035 41.9609 45.7534C42.0308 45.603 42.0056 45.4262 41.8961 45.3007C41.2245 44.5315 40.8721 43.7684 40.8707 42.9992C40.8694 42.231 41.2189 41.4687 41.8949 40.7005C42.0052 40.5752 42.031 40.3982 41.9611 40.2475C41.8912 40.0967 41.7385 40 41.5702 40H10.046C8.36373 40 7 41.3432 7 43Z" fill="#FEF6E7"/>
<path id="Vector_2" fill-rule="evenodd" clip-rule="evenodd" d="M41 31.5001C41 30.1194 39.7343 29.0002 38.1729 29H9.44285C9.26959 29 9.11207 29.0895 9.04001 29.229C8.96795 29.3684 8.99473 29.5324 9.10825 29.6481C9.71473 30.2672 10.0302 30.8805 10.0291 31.4993C10.0279 32.1191 9.70984 32.7334 9.10719 33.3532C8.99431 33.4692 8.96816 33.6327 9.04044 33.7718C9.1125 33.9109 9.26981 34 9.44285 34H38.1727C39.7343 34 41 32.8808 41 31.5001Z" fill="#FEF6E7"/>
<path id="Vector_3" fill-rule="evenodd" clip-rule="evenodd" d="M34.9983 42H14.4471C14.2004 42 14 42.224 14 42.5C14 42.776 14.2004 43 14.4471 43H35C34.9751 42.8334 34.9627 42.6663 34.9622 42.499C34.962 42.3325 34.974 42.1661 34.9983 42Z" fill="#F8D799"/>
<path id="Vector_4" fill-rule="evenodd" clip-rule="evenodd" d="M16.0017 31C16.0285 31.1663 16.042 31.3326 16.0417 31.4992C16.0415 31.6664 16.0275 31.8332 16 32H33.5693C33.807 32 34 31.7761 34 31.5001C34 31.2241 33.807 31 33.5693 31H16.0017Z" fill="#F8D799"/>
<path id="Vector_5" fill-rule="evenodd" clip-rule="evenodd" d="M9.33994 7.6178C11.6823 10.5116 19.526 20.202 22.7468 24.1812C23.1645 24.6973 23.8127 25 24.4999 25C25.1874 25 25.8353 24.6973 26.2531 24.1812L39.6602 7.6178C40.1808 6.97457 40.0944 6.06152 39.4615 5.516L34.0211 0.826285C33.4044 0.294754 32.6002 0 31.7657 0C28.7123 0 20.2876 0 17.2342 0C16.3999 0 15.5957 0.294754 14.979 0.826285C13.6104 2.00591 10.8976 4.34428 9.53842 5.516C8.90545 6.06152 8.81928 6.97457 9.33994 7.6178Z" fill="#D7E8FF"/>
<path id="Vector_6" fill-rule="evenodd" clip-rule="evenodd" d="M9.05104 6H39.9489C40.0953 5.53798 39.9251 5.03063 39.4615 4.69084L34.0211 0.702678C33.4044 0.250661 32.6002 0 31.7658 0C28.7124 0 20.2876 0 17.2342 0C16.4 0 15.5957 0.250661 14.9791 0.702678C13.6104 1.70584 10.8976 3.6944 9.53847 4.69084C9.07504 5.03063 8.90464 5.53798 9.05104 6Z" fill="#9CBBFF"/>
<path id="Vector_7" fill-rule="evenodd" clip-rule="evenodd" d="M16.2796 0.207585C16.0631 0.288065 15.9496 0.51957 16.0216 0.733642L24.0875 24.7091C24.146 24.8826 24.3123 25 24.5 25C24.6877 25 24.8542 24.8826 24.9125 24.7091L32.9784 0.733642C33.0504 0.51957 32.9369 0.288065 32.7207 0.207585C32.3536 0.0715601 31.9613 0 31.5617 0C28.5941 0 20.4059 0 17.4383 0C17.0389 0 16.6464 0.0715601 16.2796 0.207585Z" fill="#A3CBFF"/>
<path id="Vector_8" fill-rule="evenodd" clip-rule="evenodd" d="M24.9928 0C24.8651 0 24.7429 0.0406847 24.6552 0.112401L18 5.54936L18.191 6H31.7945L32 5.5154L25.3305 0.112401C25.2426 0.0406847 25.1206 0 24.9928 0Z" fill="#D7E8FF"/>
<path id="Vector_9" fill-rule="evenodd" clip-rule="evenodd" d="M45 46.3118C45 45.8642 44.8124 45.4348 44.4782 45.1182C44.1439 44.8018 43.6908 44.6238 43.2183 44.6238H9.8061C8.5678 44.6238 7.56409 43.673 7.56409 42.5C7.56409 41.327 8.5678 40.3762 9.8061 40.3762H43.2183C43.6908 40.3762 44.1439 40.1982 44.4782 39.8819C44.8124 39.5653 45 39.1358 45 38.6882C45 38.2405 44.8124 37.8109 44.4782 37.4943C44.1439 37.1777 43.6906 37 43.2181 37C38.0535 37 16.8336 37 9.8061 37C6.59951 37 4 39.4625 4 42.5C4 45.5375 6.59951 48 9.8061 48H43.2181C44.2021 48 45 47.244 45 46.3118Z" fill="#0977BE"/>
<path id="Vector_10" fill-rule="evenodd" clip-rule="evenodd" d="M7 34.5881C7 35.3678 7.72107 36 8.61073 36H37.8658C40.7013 36 43 33.9853 43 31.5001C43 29.0147 40.7013 27 37.8658 27C31.7126 27 13.1327 27 8.61073 27C8.18349 27 7.77384 27.1489 7.47164 27.4136C7.16964 27.6782 7 28.0377 7 28.4121C7 28.7864 7.16964 29.1454 7.47164 29.4103C7.77363 29.675 8.18349 29.8237 8.61052 29.8237H37.8658C38.9222 29.8237 39.7783 30.5742 39.7783 31.5001C39.7783 32.426 38.922 33.1763 37.8656 33.1765H8.61052C8.18349 33.1765 7.77363 33.3252 7.47164 33.5899C7.16964 33.8546 7 34.2136 7 34.5881Z" fill="#EF5451"/>
</g>
</svg>
