<svg width="48" height="48" viewBox="0 0 48 48" fill="none" xmlns="http://www.w3.org/2000/svg">
<g id="fi_3571420">
<g id="Group">
<path id="Vector" d="M42.4642 12.257V12.2584C42.4628 12.257 42.4656 12.2598 42.4615 12.2652C41.3779 15.1862 37.4719 22.6981 32.4759 22.5937C29.526 22.5127 27.0101 17.6911 25.7468 9.6958H23.9999H22.2531C20.9897 17.6911 18.4738 22.5127 15.524 22.5937C15.4787 22.5951 15.4347 22.5965 15.3908 22.5965C10.5321 22.5965 6.61099 15.1601 5.5384 12.2652C5.53568 12.2597 5.53568 12.257 5.53568 12.2584V12.257L2.89624 13.2292C3.12283 13.8555 8.53118 28.7447 8.53118 43.6875H23.9999H39.4687C39.4687 28.7447 44.877 13.8555 45.1036 13.2292L42.4642 12.257Z" fill="#FFDF40"/>
<path id="Vector_2" d="M45.1037 13.2292L42.4643 12.257V12.2584C42.4628 12.257 42.4657 12.2598 42.4615 12.2652C41.378 15.1862 37.472 22.6981 32.4759 22.5937C29.5261 22.5127 27.0102 17.6911 25.7468 9.6958H24V43.6875H39.4688C39.4688 28.7447 44.8771 13.8555 45.1037 13.2292Z" fill="#FFBE40"/>
<g id="Group_2">
<path id="Vector_3" d="M12.75 36.6562H7.125C6.34772 36.6562 5.71875 36.0273 5.71875 35.25C5.71875 34.4727 6.34772 33.8438 7.125 33.8438H12.75C13.5273 33.8438 14.1562 34.4727 14.1562 35.25C14.1562 36.0273 13.5273 36.6562 12.75 36.6562Z" fill="#FFBE40"/>
</g>
<g id="Group_3">
<path id="Vector_4" d="M40.875 36.6562H35.25C34.4727 36.6562 33.8438 36.0273 33.8438 35.25C33.8438 34.4727 34.4727 33.8438 35.25 33.8438H40.875C41.6523 33.8438 42.2812 34.4727 42.2812 35.25C42.2812 36.0273 41.6523 36.6562 40.875 36.6562Z" fill="#FF9F40"/>
</g>
<g id="Group_4">
<path id="Vector_5" d="M43.7812 16.9688C41.4549 16.9688 39.5625 15.0763 39.5625 12.75C39.5625 10.4237 41.4549 8.53125 43.7812 8.53125C46.1076 8.53125 48 10.4237 48 12.75C48 15.0763 46.1076 16.9688 43.7812 16.9688Z" fill="#FF9F40"/>
</g>
<g id="Group_5">
<path id="Vector_6" d="M4.21875 16.9688C1.89244 16.9688 0 15.0763 0 12.75C0 10.4237 1.89244 8.53125 4.21875 8.53125C6.54506 8.53125 8.4375 10.4237 8.4375 12.75C8.4375 15.0763 6.54506 16.9688 4.21875 16.9688Z" fill="#FFBE40"/>
</g>
<path id="Vector_7" d="M26.8125 28.0526C25.6012 28.0526 24.6757 28.5085 24 29.11C23.3243 28.5085 22.3987 28.0526 21.1875 28.0526C18.8213 28.0526 16.9688 29.831 16.9688 32.1011C16.9688 34.492 18.9573 35.9435 21.708 37.9541L23.1568 39.0212C23.4067 39.2093 23.7034 39.3027 24 39.3027C24.2966 39.3027 24.5932 39.2093 24.8432 39.0212L26.292 37.9541C29.0427 35.9435 31.0312 34.4919 31.0312 32.101C31.0312 29.831 29.1787 28.0526 26.8125 28.0526Z" fill="#F25588"/>
<path id="Vector_8" d="M26.292 37.954C29.0427 35.9434 31.0312 34.4919 31.0312 32.101C31.0312 29.8309 29.1787 28.0525 26.8125 28.0525C25.6012 28.0525 24.6757 28.5084 24 29.1099V39.3025C24.2966 39.3025 24.5932 39.2091 24.8432 39.021L26.292 37.954Z" fill="#E63A57"/>
<path id="Vector_9" d="M40.875 42.2812H24H7.125C6.34772 42.2812 5.71875 42.9102 5.71875 43.6875C5.71875 44.4648 6.34772 45.0938 7.125 45.0938H24H40.875C41.6523 45.0938 42.2812 44.4648 42.2812 43.6875C42.2812 42.9102 41.6523 42.2812 40.875 42.2812Z" fill="#FFBE40"/>
<path id="Vector_10" d="M42.2812 43.6875C42.2812 42.9102 41.6523 42.2812 40.875 42.2812H24V45.0938H40.875C41.6523 45.0938 42.2812 44.4648 42.2812 43.6875Z" fill="#FF9F40"/>
<path id="Vector_11" d="M24 11.3438C26.33 11.3438 28.2188 9.45495 28.2188 7.125C28.2188 4.79505 26.33 2.90625 24 2.90625C21.67 2.90625 19.7812 4.79505 19.7812 7.125C19.7812 9.45495 21.67 11.3438 24 11.3438Z" fill="#FFBE40"/>
<path id="Vector_12" d="M28.2188 7.125C28.2188 4.79869 26.3263 2.90625 24 2.90625V11.3438C26.3263 11.3438 28.2188 9.45131 28.2188 7.125Z" fill="#FF9F40"/>
</g>
</g>
</svg>
