<svg width="48" height="48" viewBox="0 0 48 48" fill="none" xmlns="http://www.w3.org/2000/svg">
<g id="fi_3074078" clip-path="url(#clip0_8192_12404)">
<g id="Group">
<g id="Group_2">
<g id="Group_3">
<path id="Vector" d="M43.2072 32.7647C42.3431 32.7647 41.6426 32.0642 41.6426 31.2001V15.2629C41.6426 14.3988 42.343 13.6982 43.2072 13.6982C44.0712 13.6982 44.7718 14.3987 44.7718 15.2629V31.2001C44.7718 32.0641 44.0713 32.7647 43.2072 32.7647Z" fill="#FFDA2D"/>
</g>
</g>
<g id="Group_4">
<g id="Group_5">
<path id="Vector_2" d="M43.2072 42.2546C42.3431 42.2546 41.6426 41.5541 41.6426 40.69V36.571C41.6426 35.7069 42.343 35.0063 43.2072 35.0063C44.0712 35.0063 44.7718 35.7068 44.7718 36.571V40.69C44.7718 41.554 44.0713 42.2546 43.2072 42.2546Z" fill="#FFDA2D"/>
</g>
</g>
<path id="Vector_3" d="M8.97461 18.2944V28.8964C8.97461 29.4751 9.22449 30.0248 9.65994 30.406C11.0676 31.6384 14.8791 34.0397 23.2088 34.0397C31.5423 34.0397 35.4308 31.6363 36.8765 30.4046C37.3244 30.023 37.5827 29.4655 37.5827 28.877V18.3852" fill="#3664AD"/>
<path id="Vector_4" d="M42.8258 38.4934L38.5719 34.2395C38.3615 34.0291 38.3615 33.688 38.5719 33.4776L42.8258 29.2237C43.0362 29.0133 43.3774 29.0133 43.5878 29.2237L47.8416 33.4776C48.052 33.688 48.052 34.0291 47.8416 34.2395L43.5878 38.4934C43.3775 38.7039 43.0363 38.7039 42.8258 38.4934Z" fill="#FFBD00"/>
<path id="Vector_5" d="M0.398701 15.1173L22.353 23.2501C22.906 23.455 23.5137 23.4577 24.0686 23.2576L46.6646 15.1113C47.2024 14.9174 47.203 14.157 46.6654 13.9623L24.3828 5.89268C23.8414 5.69658 23.2484 5.69658 22.7069 5.89268L0.402837 13.9701C-0.132174 14.1639 -0.134994 14.9196 0.398701 15.1173Z" fill="#5785CD"/>
<path id="Vector_6" d="M23.25 34.0396C31.5557 34.0319 35.4344 31.6345 36.8777 30.4047C37.3256 30.0231 37.5839 29.4655 37.5839 28.8771V18.3853L23.25 18.3398V34.0396Z" fill="#2D5799"/>
<path id="Vector_7" d="M46.6659 13.964L24.3834 5.89425C24.0184 5.76207 23.6303 5.72118 23.25 5.76725V23.4059C23.5273 23.4028 23.8043 23.3548 24.0692 23.2593L46.6652 15.113C47.2029 14.9191 47.2035 14.1587 46.6659 13.964Z" fill="#4F78BA"/>
<path id="Vector_8" d="M48.0001 33.616C47.9749 33.566 47.9438 33.5182 47.9021 33.4763L43.6482 29.2225C43.5392 29.1133 43.3949 29.0621 43.252 29.0661V38.6486C43.3949 38.6526 43.5391 38.6013 43.6482 38.4922L47.9021 34.2384C47.9438 34.1966 47.9749 34.1488 48.0001 34.0987V33.616Z" fill="#FF8B00"/>
</g>
</g>
<defs>
<clipPath id="clip0_8192_12404">
<rect width="48" height="48" fill="white"/>
</clipPath>
</defs>
</svg>
