<svg width="24" height="24" viewBox="0 0 24 24" fill="none" xmlns="http://www.w3.org/2000/svg">
<g id="fi_6911338" clip-path="url(#clip0_5455_38698)">
<g id="Group">
<path id="Vector" d="M24.0005 8.23913C24.0005 9.5333 23.6455 10.8299 22.9309 11.9685C22.6547 12.4084 22.3254 12.8247 21.9415 13.2086L21.7661 13.3839L17.6601 11.3142L8.54688 6.72094L12.0005 3.26776C13.3686 1.89924 15.1683 1.20868 16.9724 1.20868C18.6355 1.20868 20.302 1.79588 21.6367 2.97994C23.2071 4.37354 24.0005 6.30418 24.0005 8.23913Z" fill="#D78878"/>
<path id="Vector_2" d="M22.9299 11.9686C22.6537 12.4085 22.3244 12.8248 21.9405 13.2087L21.7652 13.384L17.6591 11.3143L14.1055 7.76072L14.459 5.72723C15.882 7.15031 18.1888 7.15031 19.6119 5.72723C19.6119 5.72719 19.8326 10.1529 22.9299 11.9686Z" fill="#CA6E59"/>
<path id="Vector_3" d="M11.9999 3.26776L21.2618 12.5296C21.9768 13.2446 22.0151 14.4107 21.3146 15.1399C20.9509 15.5186 20.4671 15.7079 19.9827 15.7079C19.5101 15.7079 19.0375 15.5281 18.6765 15.1672L19.0639 15.5545C19.7854 16.276 19.7849 17.445 19.0639 18.1659C18.7034 18.5264 18.2308 18.7071 17.7582 18.7071C17.2856 18.7071 16.8134 18.5269 16.4525 18.1659L15.9233 17.6367C16.6447 18.3582 16.6443 19.5271 15.9233 20.2481C15.5628 20.6086 15.0902 20.7893 14.6176 20.7893C14.1445 20.7898 13.6723 20.6095 13.3114 20.2486C13.8929 20.8301 13.8934 21.773 13.3114 22.355C13.0204 22.646 12.6391 22.791 12.2582 22.791C11.8774 22.791 11.496 22.646 11.205 22.355L2.05888 13.2088C-0.80284 10.3471 -0.663106 5.66607 2.36418 2.98013C5.14639 0.51165 9.36993 0.637743 11.9999 3.26776Z" fill="#FFDFCF"/>
<g id="Group_2">
<path id="Vector_4" d="M16.2865 19.7327C16.1982 19.9191 16.0769 20.0939 15.9224 20.2484C15.5622 20.6087 15.0894 20.7897 14.6166 20.7897C14.1444 20.7897 13.6721 20.6091 13.3109 20.2484L7.58984 14.5269L7.73633 14.3955C8.1747 14.0023 8.84403 14.0205 9.26047 14.4369L14.1917 19.3681C14.5524 19.7288 15.0247 19.909 15.4975 19.909C15.7674 19.909 16.0373 19.85 16.2865 19.7327Z" fill="#FFCEBF"/>
<path id="Vector_5" d="M19.4291 17.6502C19.3407 17.8366 19.2195 18.0115 19.065 18.166C18.7047 18.5262 18.232 18.7073 17.7592 18.7073C17.287 18.7073 16.8147 18.5267 16.4535 18.166L10.7324 12.4444L10.8789 12.313C11.3173 11.9198 11.9866 11.938 12.403 12.3544L17.3343 17.2856C17.695 17.6463 18.1673 17.8264 18.64 17.8264C18.91 17.8265 19.1799 17.7676 19.4291 17.6502Z" fill="#FFCEBF"/>
<path id="Vector_6" d="M21.6537 14.6512C21.5653 14.8376 21.4441 15.0124 21.2896 15.1669C20.9293 15.5272 20.4566 15.7083 19.9838 15.7083C19.5116 15.7083 19.0393 15.5276 18.6781 15.1669L12.957 9.44538L13.1035 9.31399C13.5419 8.92075 14.2112 8.93894 14.6277 9.35533L19.5589 14.2866C19.9196 14.6473 20.3919 14.8274 20.8647 14.8274C21.1346 14.8275 21.4045 14.7685 21.6537 14.6512Z" fill="#FFCEBF"/>
<path id="Vector_7" d="M13.4772 22.1578C13.4289 22.2274 13.3734 22.2935 13.3116 22.3553C13.0204 22.646 12.6389 22.7913 12.2584 22.7913C11.8774 22.7913 11.4959 22.646 11.2052 22.3553L2.05867 13.2088C-0.80296 10.3472 -0.662944 5.66646 2.36434 2.9801C3.69906 1.79604 5.36504 1.20935 7.02812 1.20935C7.74282 1.20935 8.45701 1.31749 9.14368 1.53387C7.76696 1.74874 6.43562 2.34851 5.3206 3.33748C2.08426 6.20876 1.93501 11.213 4.99417 14.2721L12.4153 21.6933C12.7099 21.9879 13.0914 22.1428 13.4772 22.1578Z" fill="#FFCEBF"/>
</g>
<path id="Vector_8" d="M15.4783 4.70683L14.4581 5.72707L11.0042 9.181C10.3253 9.85985 9.22381 9.85985 8.54497 9.181C8.20555 8.84093 8.03516 8.39599 8.03516 7.95105C8.03516 7.50611 8.20555 7.06118 8.54497 6.7211L11.9989 3.26782L11.9988 3.26772C14.6287 0.63752 18.8525 0.511426 21.6347 2.98005" fill="#D78878"/>
<path id="Vector_9" d="M21.6364 2.98013L21.2482 3.08925C20.263 2.59767 19.1896 2.35378 18.1176 2.35378C16.3135 2.35378 14.5137 3.04435 13.1457 4.41286L9.69203 7.86605C9.35256 8.2065 9.18208 8.65125 9.18208 9.096C9.18208 9.27033 9.20814 9.44466 9.26031 9.61224C8.99908 9.53161 8.75374 9.38771 8.54706 9.18103C8.20759 8.8411 8.03711 8.39635 8.03711 7.95108C8.03711 7.50633 8.20759 7.06158 8.54706 6.72113L12.0007 3.26794C13.3688 1.89942 15.1685 1.20886 16.9726 1.20886C18.6357 1.20886 20.3017 1.79607 21.6364 2.98013Z" fill="#CA6E59"/>
<path id="Vector_10" d="M4.21968 13.4082C3.58856 12.777 2.56537 12.777 1.93425 13.4082C1.30317 14.0392 1.30317 15.0625 1.93425 15.6935C2.56532 16.3246 3.58856 16.3246 4.21964 15.6935C4.85076 15.0625 4.85076 14.0392 4.21968 13.4082Z" fill="#D78878"/>
<path id="Vector_11" d="M6.50484 15.6934C5.87376 15.0623 4.85053 15.0623 4.2194 15.6934C3.58832 16.3245 3.58832 17.3477 4.2194 17.9788C4.85048 18.6099 5.87372 18.6099 6.50479 17.9788C7.13597 17.3477 7.13596 16.3246 6.50484 15.6934Z" fill="#D78878"/>
<path id="Vector_12" d="M8.79195 17.9788C8.16082 17.3477 7.13764 17.3477 6.50651 17.9788C5.87543 18.6099 5.87543 19.6331 6.50651 20.2642C7.13759 20.8953 8.16082 20.8953 8.7919 20.2642C9.42303 19.6331 9.42303 18.6099 8.79195 17.9788Z" fill="#D78878"/>
<path id="Vector_13" d="M9.08997 18.3898C8.48345 18.0807 7.72291 18.1802 7.21586 18.6877C6.90006 19.0031 6.74261 19.4169 6.74261 19.8307C6.74261 20.0818 6.80102 20.3334 6.91788 20.5628C6.76966 20.4879 6.63053 20.3884 6.50645 20.2644C6.19112 19.9486 6.0332 19.5352 6.0332 19.1218C6.0332 18.708 6.19112 18.2942 6.50645 17.9788C7.13758 17.3477 8.16086 17.3477 8.79198 17.9788C8.91611 18.1024 9.01558 18.2415 9.08997 18.3898Z" fill="#CA6E59"/>
<path id="Vector_14" d="M6.80286 16.1044C6.19634 15.7953 5.4358 15.8948 4.92875 16.4023C4.61295 16.7177 4.4555 17.1315 4.4555 17.5453C4.4555 17.7964 4.51391 18.048 4.63077 18.2774C4.48255 18.2025 4.34347 18.103 4.21934 17.979C3.90402 17.6632 3.74609 17.2498 3.74609 16.8364C3.74609 16.4226 3.90402 16.0088 4.21934 15.6934C4.85047 15.0623 5.87375 15.0623 6.50487 15.6934C6.62905 15.8171 6.72852 15.9562 6.80286 16.1044Z" fill="#CA6E59"/>
<path id="Vector_15" d="M4.5177 13.8191C3.91119 13.5101 3.15064 13.6095 2.64359 14.117C2.3278 14.4324 2.17034 14.8462 2.17034 15.26C2.17034 15.5112 2.22875 15.7627 2.34561 15.9921C2.19739 15.9172 2.05831 15.8178 1.93419 15.6937C1.61886 15.3779 1.46094 14.9645 1.46094 14.5512C1.46094 14.1373 1.61886 13.7235 1.93419 13.4082C2.56531 12.777 3.58859 12.777 4.21972 13.4082C4.34384 13.5318 4.44331 13.6709 4.5177 13.8191Z" fill="#CA6E59"/>
<path id="Vector_16" d="M10.614 20.2644C10.1107 19.7612 9.29475 19.7612 8.7915 20.2644C8.28825 20.7677 8.28825 21.5836 8.7915 22.0869C9.29475 22.5901 10.1107 22.5901 10.614 22.0869C11.1172 21.5836 11.1172 20.7677 10.614 20.2644Z" fill="#D78878"/>
<path id="Vector_17" d="M10.872 20.6328C10.3953 20.4121 9.8115 20.498 9.41845 20.8911C9.16688 21.1427 9.04083 21.473 9.04083 21.8023C9.04083 21.9878 9.08044 22.1732 9.16013 22.3446C9.02686 22.2828 8.90175 22.1969 8.79169 22.0868C8.53964 21.8352 8.41406 21.5054 8.41406 21.1756C8.41406 20.8458 8.53959 20.516 8.79169 20.2643C9.29484 19.7612 10.1105 19.7612 10.6141 20.2643C10.7242 20.3744 10.8101 20.4995 10.872 20.6328Z" fill="#CA6E59"/>
</g>
</g>
<defs>
<clipPath id="clip0_5455_38698">
<rect width="24" height="24" fill="white"/>
</clipPath>
</defs>
</svg>
