<svg width="24" height="24" viewBox="0 0 24 24" fill="none" xmlns="http://www.w3.org/2000/svg">
<g id="fi_2583956">
<g id="Group">
<path id="Vector" d="M9.14956 4.65157C8.63211 5.40987 8.34617 6.29674 8.29972 7.28754L8.29883 7.30657L8.31716 7.31187C10.0421 7.80832 11.3805 9.30303 11.9754 11.0032C11.9912 11.0486 12.0054 11.0903 12.0216 11.1404C12.0216 11.1404 12.0224 11.1429 12.0225 11.1429L12.0684 11.128C12.0674 11.125 12.0653 11.1184 12.0643 11.1154C12.0643 11.1135 12.0271 11.005 12.0265 11.0032C12.5442 9.52592 13.6372 8.18623 15.0421 7.54868L15.0616 7.53987L15.0552 7.51948C14.9051 7.04079 14.9888 6.56993 15.3041 6.12007C16.3032 4.6939 17.8053 5.23057 19.1547 6.34334C19.376 5.90065 19.7432 5.65854 20.1979 5.5917C16.7939 -0.518271 10.7889 2.24937 9.14956 4.65157Z" fill="#834AA3"/>
<path id="Vector_2" d="M9.14956 4.65157C8.63211 5.40987 8.34617 6.29674 8.29972 7.28754L8.29883 7.30657L8.31716 7.31187C9.36631 7.61384 10.272 8.28546 10.9549 9.14768C11.365 3.8734 14.7091 2.61035 16.9077 2.3569C13.7941 0.991712 10.3334 2.91677 9.14956 4.65157Z" fill="#6E3F8B"/>
<path id="Vector_3" d="M19.5436 7.58315C20.02 7.75978 20.4433 7.96162 20.8201 8.18306C20.9809 8.12433 21.1332 8.03414 21.2675 7.91161C21.8196 7.4077 21.8586 6.55172 21.3548 5.99967C20.8508 5.44762 19.9949 5.40853 19.4428 5.91244C19.0093 6.30816 18.8923 6.92095 19.106 7.43325C19.2494 7.4783 19.3952 7.52812 19.5436 7.58315Z" fill="#A374C0"/>
<path id="Vector_4" d="M20.3859 6.40997C20.6386 6.13318 20.9797 5.98538 21.3267 5.97029C20.8197 5.44655 19.9848 5.41754 19.4428 5.91226C19.0093 6.30797 18.8923 6.92077 19.106 7.43307C19.2494 7.47812 19.3952 7.52794 19.5437 7.58297C19.7485 7.65891 19.9429 7.73977 20.1286 7.82457C19.9425 7.35802 20.0245 6.80588 20.3859 6.40997Z" fill="#935CB5"/>
<path id="Vector_5" d="M19.5527 7.56051C18.1429 7.03776 16.8477 6.93539 15.703 7.25606C13.9409 7.7497 12.5799 9.26878 11.9774 10.9953L11.9746 11.0032L11.9774 11.0112C12.4406 12.3387 12.3452 12.7343 12.3452 18.3467H19.1976H19.2368L19.2192 18.3118C19.2024 18.2783 17.545 14.9455 18.3266 13.296C18.5393 12.8473 18.9169 12.5595 19.449 12.4406C20.0373 12.3092 20.5443 12.3868 20.9557 12.6712C21.7079 13.1912 22.0136 14.2956 22.1425 15.2014C22.5645 15.0397 23.004 15.0683 23.4197 15.3495C24.2954 11.6412 22.9486 8.81967 19.5527 7.56051Z" fill="#00C63A"/>
<path id="Vector_6" d="M20.9665 8.24587C20.5435 7.98253 20.0722 7.75317 19.5527 7.56051C18.1429 7.03776 16.8477 6.93539 15.703 7.25606C13.9409 7.7497 12.5799 9.26878 11.9774 10.9953L11.9746 11.0032L11.9774 11.0112C12.4406 12.3387 12.3452 12.7343 12.3452 18.3467H15.0534C14.299 16.2309 13.6359 12.829 16.0109 9.94678C17.4963 8.1442 19.4486 7.98848 20.9665 8.24587Z" fill="#00B426"/>
<path id="Vector_7" d="M22.6463 17.7849C23.3938 17.7849 23.9997 17.179 23.9997 16.4316C23.9997 15.6841 23.3938 15.0782 22.6463 15.0782C21.8989 15.0782 21.293 15.6841 21.293 16.4316C21.293 17.179 21.8989 17.7849 22.6463 17.7849Z" fill="#92DF93"/>
<path id="Vector_8" d="M10.7387 8.82143C10.0339 8.03951 9.21203 7.51292 8.29576 7.25623C7.15103 6.93556 5.85582 7.03798 4.44606 7.56068C2.41239 8.31471 1.11381 9.59857 0.586511 11.3764C0.207246 12.6551 0.269918 14.0406 0.579058 15.3496C0.960011 15.0919 1.39525 15.0248 1.85626 15.2015C1.98507 14.2962 2.2907 13.1914 3.04309 12.6713C3.45451 12.3869 3.96146 12.3093 4.54979 12.4407C5.08187 12.5596 5.4595 12.8474 5.67217 13.2961C6.45376 14.9456 4.7964 18.2784 4.77957 18.3119L4.762 18.3469H12.3918V13.1928C12.3918 11.5567 11.8047 10.0043 10.7387 8.82143Z" fill="#FBC700"/>
<path id="Vector_9" d="M22.6463 16.4316C22.6463 15.9307 22.9186 15.4937 23.323 15.2597C23.1239 15.1445 22.8929 15.0782 22.6463 15.0782C21.8989 15.0782 21.293 15.6841 21.293 16.4316C21.293 17.179 21.8989 17.7849 22.6463 17.7849C22.8929 17.7849 23.1239 17.7187 23.323 17.6034C22.9186 17.3694 22.6463 16.9324 22.6463 16.4316Z" fill="#4BCE5B"/>
<path id="Vector_10" d="M19.1846 22.1061H4.07812C3.61406 22.1061 3.23438 21.7264 3.23438 21.2623V19.1666C3.23438 18.7025 3.61406 18.3228 4.07812 18.3228H19.1846C19.6486 18.3228 20.0283 18.7025 20.0283 19.1666V21.2623C20.0284 21.7264 19.6487 22.1061 19.1846 22.1061Z" fill="#DBEDFF"/>
<path id="Vector_11" d="M7.20647 21.2368V19.192C7.20647 18.7139 7.59764 18.3228 8.07567 18.3228H4.10358C3.6255 18.3228 3.23438 18.714 3.23438 19.192V21.2368C3.23438 21.7149 3.62555 22.1061 4.10358 22.1061H8.07567C7.59759 22.1061 7.20647 21.7149 7.20647 21.2368Z" fill="#B5DCFF"/>
<path id="Vector_12" d="M4.76361 18.3467H8.42356C8.76364 16.6962 9.49649 11.8155 6.6426 10.3985C3.48411 8.83027 0.818752 11.8077 0.387315 12.3266C0.254424 13.3251 0.346815 14.3592 0.580674 15.3495C0.96158 15.0917 1.39686 15.0247 1.85788 15.2014C1.98669 14.2961 2.29231 13.1913 3.0447 12.6712C3.45613 12.3868 3.96308 12.3091 4.55141 12.4406C5.08349 12.5595 5.46111 12.8473 5.67378 13.296C6.45538 14.9455 4.79802 18.2783 4.78119 18.3118L4.76361 18.3467Z" fill="#D9AC00"/>
<path id="Vector_13" d="M1.35337 17.7849C2.10082 17.7849 2.70675 17.179 2.70675 16.4316C2.70675 15.6841 2.10082 15.0782 1.35337 15.0782C0.605927 15.0782 0 15.6841 0 16.4316C0 17.179 0.605927 17.7849 1.35337 17.7849Z" fill="#FFEB7E"/>
<path id="Vector_14" d="M1.35337 16.4316C1.35337 15.9307 1.62567 15.4937 2.03006 15.2597C1.83094 15.1445 1.59998 15.0782 1.35337 15.0782C0.605906 15.0782 0 15.6841 0 16.4316C0 17.179 0.605906 17.7849 1.35337 17.7849C1.59998 17.7849 1.83094 17.7187 2.03006 17.6034C1.62562 17.3694 1.35337 16.9324 1.35337 16.4316Z" fill="#FFE02F"/>
</g>
</g>
</svg>
