<svg width="24" height="24" viewBox="0 0 24 24" fill="none" xmlns="http://www.w3.org/2000/svg">
<g id="fi_5303212" clip-path="url(#clip0_5454_38629)">
<g id="Group">
<g id="Group_2">
<path id="Vector" d="M21.0273 3.01699C20.0924 1.22435 18.2154 0.000116178 16.0519 0.000116178C14.1599 0.000116178 12.4869 0.936397 11.4716 2.3704C11.1541 2.81876 10.4898 2.81876 10.1723 2.3704C9.15696 0.936397 7.48399 0.000116178 5.59192 0.000116178C2.2781 -0.0211651 -0.0158255 2.88452 0.00100267 6.02412H6.51691e-05C-0.0160598 10.1544 2.96289 13.7631 5.9515 16.2484C7.86588 17.8468 9.6895 18.9281 10.4517 19.3536C10.6879 19.4855 10.9746 19.4892 11.2134 19.3622C11.9925 18.9475 13.8373 17.878 15.7633 16.2484C19.4777 13.2584 23.1916 7.51169 21.0273 3.01699Z" fill="#FF5398"/>
<path id="Vector_2" d="M16.0512 0C14.1592 0 12.4862 0.936281 11.4709 2.37028C11.3119 2.59477 11.0661 2.70684 10.8203 2.70652V19.4544C10.9548 19.4578 11.0901 19.4273 11.2127 19.362C11.9918 18.9474 13.8366 17.8779 15.7626 16.2482C19.477 13.2584 23.1909 7.51162 21.0266 3.01687C20.0917 1.22423 18.2148 0 16.0512 0Z" fill="#FF0074"/>
</g>
<g id="Group_3">
<path id="Vector_3" d="M23.4979 11.0922C22.7637 9.68453 21.2898 8.72317 19.591 8.72317C18.1053 8.72317 16.7916 9.45836 15.9943 10.5844C15.745 10.9365 15.2233 10.9365 14.974 10.5844C14.1768 9.45836 12.8631 8.72317 11.3773 8.72317C8.77518 8.70649 6.97386 10.9882 6.98708 13.4535H6.98638C6.97372 16.6968 9.31293 19.5305 11.6597 21.482C13.1629 22.7372 14.5949 23.5863 15.1934 23.9204C15.3789 24.0239 15.6041 24.0269 15.7916 23.9271C16.4034 23.6015 17.852 22.7616 19.3644 21.482C22.2809 19.1343 25.1973 14.6216 23.4979 11.0922Z" fill="#FFBDDE"/>
<path id="Vector_4" d="M19.59 8.72302C18.1043 8.72302 16.7906 9.45821 15.9933 10.5842C15.8685 10.7605 15.6755 10.8485 15.4824 10.8483V23.9995C15.5881 24.0022 15.6942 23.9782 15.7905 23.927C16.4023 23.6014 17.8509 22.7615 19.3633 21.4819C22.28 19.1341 25.1963 14.6215 23.4969 11.092C22.7628 9.68438 21.2889 8.72302 19.59 8.72302Z" fill="#FF8ABF"/>
</g>
</g>
</g>
<defs>
<clipPath id="clip0_5454_38629">
<rect width="24" height="24" fill="white"/>
</clipPath>
</defs>
</svg>
