<svg width="24" height="24" viewBox="0 0 24 24" fill="none" xmlns="http://www.w3.org/2000/svg">
<g id="fi_7172786">
<path id="Vector" d="M11.1308 0.454048C12.8668 1.54673 14.354 2.99184 15.4961 4.6958C16.6381 6.39977 17.4095 8.3246 17.7604 10.3456C17.7604 10.3456 18.5132 9.97445 19.0192 8.24445C19.0385 8.17911 19.076 8.1206 19.1273 8.07573C19.1786 8.03085 19.2415 8.00144 19.3088 7.99093C19.3762 7.98041 19.4451 7.98922 19.5076 8.01632C19.5701 8.04343 19.6236 8.08772 19.662 8.14405C20.9033 10.035 21.576 12.2423 21.6004 14.504C21.6004 19.5276 17.3024 23.6 12.0004 23.6C6.69839 23.6 2.40039 19.5276 2.40039 14.504C2.41715 12.5918 2.80866 10.7013 3.55279 8.93965C3.57985 8.87534 3.6263 8.82108 3.68566 8.78443C3.74503 8.74778 3.81435 8.73057 3.88396 8.7352C3.95358 8.73982 4.02001 8.76605 4.07401 8.81023C4.12801 8.8544 4.16687 8.91433 4.18519 8.98165C4.38439 9.67605 4.78959 10.53 5.60039 10.8C5.60039 10.7972 5.60479 8.39565 8.00039 6.00005C9.60039 4.40005 10.428 3.68605 10.5476 0.778848C10.5496 0.711614 10.5691 0.64606 10.604 0.588592C10.639 0.531125 10.6883 0.48371 10.747 0.450981C10.8058 0.418253 10.8721 0.40133 10.9393 0.401868C11.0066 0.402406 11.0726 0.420385 11.1308 0.454048Z" fill="#F7B14E"/>
<path id="Vector_2" d="M17.0253 18.2376C15.7752 19.7862 14.1056 20.942 12.2161 21.5668C12.0755 21.6112 11.9246 21.6112 11.7841 21.5668C9.8945 20.942 8.22489 19.7862 6.97487 18.2376C5.78487 16.6712 5.56967 13.9388 6.97487 12.5824C8.82487 10.7912 11.2649 11.6556 12.0001 13.5232C12.7353 11.6556 15.1753 10.7912 17.0253 12.5824C18.4305 13.9388 18.2153 16.6712 17.0253 18.2376Z" fill="#E23B58"/>
</g>
</svg>
